<?xml version="1.0" encoding="utf-8"?>
<!-- Generator: Adobe Illustrator 23.0.1, SVG Export Plug-In . SVG Version: 6.00 Build 0)  -->
<svg version="1.1" id="Layer_1" xmlns="http://www.w3.org/2000/svg" xmlns:xlink="http://www.w3.org/1999/xlink" x="0px" y="0px"
	 viewBox="0 0 1116 768" style="enable-background:new 0 0 1116 768;" xml:space="preserve">
<style type="text/css">
	.st0{fill:#FCC02E;}
	.st1{fill:none;}
	.st2{fill:#FCFCFC;}
	.st3{fill:#F77D02;}
	.st4{fill:#444053;}
	.st5{fill:#E6E8EC;}
	.st6{opacity:0.2;enable-background:new    ;}
	.st7{fill:#3F3D56;}
	.st8{fill:#FFFFFF;}
	.st9{fill:#FBBEBE;}
	.st10{fill:#BFCA32;}
	.st11{fill:#FFDCA9;}
	.st12{opacity:0.1;enable-background:new    ;}
	.st13{fill:#F9A826;}
	.st14{fill:#67647E;}
	.st15{enable-background:new    ;}
	.st16{fill:#F2F2F2;}
	.st17{fill:#5F5D7E;}
	.st18{fill:#474157;}
	.st19{fill:#FFD037;}
	.st20{fill:#65617D;}
	.st21{fill:#9D9CB5;}
	.st22{fill:#C8CAD7;}
	.st23{fill:#EDEDF4;}
	.st24{clip-path:url(#SVGID_2_);fill:#808080;}
	.st25{clip-path:url(#SVGID_4_);fill:#808080;}
	.st26{clip-path:url(#SVGID_6_);fill:#808080;}
	.st27{clip-path:url(#SVGID_8_);fill:#808080;}
	.st28{clip-path:url(#SVGID_10_);fill:#808080;}
	.st29{clip-path:url(#SVGID_12_);fill:#808080;}
	.st30{clip-path:url(#SVGID_14_);fill:#808080;}
	.st31{clip-path:url(#SVGID_16_);fill:#808080;}
	.st32{clip-path:url(#SVGID_18_);fill:#808080;}
	.st33{clip-path:url(#SVGID_20_);fill:#808080;}
	.st34{fill:#EFB7B9;}
	.st35{fill:#A36468;}
	.st36{fill:#B07473;}
	.st37{fill:#E1E7EF;}
	.st38{fill:#585268;}
	.st39{opacity:0.1;}
	.st40{fill:#CED0D1;}
	.st41{fill:#8C8B8B;}
	.st42{fill:#333333;}
</style>
<g>
	<g>
		<path class="st0" d="M545.8,522.2c0,11.9-4.8,22.6-12.7,30.4c-7.9,7.8-18.6,12.6-30.6,12.6H227.3c-7.2,0-14-1.7-20-4.8
			c0.2-0.1,0.3-0.2,0.5-0.3c3.3-1.9,6.5-4.2,9.2-6.9c7.9-7.8,12.7-18.5,12.7-30.4c0-16.6-9.5-31-23.4-38.2
			c6.2-3.4,13.4-5.4,21.1-5.4h275.2C526.3,479.2,545.8,498.5,545.8,522.2z"/>
	</g>
</g>
<g>
	<g>
		<g>
			<path class="st0" d="M151.8,522.3c0,0,0.1,0,0.1,0.1l0,0C151.9,522.5,151.8,522.5,151.8,522.3z M152.7,522.3L152.7,522.3
				C152.7,522.5,152.7,522.5,152.7,522.3C152.7,522.3,152.7,522.5,152.7,522.3z M152.3,511c-3,0-5.4,2.6-5.4,5.7c0,0.3,0,0.5,0,0.8
				h10.7c0-0.3,0-0.5,0-0.8C157.6,513.6,155.2,511,152.3,511z M152.7,522.5L152.7,522.5C152.7,522.3,152.7,522.5,152.7,522.5
				L152.7,522.5z M151.9,522.5L151.9,522.5c0,0-0.1,0-0.1-0.1C151.8,522.5,151.9,522.5,151.9,522.5z M167.2,503
				c-3.9-1-7.6-2.9-10.7-5.5l-4.3-3.7l-4.6,3.9c-3.1,2.6-6.8,4.5-10.7,5.4l-6.7,1.6l2.8,24c0.8,7,4.6,13.1,10.4,16.6l8.8,5.4
				l8.8-5.4c5.7-3.5,9.6-9.7,10.4-16.6l2.8-24L167.2,503z M160.8,527.5c0,1.7-1.3,3.1-2.9,3.1h-11.3c-1.6,0-2.9-1.4-2.9-3.1v-6.9
				c0-1.5,1-2.7,2.2-3c0-0.3-0.1-0.6-0.1-0.8c0-3.7,2.8-6.8,6.4-6.8c3.5,0,6.4,3,6.4,6.8c0,0.3,0,0.6-0.1,0.8c1.3,0.3,2.2,1.5,2.2,3
				v6.9H160.8z M152.3,511c-3,0-5.4,2.6-5.4,5.7c0,0.3,0,0.5,0,0.8h10.7c0-0.3,0-0.5,0-0.8C157.6,513.6,155.2,511,152.3,511z
				 M152.7,522.5L152.7,522.5C152.7,522.3,152.7,522.5,152.7,522.5L152.7,522.5z M151.9,522.5L151.9,522.5c0,0-0.1,0-0.1-0.1
				C151.8,522.5,151.9,522.5,151.9,522.5z"/>
		</g>
	</g>
	<g>
		<g>
			<g>
				<path class="st1" d="M152.3,531.7L152.3,531.7"/>
			</g>
		</g>
	</g>
	<g>
		<g>
			<g>
				<path class="st0" d="M151.7,522.5c0,0,0.1,0.1,0.2,0.1v-0.1C151.8,522.6,151.7,522.5,151.7,522.5z M152.9,522.5L152.9,522.5
					C152.9,522.6,152.9,522.6,152.9,522.5L152.9,522.5z"/>
			</g>
		</g>
	</g>
	<g>
		<g>
			<g>
				<path class="st0" d="M151.7,522.5c0,0,0.1,0.1,0.2,0.1v-0.1C151.8,522.6,151.7,522.5,151.7,522.5z M152.9,522.5L152.9,522.5
					C152.9,522.6,152.9,522.6,152.9,522.5L152.9,522.5z"/>
			</g>
		</g>
	</g>
	<g>
		<g>
			<g>
				<g>
					<path class="st0" d="M153,524l0.4,5.7h-2.1l0.4-5.7l0.1-1.3v-0.1c-0.1,0-0.1,0-0.2,0l0,0c-0.4-0.2-0.7-0.7-0.7-1.2
						c0-0.8,0.6-1.4,1.4-1.4c0.8,0,1.4,0.6,1.4,1.4c0,0.5-0.3,1-0.7,1.2l0,0c0,0,0,0-0.1,0l0,0L153,524z"/>
				</g>
			</g>
			<g>
				<g>
					<path class="st2" d="M151.8,522.6L151.8,522.6c-0.1,0-0.1,0-0.2,0C151.7,522.5,151.8,522.6,151.8,522.6z"/>
				</g>
			</g>
			<g>
				<g>
					<path class="st2" d="M153,522.5C152.9,522.6,152.9,522.6,153,522.5L153,522.5C152.9,522.5,152.9,522.5,153,522.5z"/>
				</g>
			</g>
		</g>
	</g>
</g>
<g>
	<g>
		<path class="st3" d="M545.8,640.5c0,11.9-4.8,22.6-12.7,30.4c-7.9,7.8-18.6,12.6-30.6,12.6H227.3c-7.3,0-14.1-1.8-20.2-5
			c0.2-0.1,0.5-0.3,0.7-0.4c3.3-1.9,6.5-4.2,9.2-6.9c7.9-7.8,12.7-18.5,12.7-30.4c0-16.5-9.4-30.9-23.2-38
			c6.1-3.4,13.2-5.3,20.8-5.3h275.2C526.3,597.5,545.8,616.7,545.8,640.5z"/>
	</g>
</g>
<g>
	<g>
		<g>
			<path class="st4" d="M155.1,626.2v6c0,0.1-0.1,0.2-0.2,0.2h-0.1v31.3c0,1.8-1.5,3.3-3.3,3.3h-19.8c-1.8,0-3.3-1.5-3.3-3.3l0,0
				v-30.2h-0.1c-0.1,0-0.1-0.1-0.1-0.1V630c0-0.1,0.1-0.1,0.1-0.1l0,0h0.1v-1.3h-0.1c-0.1,0-0.2-0.1-0.2-0.2V625
				c0-0.1,0.1-0.2,0.2-0.2h0.1V623h-0.1c-0.1,0-0.1-0.1-0.1-0.1l0,0v-1.8c0-0.1,0.1-0.1,0.1-0.1h0.1v-3.7c0-1.8,1.5-3.3,3.3-3.3
				h19.8c1.8,0,3.3,1.5,3.3,3.3v8.8h0.1C155.1,626,155.1,626.1,155.1,626.2z"/>
		</g>
	</g>
	<g>
		<g>
			<path class="st5" d="M139.4,615.6h3.2c0.1,0,0.2,0.1,0.2,0.2v0.3c0,0.1-0.1,0.2-0.2,0.2h-3.2c-0.1,0-0.2-0.1-0.2-0.2v-0.3
				C139.2,615.7,139.3,615.6,139.4,615.6z"/>
		</g>
	</g>
	<g>
		<g>
			<ellipse class="st5" cx="143.8" cy="616" rx="0.4" ry="0.4"/>
		</g>
	</g>
	<g>
		<g>
			<path class="st3" d="M153.2,617.8V664c0,1.1-0.9,2.1-2.1,2.1h-18.8c-1.1,0-2.1-0.9-2.1-2.1l0,0v-46.2c0-1.1,0.9-2.1,2.1-2.1l0,0
				h2.8v0.4c0,0.9,0.8,1.7,1.7,1.7h9.6c0.9,0,1.7-0.8,1.7-1.7v-0.3h3C152.3,615.8,153.2,616.7,153.2,617.8L153.2,617.8z"/>
		</g>
	</g>
	<g class="st6">
		<g>
			<rect x="131" y="630.8" width="21.4" height="10.3"/>
		</g>
	</g>
	<g>
		<g>
			<rect x="131" y="646.6" class="st7" width="21.4" height="10.3"/>
		</g>
	</g>
	<g>
		<g>
			<ellipse class="st8" cx="150.3" cy="621.3" rx="1.8" ry="1.8"/>
		</g>
	</g>
	<g>
		<g>
			<polygon class="st7" points="151.1,621.3 150.4,621.3 150.4,620.6 150.2,620.6 150.2,621.3 149.4,621.3 149.4,621.5 150.2,621.5 
				150.2,622.2 150.4,622.2 150.4,621.5 151.1,621.5 			"/>
		</g>
	</g>
	<g>
		<g>
			<path class="st8" d="M139.7,653.7c0.6,2.1,2.5,3.3,2.5,3.3s1-2.1,0.4-4.1c-0.6-2.1-2.5-3.3-2.5-3.3S139.1,651.6,139.7,653.7z"/>
		</g>
	</g>
	<g>
		<g>
			<path class="st3" d="M140.5,653.3c1.5,1.5,1.7,3.8,1.7,3.8s-2.3-0.1-3.8-1.6s-1.7-3.8-1.7-3.8S139,651.8,140.5,653.3z"/>
		</g>
	</g>
	<g>
		<g>
			<path class="st8" d="M144.8,653.7c-0.6,2.1-2.5,3.3-2.5,3.3s-1-2.1-0.4-4.1c0.6-2.1,2.5-3.3,2.5-3.3S145.3,651.6,144.8,653.7z"/>
		</g>
	</g>
	<g>
		<g>
			<path class="st3" d="M143.9,653.3c-1.5,1.5-1.7,3.8-1.7,3.8s2.3-0.1,3.8-1.6c1.5-1.5,1.7-3.8,1.7-3.8S145.5,651.8,143.9,653.3z"
				/>
		</g>
	</g>
	<g>
		<g>
			<rect x="131" y="630.8" class="st7" width="21.4" height="10.3"/>
		</g>
	</g>
	<g>
		<g>
			<rect x="146.3" y="632.8" class="st8" width="0.2" height="6.8"/>
		</g>
	</g>
	<g>
		<g>
			<ellipse class="st3" cx="146.4" cy="632.8" rx="1" ry="1"/>
		</g>
	</g>
	<g>
		<g>
			<path class="st8" d="M146.4,637c0,0-0.1-3-3-2.6"/>
		</g>
	</g>
	<g>
		<g>
			<path class="st9" d="M176.2,657.3l-5.5,7.5l-21.2-13.1l0,0l0,0l0,0l-0.1-0.1l-1.4-0.9c0,0,0,0,0-0.1s0.1-0.2,0.1-0.3l0.1-0.1l0,0
				l0,0l0,0c0.3-0.2,0.7-0.3,1.1-0.3c0.9,0,1.8,0.2,2.6,0.6c1.6,0.8,5.2,2.5,5.7,1.5c0.7-1.3-7.6-16-7.6-16
				c-0.7-1.7-0.2-2.3,0.1-2.5l0,0h0.1c0,0,0,0,0.1,0l0,0l1.1,1.5l0,0l0.1,0.1l0,0l6.7,8.8c10.2-5.5,13.7,9.2,13.7,9.2L176.2,657.3z"
				/>
		</g>
	</g>
	<g>
		<g>
			<path class="st7" d="M151.8,635.1c0,0.1-0.2,0.2-0.3,0.2h-0.1c-0.2-0.1-0.5-0.3-0.7-0.7s-0.3-0.7-0.2-1h0.1c0,0,0,0,0.1,0
				c-0.1,0.2,0,0.5,0.2,1c0.2,0.3,0.5,0.6,0.7,0.6C151.7,635.1,151.8,635.1,151.8,635.1L151.8,635.1L151.8,635.1L151.8,635.1
				L151.8,635.1z"/>
		</g>
	</g>
	<g>
		<g>
			<path class="st7" d="M149.4,651.8L149.4,651.8l-0.1-0.1c0-0.2-0.1-0.5-0.5-0.8c-0.3-0.3-0.6-0.4-0.8-0.4l0.1-0.1l0,0l0,0
				c0.3,0.1,0.5,0.2,0.8,0.5C149.2,651.2,149.4,651.6,149.4,651.8z"/>
		</g>
	</g>
</g>
<g>
	<g>
		<path class="st10" d="M542.6,402.3c0,11.9-4.8,22.6-12.7,30.4s-18.6,12.6-30.6,12.6H224c-5.7,0-11.3-1.1-16.3-3.2
			c3.3-1.9,6.5-4.2,9.2-6.9c7.9-7.8,12.7-18.5,12.7-30.4c0-18-11.2-33.5-27-39.9c6.4-3.6,13.7-5.6,21.5-5.6h275.2
			C523.2,359.3,542.6,378.6,542.6,402.3z"/>
	</g>
</g>
<g>
	<g>
		<g>
			<polygon class="st11" points="174,436.4 152,436.4 138.6,417 160.6,417 			"/>
		</g>
	</g>
	<g>
		<g>
			<ellipse class="st11" cx="158.6" cy="413.9" rx="7.1" ry="8.9"/>
		</g>
	</g>
	<g>
		<g>
			<path class="st11" d="M160.3,408.4L160.3,408.4c-1,0-1.8-0.8-1.8-1.8v-6.1c0-1,0.8-1.8,1.8-1.8l0,0c1,0,1.8,0.8,1.8,1.8v6.1
				C162.1,407.6,161.3,408.4,160.3,408.4z"/>
		</g>
	</g>
	<g>
		<g>
			<path class="st11" d="M139.6,405.2L139.6,405.2c-0.9,0.6-2,0.3-2.5-0.5l-6.5-9.9c-0.6-0.9-0.3-2,0.5-2.5l0,0
				c0.9-0.6,2-0.3,2.5,0.5l6.5,9.9C140.7,403.5,140.5,404.6,139.6,405.2z"/>
		</g>
	</g>
	<g>
		<g>
			<g>
				<g>
					<path class="st10" d="M138.2,420.3c-1.4,0-2.6-1.2-2.6-2.6v-35.2c0-1.4,1.2-2.6,2.6-2.6h17.9c1.4,0,2.6,1.2,2.6,2.6v35.2
						c0,1.4-1.2,2.6-2.6,2.6H138.2z"/>
				</g>
			</g>
			<g>
				<g>
					<path class="st8" d="M156.1,380.2c1.3,0,2.3,1,2.3,2.3v35.2c0,1.3-1,2.3-2.3,2.3h-17.9c-1.3,0-2.3-1-2.3-2.3v-35.2
						c0-1.3,1-2.3,2.3-2.3H156.1L156.1,380.2z M156.1,379.5h-17.9c-1.6,0-2.9,1.3-2.9,2.9v35.2c0,1.6,1.3,2.9,2.9,2.9h17.9
						c1.6,0,2.9-1.3,2.9-2.9v-35.2C159,380.8,157.7,379.5,156.1,379.5L156.1,379.5z"/>
				</g>
			</g>
		</g>
	</g>
	<g>
		<g>
			<g>
				<rect x="137.5" y="383.6" class="st8" width="19.3" height="31.5"/>
			</g>
		</g>
	</g>
	<g>
		<g>
			<ellipse class="st8" cx="147.2" cy="417.3" rx="1.3" ry="1.3"/>
		</g>
	</g>
	<g>
		<g>
			<g>
				<path class="st11" d="M140.1,405.2L140.1,405.2c-0.2,1-1.2,1.6-2.1,1.4l-6-1.3c-1-0.2-1.6-1.2-1.4-2.1l0,0
					c0.2-1,1.2-1.6,2.1-1.4l6,1.3C139.7,403.3,140.3,404.3,140.1,405.2z"/>
			</g>
		</g>
		<g>
			<g>
				<path class="st11" d="M140.1,409.1L140.1,409.1c-0.2,1-1.2,1.6-2.1,1.4l-6-1.3c-1-0.2-1.6-1.2-1.4-2.1l0,0
					c0.2-1,1.2-1.6,2.1-1.4l6,1.3C139.7,407.2,140.3,408.2,140.1,409.1z"/>
			</g>
		</g>
		<g>
			<g>
				<path class="st11" d="M140.1,413L140.1,413c-0.2,1-1.2,1.6-2.1,1.4l-6-1.3c-1-0.2-1.6-1.2-1.4-2.1l0,0c0.2-1,1.2-1.6,2.1-1.4
					l6,1.3C139.7,411.1,140.3,412,140.1,413z"/>
			</g>
		</g>
	</g>
</g>
<g>
	<g>
		<path class="st8" d="M186.2,364.8c5.2,0,10.4,1,15.2,2.9c15.3,6.2,25.1,20.7,25.1,37.1c0,10.7-4.2,20.7-11.8,28.3
			c-2.5,2.5-5.4,4.7-8.6,6.5c-6,3.4-13,5.3-20,5.3h-68.5c-22.3,0-40.3-17.9-40.3-40c0-10.7,4.2-20.7,11.8-28.3
			c7.7-7.6,17.7-11.7,28.5-11.7L186.2,364.8 M186.2,361.8h-68.5c-12,0-22.8,4.8-30.6,12.6c-7.9,7.8-12.7,18.5-12.7,30.4
			c0,23.8,19.5,43,43.3,43h68.5c7.9,0,15.1-2,21.5-5.7c3.3-1.9,6.5-4.2,9.2-6.9c7.9-7.8,12.7-18.5,12.7-30.4c0-18-11.2-33.5-27-39.9
			C197.5,362.9,192,361.8,186.2,361.8L186.2,361.8z"/>
	</g>
</g>
<g>
	<g>
		<path class="st8" d="M186.2,482.8c5.2,0,10.4,1,15.2,2.9c1.2,0.5,2.3,1,3.3,1.6c13.4,6.9,21.8,20.5,21.8,35.5
			c0,10.7-4.2,20.7-11.8,28.3c-2.5,2.5-5.4,4.7-8.6,6.5l0,0l0,0c-0.1,0.1-0.2,0.1-0.3,0.2l0,0l0,0c-5.9,3.3-12.7,5-19.6,5h-68.5
			c-22.3,0-40.3-17.9-40.3-40c0-10.7,4.2-20.7,11.8-28.3c7.7-7.6,17.7-11.7,28.5-11.7H186.2 M186.2,479.8h-68.5
			c-12,0-22.8,4.8-30.6,12.6c-7.9,7.8-12.7,18.5-12.7,30.4c0,23.8,19.5,43,43.3,43h68.5c7.7,0,14.8-2,21.1-5.4
			c0.2-0.1,0.3-0.2,0.5-0.3c3.3-1.9,6.5-4.2,9.2-6.9c7.9-7.8,12.7-18.5,12.7-30.4c0-16.6-9.5-31-23.4-38.2c-1.2-0.6-2.4-1.2-3.6-1.7
			C197.5,480.9,192,479.8,186.2,479.8L186.2,479.8z"/>
	</g>
</g>
<g>
	<g>
		<path class="st8" d="M186.2,600.8c5.2,0,10.4,1,15.2,2.9c1.2,0.5,2.4,1,3.6,1.7c13.3,6.9,21.6,20.5,21.6,35.4
			c0,10.7-4.2,20.7-11.8,28.3c-2.5,2.5-5.4,4.7-8.5,6.4c-0.2,0.1-0.4,0.2-0.6,0.3l0,0l0,0c-5.8,3.2-12.6,4.9-19.4,4.9h-68.5
			c-22.3,0-40.3-17.9-40.3-40c0-10.7,4.2-20.7,11.8-28.3c7.7-7.6,17.7-11.7,28.5-11.7L186.2,600.8 M186.2,597.8h-68.5
			c-12,0-22.8,4.8-30.6,12.6c-7.9,7.8-12.7,18.4-12.7,30.4c0,23.8,19.5,43,43.3,43h68.5c7.6,0,14.6-1.9,20.8-5.3
			c0.2-0.1,0.5-0.3,0.7-0.4c3.3-1.9,6.5-4.2,9.2-6.9c7.9-7.8,12.7-18.5,12.7-30.4c0-16.5-9.4-30.9-23.2-38c-1.3-0.7-2.5-1.3-3.9-1.8
			C197.5,598.8,192,597.8,186.2,597.8L186.2,597.8z"/>
	</g>
</g>
<g>
	<g class="st12">
		<ellipse class="st13" cx="964.4" cy="672.2" rx="49.4" ry="7.9"/>
	</g>
	<g>
		<path class="st14" d="M966.5,666.2l3.1,2.3c0,0,2,0,2,1.7c0,1.7,4.8,3.6,4.8,3.6s7.3,2,12.8,0c1.8-0.7,2.3-1.8,2.2-3.1
			c-0.2,0-0.3,0-0.5,0c-2.2,0.1-4.5,0.7-6.8,0.9c-1.2,0.1-2.6,0.1-3.8,0.1c-0.7,0-1.2-0.1-1.9-0.2c-1.5-0.2-2.9-1.1-4.3-1.8
			c-0.3-0.2-0.7-0.4-0.8-0.7c-0.2-0.3-0.3-0.7-0.4-1c-0.5-1.7-1.8-3.1-3.4-4c-0.9-0.5-1.9-1-3-1.2
			C966.4,663.8,966.4,665.1,966.5,666.2z"/>
	</g>
	<g>
		<path class="st14" d="M942.6,671.3c0,0,0.9,2.6,9.3,3.6c8.4,0.9,7.2-5.3,7.2-5.3s0.1-0.2,0.1-0.5c-0.4,0.2-0.7,0.4-0.8,0.5
			c-0.7,0.4-1.4,1.1-2.2,1.5c-1.9,1-4.2,0.7-6.4,0.4c-1-0.2-2-0.3-3-0.5c-0.7-0.1-1.5-0.3-2.2-0.7c-0.5-0.3-1-0.7-1.5-1
			c-0.1,0.6-0.2,1.2-0.2,1.8C942.6,671.3,942.6,671.3,942.6,671.3z"/>
	</g>
	<g class="st12">
		<path d="M966.5,666.2l3.1,2.3c0,0,2,0,2,1.7c0,1.7,4.8,3.6,4.8,3.6s7.3,2,12.8,0c1.8-0.7,2.3-1.8,2.2-3.1c-0.2,0-0.3,0-0.5,0
			c-2.2,0.1-4.5,0.7-6.8,0.9c-1.2,0.1-2.6,0.1-3.8,0.1c-0.7,0-1.2-0.1-1.9-0.2c-1.5-0.2-2.9-1.1-4.3-1.8c-0.3-0.2-0.7-0.4-0.8-0.7
			c-0.2-0.3-0.3-0.7-0.4-1c-0.5-1.7-1.8-3.1-3.4-4c-0.9-0.5-1.9-1-3-1.2C966.4,663.8,966.4,665.1,966.5,666.2z"/>
	</g>
	<g class="st12">
		<path d="M942.6,671.3c0,0,0.9,2.6,9.3,3.6c8.4,0.9,7.2-5.3,7.2-5.3s0.1-0.2,0.1-0.5c-0.4,0.2-0.7,0.4-0.8,0.5
			c-0.7,0.4-1.4,1.1-2.2,1.5c-1.9,1-4.2,0.7-6.4,0.4c-1-0.2-2-0.3-3-0.5c-0.7-0.1-1.5-0.3-2.2-0.7c-0.5-0.3-1-0.7-1.5-1
			c-0.1,0.6-0.2,1.2-0.2,1.8C942.6,671.3,942.6,671.3,942.6,671.3z"/>
	</g>
	<g class="st12">
		<path d="M985.2,661.7c-3.1,2.2-7.2,3.1-11,2.2L985.2,661.7z"/>
	</g>
	<g class="st12">
		<path d="M958.8,662.3c-3.2,3.1-8.4,2.9-11.4-0.3c-0.1-0.2-0.2-0.2-0.3-0.4L958.8,662.3z"/>
	</g>
	<g class="st15">
		<path class="st16" d="M858.2,434.4c-27.4-0.8-53.6-8.9-78.5-17.8c-24.9-8.9-49.7-18.6-76.5-23.2c-17.2-3-37-3.4-50.8,5
			c-13.3,8.1-17.6,22.1-20.1,35c-1.7,9.8-2.7,20,2,29.1c3.3,6.4,9.3,11.7,13.3,17.7c14.2,21.1,4.1,47.2-11.3,67.8
			c-7.3,9.7-15.6,18.9-21.2,29.2c-5.5,10.3-8.2,22.1-3.2,32.6c4.8,10.4,16.3,18.2,28.7,23.7c25.4,11.2,55.1,14.4,84.3,16.2
			c64.4,4.1,129.1,2.2,193.6,0.5c23.9-0.7,47.9-1.3,71.4-4.6c13.1-1.9,26.5-4.8,36-12c12-9.1,15-24.5,7-35.8
			c-13.5-19.1-50.9-23.8-60.4-44.3c-5.2-11.3,0.2-23.9,7.7-34.3c16.2-22.4,43.3-42.2,44.9-67.8c1-17.6-12.1-35.3-32.3-43.6
			c-21.2-8.8-50.5-7.6-66.1,6.9C910.7,429.4,882.4,435.1,858.2,434.4z"/>
	</g>
	<g>
		<polygon class="st17" points="722.5,539.3 722.4,546.1 721.4,600.3 712.8,620.3 683.2,620.6 683.2,542.3 714,540 		"/>
	</g>
	<g class="st12">
		<polygon points="722.5,539.3 722.4,546.1 721.4,600.3 712.8,620.3 683.2,620.6 683.2,542.3 714,540 		"/>
	</g>
	<g>
		<polygon class="st17" points="722.5,539.3 722.4,546.1 721.4,600.3 712.8,620.3 715,546.2 715,546.2 714,540 		"/>
	</g>
	<g class="st12">
		<polygon points="714,540 722.5,539.3 722.4,546.1 715,546.2 683.2,546.5 683.2,542.3 		"/>
	</g>
	<g>
		<polygon class="st17" points="988.4,542.3 988.4,620.2 981.6,620.2 954,600.3 954,540.2 978.6,538 980.1,538.6 981.6,539.3 		"/>
	</g>
	<g class="st12">
		<rect x="981.6" y="538.6" width="7" height="81.6"/>
	</g>
	<g class="st12">
		<polygon points="988.4,538.6 988.4,543.1 981.6,543.2 954,543.5 954,540.2 978.6,538 980.1,538.6 981.6,539.3 981.6,538.6 		"/>
	</g>
	<g>
		<polygon class="st17" points="988.4,536.1 988.4,542.3 650,546.2 650,538.1 681.9,531.7 959,529.7 		"/>
	</g>
	<g class="st12">
		<polygon points="988.4,536.1 988.4,542.3 650,546.2 650,538.1 		"/>
	</g>
	<g class="st12">
		<ellipse cx="707.7" cy="533.7" rx="15.2" ry="1"/>
	</g>
	<g>
		<path class="st13" d="M720.5,496.3c-0.3,0.4-0.6,0.9-0.7,1.4c-0.1,0.2-0.1,0.2-0.2,0.4c-0.1,0-0.2-0.1-0.2-0.1
			c-0.4-0.1-0.8-0.2-1.2-0.1c0-0.2,0-0.3,0-0.5c0.1-1.7-0.2-4.2-1.8-3.2c-1.7,1-0.5,2.6,0.6,3.8c0.1,0.1,0.2,0.2,0.2,0.2
			c-1,0.7-1.2,2.2-1.3,3.9s-1.6,3.5-2.5,4.5l-0.2,0.2c-0.7-0.6-1.7-0.8-2.7-0.7c-0.1-0.2-0.1-0.3-0.2-0.5c-0.7-2.7-2.3-7.4-4.3-8.4
			l0.2-0.3c0.8-1.1,1.8-2.7,0.4-3.1c-1.4-0.4-1.5,1.4-1.5,2.8c0,0.2,0,0.3,0,0.5c-0.6,0-1.1,0.2-1.5,0.7c-0.1-0.1-0.2-0.2-0.2-0.2
			c-1.2-1.3-3.2-3.5-3.9-1.9c-0.6,1.5,1.2,3.5,2.6,4.6l0.1,0.1c-0.9,3.6,2.9,6.5,5,7.7l0.2,0.2c-2.8,3.3-4.6,9.6-4.6,9.6l8,1.4
			c0,0,5.2-4.6,4.6-8.8h0.1c5.2-1.1,6.6-6.6,5.6-9.9h0.1c1-0.4,1.8-1,2.4-1.8C725.1,496.6,722,494.3,720.5,496.3z"/>
	</g>
	<g class="st12">
		<path d="M720.5,496.3c-0.3,0.4-0.6,0.9-0.7,1.4c-0.1,0.2-0.1,0.2-0.2,0.4c-0.1,0-0.2-0.1-0.2-0.1c-0.4-0.1-0.8-0.2-1.2-0.1
			c0-0.2,0-0.3,0-0.5c0.1-1.7-0.2-4.2-1.8-3.2c-1.7,1-0.5,2.6,0.6,3.8c0.1,0.1,0.2,0.2,0.2,0.2c-1,0.7-1.2,2.2-1.3,3.9
			s-1.6,3.5-2.5,4.5l-0.2,0.2c-0.7-0.6-1.7-0.8-2.7-0.7c-0.1-0.2-0.1-0.3-0.2-0.5c-0.7-2.7-2.3-7.4-4.3-8.4l0.2-0.3
			c0.8-1.1,1.8-2.7,0.4-3.1c-1.4-0.4-1.5,1.4-1.5,2.8c0,0.2,0,0.3,0,0.5c-0.6,0-1.1,0.2-1.5,0.7c-0.1-0.1-0.2-0.2-0.2-0.2
			c-1.2-1.3-3.2-3.5-3.9-1.9c-0.6,1.5,1.2,3.5,2.6,4.6l0.1,0.1c-0.9,3.6,2.9,6.5,5,7.7l0.2,0.2c-2.8,3.3-4.6,9.6-4.6,9.6l8,1.4
			c0,0,5.2-4.6,4.6-8.8h0.1c5.2-1.1,6.6-6.6,5.6-9.9h0.1c1-0.4,1.8-1,2.4-1.8C725.1,496.6,722,494.3,720.5,496.3z"/>
	</g>
	<g>
		<path class="st13" d="M704.7,498.6l-0.9,2.7c0,0-0.5-0.3-1.2-0.9c-1.3-1.2-3.1-3.1-2.6-4.6c0.7-1.7,2.7,0.5,3.9,1.9
			C704.4,498.2,704.7,498.6,704.7,498.6z"/>
	</g>
	<g>
		<path class="st13" d="M706.6,497c-0.2,0.3-0.6,0.7-0.9,1.1c-0.1-0.5-0.2-0.9-0.2-1.4c-0.1-1.4,0.1-3.2,1.5-2.8
			C708.4,494.3,707.5,495.9,706.6,497z"/>
	</g>
	<g>
		<path class="st13" d="M718.6,497.5c0,0.9-0.1,1.6-0.1,1.6c-0.4-0.3-0.7-0.7-1.2-1c-1.1-1.1-2.2-2.7-0.6-3.8
			C718.5,493.2,718.7,495.7,718.6,497.5z"/>
	</g>
	<g>
		<path class="st13" d="M724.1,498.7c-0.7,0.8-1.5,1.4-2.4,1.8c-0.2,0.1-0.5,0.2-0.8,0.3l-1.1-1.5c0.1-0.5,0.2-1,0.4-1.5
			s0.4-1,0.7-1.4C722.5,494.3,725.6,496.6,724.1,498.7z"/>
	</g>
	<g class="st12">
		<path d="M704,497.6c0.5,0.6,0.7,1,0.7,1l-0.9,2.7c0,0-0.5-0.3-1.2-0.9c0.2-0.8,0.5-1.7,1.1-2.4C703.6,497.8,703.7,497.8,704,497.6
			z"/>
	</g>
	<g class="st12">
		<path d="M706.6,497c-0.2,0.3-0.6,0.7-0.9,1.1c-0.1-0.5-0.2-0.9-0.2-1.4C705.9,496.7,706.4,496.8,706.6,497z"/>
	</g>
	<g>
		<path class="st13" d="M711.2,507.8l-2.3,1c-0.4-0.2-0.8-0.4-1.2-0.7c-2.4-1.5-7.4-5.2-4.1-9.6c3.2-4.4,6,3.5,7.1,7.4
			C711,507,711.2,507.8,711.2,507.8z"/>
	</g>
	<g class="st12">
		<path d="M717.4,498c0.3-0.3,0.7-0.6,1.2-0.6c0,0.9-0.1,1.6-0.1,1.6C718.1,498.7,717.7,498.4,717.4,498z"/>
	</g>
	<g class="st12">
		<path d="M721.7,500.5c-0.2,0.1-0.5,0.2-0.8,0.3l-1.1-1.5c0.1-0.5,0.2-1,0.4-1.5C720.9,498.2,721.4,499.2,721.7,500.5z"/>
	</g>
	<g>
		<path class="st13" d="M715.9,510.4c-0.2,0-0.2,0.1-0.4,0.1c-7.8,1.2-2.6-3-2.6-3s0.3-0.3,0.8-0.8c0.9-1,2.3-2.8,2.5-4.5
			c0.2-2.5,0.5-4.8,3.5-4.1C722.8,498.7,723.2,509,715.9,510.4z"/>
	</g>
	<g>
		<rect x="701" y="529.6" class="st18" width="14.8" height="3.9"/>
	</g>
	<g>
		<rect x="698.6" y="517" class="st18" width="19.5" height="13.5"/>
	</g>
	<g class="st12">
		<rect x="700.8" y="529.6" width="14.8" height="3.9"/>
	</g>
	<g class="st12">
		<rect x="698.5" y="517" width="19.5" height="13.5"/>
	</g>
	<g>
		<rect x="701.9" y="529.6" class="st18" width="14.8" height="3.9"/>
	</g>
	<g class="st12">
		<path d="M710.7,505.9c0.3,1.2,0.5,2,0.5,2l-2.3,1c-0.4-0.2-0.8-0.4-1.2-0.7C708.6,506.9,709.6,506.1,710.7,505.9z"/>
	</g>
	<g class="st12">
		<path d="M715.9,510.4c-0.2,0-0.2,0.1-0.4,0.1c-7.8,1.2-2.6-3-2.6-3s0.3-0.3,0.8-0.8C715.2,507.8,715.8,509.2,715.9,510.4z"/>
	</g>
	<g>
		<path class="st13" d="M703.3,517.9c0,0,4.3-15.5,10.4-10.7s-2.5,12.1-2.5,12.1L703.3,517.9z"/>
	</g>
	<g class="st12">
		<ellipse cx="705.5" cy="500.9" rx="0.5" ry="0.5"/>
	</g>
	<g class="st12">
		<ellipse cx="705.5" cy="503.1" rx="0.5" ry="0.5"/>
	</g>
	<g class="st12">
		<ellipse cx="719.6" cy="501.3" rx="0.5" ry="0.5"/>
	</g>
	<g class="st12">
		<ellipse cx="708.3" cy="512.9" rx="0.5" ry="0.5"/>
	</g>
	<g class="st12">
		<ellipse cx="718.6" cy="505" rx="0.5" ry="0.5"/>
	</g>
	<g class="st12">
		<ellipse cx="713.6" cy="510.1" rx="0.5" ry="0.5"/>
	</g>
	<g class="st12">
		<ellipse cx="707.2" cy="501.8" rx="0.5" ry="0.5"/>
	</g>
	<g class="st12">
		<ellipse cx="718.3" cy="502.8" rx="0.5" ry="0.5"/>
	</g>
	<g class="st12">
		<ellipse cx="716.6" cy="506.5" rx="0.5" ry="0.5"/>
	</g>
	<g class="st12">
		<ellipse cx="711.5" cy="512.6" rx="0.5" ry="0.5"/>
	</g>
	<g class="st12">
		<ellipse cx="710.4" cy="510.2" rx="0.5" ry="0.5"/>
	</g>
	<g class="st12">
		<ellipse cx="707.9" cy="504.8" rx="0.5" ry="0.5"/>
	</g>
	<g class="st12">
		<rect x="701.9" y="529.6" width="14.8" height="1.4"/>
	</g>
	<g>
		<rect x="699.6" y="517" class="st18" width="19.5" height="13.5"/>
	</g>
	<g class="st12">
		<ellipse cx="712.1" cy="514.7" rx="0.5" ry="0.5"/>
	</g>
	<g class="st12">
		<ellipse cx="709.2" cy="515.3" rx="0.5" ry="0.5"/>
	</g>
	<g>
		<path class="st13" d="M755.7,568.7c0,0,2.4,3.1-1.1,7.9c-3.5,4.7-6.5,8.8-5.2,11.7c0,0,5.3-8.8,9.7-8.9
			C763.3,579.2,760.5,574,755.7,568.7z"/>
	</g>
	<g class="st12">
		<path d="M755.7,568.7c0.2,0.3,0.4,0.7,0.5,1c4.2,5,6.6,9.5,2.4,9.7c-3.7,0.1-8.4,6.9-9.4,8.5c0,0.2,0.1,0.2,0.2,0.4
			c0,0,5.3-8.8,9.7-8.9C763.3,579.2,760.5,574,755.7,568.7z"/>
	</g>
	<g>
		<path class="st19" d="M760.2,572.7c0,1.1-0.2,2-0.2,2s-0.2-0.9-0.2-2s0.2-0.6,0.3-0.6C760.1,572.1,760.2,571.6,760.2,572.7z"/>
	</g>
	<g>
		<path class="st19" d="M761.7,574c-1,0.5-1.8,0.8-1.9,0.7c-0.1-0.2,0.7-0.7,1.7-1.2c1-0.5,0.6-0.2,0.7,0
			C762.3,573.7,762.7,573.5,761.7,574z"/>
	</g>
	<g>
		<path class="st13" d="M743,568.7c0,0-2.4,3.1,1.1,7.9c3.5,4.7,6.5,8.8,5.2,11.7c0,0-5.3-8.8-9.7-8.9
			C735.3,579.2,738.2,574,743,568.7z"/>
	</g>
	<g class="st12">
		<path d="M743,568.7c-0.2,0.3-0.4,0.7-0.5,1c-4.2,5-6.6,9.5-2.4,9.7c3.7,0.1,8.4,6.9,9.4,8.5c0,0.2-0.1,0.2-0.2,0.4
			c0,0-5.3-8.8-9.7-8.9C735.3,579.2,738.2,574,743,568.7z"/>
	</g>
	<g>
		<path class="st19" d="M738.4,572.7c0,1.1,0.2,2,0.2,2s0.2-0.9,0.2-2s-0.2-0.6-0.3-0.6C738.5,572.1,738.4,571.6,738.4,572.7z"/>
	</g>
	<g>
		<path class="st19" d="M736.8,574c1,0.5,1.8,0.8,1.9,0.7c0.1-0.2-0.7-0.7-1.7-1.2s-0.6-0.2-0.7,0
			C736.4,573.6,735.9,573.5,736.8,574z"/>
	</g>
	<g class="st12">
		<ellipse class="st13" cx="749.3" cy="608.3" rx="25.3" ry="3.9"/>
	</g>
	<g>
		<path class="st20" d="M762.3,584l-0.1,1l-0.2,1.4l-0.1,0.6l-0.2,1.4l-0.1,0.6l-0.2,1.4l-1.9,15.7c-0.2,1.4-2.5,2.5-5.2,2.5h-10
			c-2.7,0-5-1.1-5.2-2.5l-1.9-15.7l-0.2-1.4l-0.1-0.6l-0.2-1.4l-0.1-0.6l-0.2-1.4l-0.1-1c-0.1-0.8,1.2-1.5,2.7-1.5h20.6
			C761.1,582.6,762.4,583.2,762.3,584z"/>
	</g>
	<g>
		<polygon class="st21" points="762.2,585 762,586.3 736.6,586.3 736.4,585 		"/>
	</g>
	<g>
		<polygon class="st21" points="761.9,586.8 761.8,588.3 736.8,588.3 736.7,586.8 		"/>
	</g>
	<g>
		<polygon class="st21" points="761.7,588.8 761.5,590.3 737.1,590.3 736.9,588.8 		"/>
	</g>
	<g>
		<path class="st22" d="M825.9,530.6v0.7h-23.4v-0.7c3-1.1,5-4,5-7.1c0-3-1.7-5.7-4.5-6.9h22.6c-3.8,1.7-5.5,6.3-3.7,10.1
			C822.8,528.3,824.2,529.8,825.9,530.6L825.9,530.6z"/>
	</g>
	<g class="st12">
		<path d="M825.8,516.7c-2.1,1-3.6,2.8-4.2,5h-14.2c-0.6-2.2-2.2-4.1-4.2-5H825.8L825.8,516.7z"/>
	</g>
	<g>
		<path class="st22" d="M775.9,512.7v4.4c0,2.4,1.7,4.4,4,4.4h68.6c2.2,0,4-2,4-4.4v-4.4H775.9L775.9,512.7z"/>
	</g>
	<g class="st12">
		<path d="M825.9,530.6v0.7h-23.4v-0.7c0.7-0.2,1.2-0.6,1.8-0.9h20.1C825,530.1,825.4,530.3,825.9,530.6z"/>
	</g>
	<g>
		<path class="st22" d="M796.1,530h36.5c0.7,0,1.2,0.5,1.2,1.2l0,0c0,0.7-0.5,1.2-1.2,1.2h-36.5c-0.7,0-1.2-0.5-1.2-1.2l0,0
			C794.9,530.5,795.5,530,796.1,530z"/>
	</g>
	<g>
		<path class="st17" d="M852.5,464.6c0-2.2-1.7-4-4-4l0,0h-68.6c-2.2,0-4,1.7-4,4l0,0v49h76.6v-49H852.5z"/>
	</g>
	<g>
		<path class="st13" d="M850.4,466.3v42.1c0,1.1-0.9,2-2,2l0,0H780c-1.1,0-2-0.9-2-2l0,0v-42.1c0-0.3,0.1-0.7,0.2-1
			c0.3-0.6,1-1,1.7-1h68.4C849.6,464.4,850.4,465.2,850.4,466.3z"/>
	</g>
	<g>
		<ellipse class="st8" cx="814.2" cy="462.5" rx="0.9" ry="0.9"/>
	</g>
	<g>
		<ellipse class="st8" cx="814.2" cy="517.3" rx="2.2" ry="2.2"/>
	</g>
	<g>
		<path class="st8" d="M850.4,466.3h-72.5c0-1.1,0.9-2,2-2l0,0h68.4C849.6,464.4,850.4,465.2,850.4,466.3L850.4,466.3z"/>
	</g>
	<g>
		<ellipse class="st23" cx="780" cy="465.3" rx="0.5" ry="0.5"/>
	</g>
	<g>
		<ellipse class="st23" cx="781.5" cy="465.3" rx="0.5" ry="0.5"/>
	</g>
	<g>
		<ellipse class="st23" cx="783" cy="465.3" rx="0.5" ry="0.5"/>
	</g>
	<g>
		<g>
			<g>
				<defs>
					<path id="SVGID_1_" d="M861,551.6c0,0,4.6,1.8,10.3,4.1c0.2,0.7,0.3,1.3,0.4,2c0.1,1.3,2.6,3.1,2.6,3.1s4.7,0.8,8.5,1.9
						c2.8,0.7,3.1-0.7,2.8-1.3l0.8,0.3c0.2,7.7,0.4,13.3,0.4,13.3s1.2,0,3.1,0.1c0,0.2,0.1,0.5,0.1,0.7c0.7,7.6,2.1,20.1,3.1,21.2
						c1.5,1.5,0.8,12.3,0.2,14.2s0,15.7,0,15.7s2.3,8.4,2.2,17.6c-0.2,9.2,2.6,14,2.6,14l1,0.1c0,0.2,0,0.5-0.1,0.7
						c-0.1,0.8-0.1,1.7-0.1,2.4c-0.1,1.2-0.5,2.2-1.2,3.2c-1.6,2.2-2.6,4.8-3.2,7.5c-0.1,0.6-0.2,1.2-0.2,1.8c0,0.2,0,0.2,0,0.2
						s0.9,2.6,9.5,3.6c8.6,0.9,7.4-5.3,7.4-5.3s0.1-0.2,0.1-0.5c0.4-2.1,0.4-4.2,0-6.4c-0.3-1.7-0.1-4.5,0.3-7
						c0-0.2,0.1-0.5,0.1-0.8c0.7-0.2,1.4-0.5,2-0.9c2.6-2.5,0-21.8,0-21.8s-4.8-15.9-3.6-18.2c1.2-2.3,2.6-7.9,2.6-7.9v-19.4
						c1.9-3.1,2.7-7.3,3.1-11.1c0-0.2,0.1-0.5,0.1-0.7c1.6,0,3.1,0,4.5-0.1l0.4,0.7c2.2,4.3,4.6,8.6,5,9.3c1.2,1.3,0.2,7.4,0,10.5
						s2.2,9.2,2.2,9.2c-2.9,1.7-3.6,22-3.6,22s2.2,5-2.3,10.5c-4.5,5.5-2.7,16.1-2.2,15.7c0.2-0.1,1.1,0.1,2.5,0.2
						c-0.2,0.9-0.7,1.7-1.3,2.5c-1.5,1.8-2,4.6-2.1,6.9c-0.1,1.2-0.1,2.4,0,3.6l3.2,2.3c0,0,2,0,2,1.8c0,1.8,5,3.6,5,3.6
						s7.5,2.1,13.2,0c1.8-0.7,2.4-1.8,2.2-3.1c-0.4-2.9-4.3-6.9-7.2-9.7c-1.9-2-2.7-4.6-3.1-6.8c-0.1-0.2-0.1-0.5-0.1-0.7
						c0.2-0.2,0.4-0.3,0.6-0.5c2.3-2.9,4.9-10.8,4.9-10.8s-1.2-8,1.4-15.3c1.9-5.4,4.2-18,5.3-24.2c0.4-2.2,0.5-4.6,0.2-6.8
						c-0.5-4.6-1.2-12.9-1-19.5c0.1-2.2,0-5.6-0.1-9.6v-0.1c1.4-2.6,4.4-6.9,9.5-7.3c7.4-0.5,3.6-4.6,3.6-4.6s-4.3-30.1-7.2-35.5
						c-0.1-0.1-0.1-0.2-0.2-0.2c-0.4-0.7-0.9-2-1.3-3.8c-2.8-10.3-6.5-35.6-6.5-35.6l-0.4-6.1c4.4,2.2,12.6,6,15.8,7.2
						c4.6,1.6,11,0.6,12.6-4.6s-5-15.8-5-15.8c-1-3.7-7.7-11.6-11.2-15.5c-0.3-0.5-0.7-1-1-1.5c-0.9-1.3-1.7-2.5-2.2-3.1l-0.1,0.1
						c-0.2-0.2-0.2-0.3-0.3-0.5l-0.1,0.2c-1.2-2.3-2.6-4.6-3.7-5.9c-2.5-2.9-13.5-6-14.6-5.2c-0.8,0.7,2.5,3.4,4.8,5l-2.2-1.5
						l-4.9-4.2l-2.2-1.5c-0.1-0.1-0.2-0.1-0.2-0.2c1.2-4.5,0.2-9.2-2.5-12.8c-0.2-0.2-0.3-0.4-0.5-0.6c2.2-1.9,3-5,3-7.7v-0.1
						c-0.2-1-0.6-2-1.3-2.7c0,0.1,0.1,0.2,0.1,0.2c-0.8-1-2-1.7-3.3-1.7c-1.9,0-3.5,1.2-5.1,2.1c-3.5,1.7-7.6,1.9-11.2,0.4
						c-1-0.4-2.1-1-3.1-0.9c-1.2,0.1-2,0.8-2.7,1.6c-1.8,1.7-3.2,3.9-4.2,6.2c-0.2,0.7-0.5,1.4-1.1,1.9c-0.4,0.3-0.8,0.7-1.3,0.9
						c-1.7,1.1-2.8,2.7-3.2,4.6c-0.3,1.9-0.2,3.9,0.6,5.6c0.4,1.2,1.2,2.3,2.1,3.2c0.7,0.7,1.6,1.2,2.3,1.7c0.3,0.2,0.7,0.6,1,0.9
						c-3.4,0.7-6.6,2.5-9.1,5c-1.8,1.8-3.4,3.9-4.6,6.1c-3.1,6-5.1,9.7-6.4,12.1c-0.6,0.2-0.9,0.2-0.9,0.2s-4.3,3.8-4.2,14.8l0,0
						l-3.3,21.9v11.3c0,0-4.3,12.2-3.6,22.3c0,0.2,0,0.2,0,0.4l-0.3,1.7c-0.6,0.7-0.8,1.7-0.7,2.6c0,0.3,0,0.7,0.1,0.9l-1.7,8.6
						l0.3,0.3l-0.9,2.6C859.2,548.6,861,551.6,861,551.6z M886.4,490.1c0.2,0.2,0.3,0.2,0.3,0.2s1.9,17,0.7,27.1l-4-0.2l-1.9-0.6
						l0.7-5.4C882.3,511.2,884.7,496.9,886.4,490.1L886.4,490.1z M902.2,440.7l0.4-0.6c-0.1,0.2-0.2,0.4-0.2,0.6H902.2z
						 M884.1,517.4l2.1,0.2l1.3,0.2c0,0.2-0.1,0.3-0.1,0.5L884.1,517.4z M928.9,443.8c0-0.2,0-0.4,0-0.6l1.7,1l0.1,0.1
						C930,444.1,929.5,444,928.9,443.8L928.9,443.8z M941.6,451.3c-0.2-0.3-0.5-0.7-0.7-1c1.2,0.2,1.8,0.4,1.8,0.4
						c0.9-0.2,1.8-0.1,2.7,0.2c0.2,0.6,0.6,1.1,0.9,1.7l3,5.8c0,0-0.7,0.1-2-0.6C946.1,457.2,941.6,451.3,941.6,451.3z M884.1,560.7
						l0.9,0.4l0,0C884.9,561.2,884.6,561,884.1,560.7z"/>
				</defs>
				<clipPath id="SVGID_2_">
					<use xlink:href="#SVGID_1_"  style="overflow:visible;"/>
				</clipPath>
				<rect x="884.1" y="560.7" class="st24" width="0.9" height="0.5"/>
			</g>
			<g>
				<defs>
					<path id="SVGID_3_" d="M861,551.6c0,0,4.6,1.8,10.3,4.1c0.2,0.7,0.3,1.3,0.4,2c0.1,1.3,2.6,3.1,2.6,3.1s4.7,0.8,8.5,1.9
						c2.8,0.7,3.1-0.7,2.8-1.3l0.8,0.3c0.2,7.7,0.4,13.3,0.4,13.3s1.2,0,3.1,0.1c0,0.2,0.1,0.5,0.1,0.7c0.7,7.6,2.1,20.1,3.1,21.2
						c1.5,1.5,0.8,12.3,0.2,14.2s0,15.7,0,15.7s2.3,8.4,2.2,17.6c-0.2,9.2,2.6,14,2.6,14l1,0.1c0,0.2,0,0.5-0.1,0.7
						c-0.1,0.8-0.1,1.7-0.1,2.4c-0.1,1.2-0.5,2.2-1.2,3.2c-1.6,2.2-2.6,4.8-3.2,7.5c-0.1,0.6-0.2,1.2-0.2,1.8c0,0.2,0,0.2,0,0.2
						s0.9,2.6,9.5,3.6c8.6,0.9,7.4-5.3,7.4-5.3s0.1-0.2,0.1-0.5c0.4-2.1,0.4-4.2,0-6.4c-0.3-1.7-0.1-4.5,0.3-7
						c0-0.2,0.1-0.5,0.1-0.8c0.7-0.2,1.4-0.5,2-0.9c2.6-2.5,0-21.8,0-21.8s-4.8-15.9-3.6-18.2c1.2-2.3,2.6-7.9,2.6-7.9v-19.4
						c1.9-3.1,2.7-7.3,3.1-11.1c0-0.2,0.1-0.5,0.1-0.7c1.6,0,3.1,0,4.5-0.1l0.4,0.7c2.2,4.3,4.6,8.6,5,9.3c1.2,1.3,0.2,7.4,0,10.5
						s2.2,9.2,2.2,9.2c-2.9,1.7-3.6,22-3.6,22s2.2,5-2.3,10.5c-4.5,5.5-2.7,16.1-2.2,15.7c0.2-0.1,1.1,0.1,2.5,0.2
						c-0.2,0.9-0.7,1.7-1.3,2.5c-1.5,1.8-2,4.6-2.1,6.9c-0.1,1.2-0.1,2.4,0,3.6l3.2,2.3c0,0,2,0,2,1.8c0,1.8,5,3.6,5,3.6
						s7.5,2.1,13.2,0c1.8-0.7,2.4-1.8,2.2-3.1c-0.4-2.9-4.3-6.9-7.2-9.7c-1.9-2-2.7-4.6-3.1-6.8c-0.1-0.2-0.1-0.5-0.1-0.7
						c0.2-0.2,0.4-0.3,0.6-0.5c2.3-2.9,4.9-10.8,4.9-10.8s-1.2-8,1.4-15.3c1.9-5.4,4.2-18,5.3-24.2c0.4-2.2,0.5-4.6,0.2-6.8
						c-0.5-4.6-1.2-12.9-1-19.5c0.1-2.2,0-5.6-0.1-9.6v-0.1c1.4-2.6,4.4-6.9,9.5-7.3c7.4-0.5,3.6-4.6,3.6-4.6s-4.3-30.1-7.2-35.5
						c-0.1-0.1-0.1-0.2-0.2-0.2c-0.4-0.7-0.9-2-1.3-3.8c-2.8-10.3-6.5-35.6-6.5-35.6l-0.4-6.1c4.4,2.2,12.6,6,15.8,7.2
						c4.6,1.6,11,0.6,12.6-4.6s-5-15.8-5-15.8c-1-3.7-7.7-11.6-11.2-15.5c-0.3-0.5-0.7-1-1-1.5c-0.9-1.3-1.7-2.5-2.2-3.1l-0.1,0.1
						c-0.2-0.2-0.2-0.3-0.3-0.5l-0.1,0.2c-1.2-2.3-2.6-4.6-3.7-5.9c-2.5-2.9-13.5-6-14.6-5.2c-0.8,0.7,2.5,3.4,4.8,5l-2.2-1.5
						l-4.9-4.2l-2.2-1.5c-0.1-0.1-0.2-0.1-0.2-0.2c1.2-4.5,0.2-9.2-2.5-12.8c-0.2-0.2-0.3-0.4-0.5-0.6c2.2-1.9,3-5,3-7.7v-0.1
						c-0.2-1-0.6-2-1.3-2.7c0,0.1,0.1,0.2,0.1,0.2c-0.8-1-2-1.7-3.3-1.7c-1.9,0-3.5,1.2-5.1,2.1c-3.5,1.7-7.6,1.9-11.2,0.4
						c-1-0.4-2.1-1-3.1-0.9c-1.2,0.1-2,0.8-2.7,1.6c-1.8,1.7-3.2,3.9-4.2,6.2c-0.2,0.7-0.5,1.4-1.1,1.9c-0.4,0.3-0.8,0.7-1.3,0.9
						c-1.7,1.1-2.8,2.7-3.2,4.6c-0.3,1.9-0.2,3.9,0.6,5.6c0.4,1.2,1.2,2.3,2.1,3.2c0.7,0.7,1.6,1.2,2.3,1.7c0.3,0.2,0.7,0.6,1,0.9
						c-3.4,0.7-6.6,2.5-9.1,5c-1.8,1.8-3.4,3.9-4.6,6.1c-3.1,6-5.1,9.7-6.4,12.1c-0.6,0.2-0.9,0.2-0.9,0.2s-4.3,3.8-4.2,14.8l0,0
						l-3.3,21.9v11.3c0,0-4.3,12.2-3.6,22.3c0,0.2,0,0.2,0,0.4l-0.3,1.7c-0.6,0.7-0.8,1.7-0.7,2.6c0,0.3,0,0.7,0.1,0.9l-1.7,8.6
						l0.3,0.3l-0.9,2.6C859.2,548.6,861,551.6,861,551.6z M886.4,490.1c0.2,0.2,0.3,0.2,0.3,0.2s1.9,17,0.7,27.1l-4-0.2l-1.9-0.6
						l0.7-5.4C882.3,511.2,884.7,496.9,886.4,490.1L886.4,490.1z M902.2,440.7l0.4-0.6c-0.1,0.2-0.2,0.4-0.2,0.6H902.2z
						 M884.1,517.4l2.1,0.2l1.3,0.2c0,0.2-0.1,0.3-0.1,0.5L884.1,517.4z M928.9,443.8c0-0.2,0-0.4,0-0.6l1.7,1l0.1,0.1
						C930,444.1,929.5,444,928.9,443.8L928.9,443.8z M941.6,451.3c-0.2-0.3-0.5-0.7-0.7-1c1.2,0.2,1.8,0.4,1.8,0.4
						c0.9-0.2,1.8-0.1,2.7,0.2c0.2,0.6,0.6,1.1,0.9,1.7l3,5.8c0,0-0.7,0.1-2-0.6C946.1,457.2,941.6,451.3,941.6,451.3z M884.1,560.7
						l0.9,0.4l0,0C884.9,561.2,884.6,561,884.1,560.7z"/>
				</defs>
				<clipPath id="SVGID_4_">
					<use xlink:href="#SVGID_3_"  style="overflow:visible;"/>
				</clipPath>
				<rect x="940.9" y="450.3" class="st25" width="8.5" height="8.2"/>
			</g>
			<g>
				<defs>
					<path id="SVGID_5_" d="M861,551.6c0,0,4.6,1.8,10.3,4.1c0.2,0.7,0.3,1.3,0.4,2c0.1,1.3,2.6,3.1,2.6,3.1s4.7,0.8,8.5,1.9
						c2.8,0.7,3.1-0.7,2.8-1.3l0.8,0.3c0.2,7.7,0.4,13.3,0.4,13.3s1.2,0,3.1,0.1c0,0.2,0.1,0.5,0.1,0.7c0.7,7.6,2.1,20.1,3.1,21.2
						c1.5,1.5,0.8,12.3,0.2,14.2s0,15.7,0,15.7s2.3,8.4,2.2,17.6c-0.2,9.2,2.6,14,2.6,14l1,0.1c0,0.2,0,0.5-0.1,0.7
						c-0.1,0.8-0.1,1.7-0.1,2.4c-0.1,1.2-0.5,2.2-1.2,3.2c-1.6,2.2-2.6,4.8-3.2,7.5c-0.1,0.6-0.2,1.2-0.2,1.8c0,0.2,0,0.2,0,0.2
						s0.9,2.6,9.5,3.6c8.6,0.9,7.4-5.3,7.4-5.3s0.1-0.2,0.1-0.5c0.4-2.1,0.4-4.2,0-6.4c-0.3-1.7-0.1-4.5,0.3-7
						c0-0.2,0.1-0.5,0.1-0.8c0.7-0.2,1.4-0.5,2-0.9c2.6-2.5,0-21.8,0-21.8s-4.8-15.9-3.6-18.2c1.2-2.3,2.6-7.9,2.6-7.9v-19.4
						c1.9-3.1,2.7-7.3,3.1-11.1c0-0.2,0.1-0.5,0.1-0.7c1.6,0,3.1,0,4.5-0.1l0.4,0.7c2.2,4.3,4.6,8.6,5,9.3c1.2,1.3,0.2,7.4,0,10.5
						s2.2,9.2,2.2,9.2c-2.9,1.7-3.6,22-3.6,22s2.2,5-2.3,10.5c-4.5,5.5-2.7,16.1-2.2,15.7c0.2-0.1,1.1,0.1,2.5,0.2
						c-0.2,0.9-0.7,1.7-1.3,2.5c-1.5,1.8-2,4.6-2.1,6.9c-0.1,1.2-0.1,2.4,0,3.6l3.2,2.3c0,0,2,0,2,1.8c0,1.8,5,3.6,5,3.6
						s7.5,2.1,13.2,0c1.8-0.7,2.4-1.8,2.2-3.1c-0.4-2.9-4.3-6.9-7.2-9.7c-1.9-2-2.7-4.6-3.1-6.8c-0.1-0.2-0.1-0.5-0.1-0.7
						c0.2-0.2,0.4-0.3,0.6-0.5c2.3-2.9,4.9-10.8,4.9-10.8s-1.2-8,1.4-15.3c1.9-5.4,4.2-18,5.3-24.2c0.4-2.2,0.5-4.6,0.2-6.8
						c-0.5-4.6-1.2-12.9-1-19.5c0.1-2.2,0-5.6-0.1-9.6v-0.1c1.4-2.6,4.4-6.9,9.5-7.3c7.4-0.5,3.6-4.6,3.6-4.6s-4.3-30.1-7.2-35.5
						c-0.1-0.1-0.1-0.2-0.2-0.2c-0.4-0.7-0.9-2-1.3-3.8c-2.8-10.3-6.5-35.6-6.5-35.6l-0.4-6.1c4.4,2.2,12.6,6,15.8,7.2
						c4.6,1.6,11,0.6,12.6-4.6s-5-15.8-5-15.8c-1-3.7-7.7-11.6-11.2-15.5c-0.3-0.5-0.7-1-1-1.5c-0.9-1.3-1.7-2.5-2.2-3.1l-0.1,0.1
						c-0.2-0.2-0.2-0.3-0.3-0.5l-0.1,0.2c-1.2-2.3-2.6-4.6-3.7-5.9c-2.5-2.9-13.5-6-14.6-5.2c-0.8,0.7,2.5,3.4,4.8,5l-2.2-1.5
						l-4.9-4.2l-2.2-1.5c-0.1-0.1-0.2-0.1-0.2-0.2c1.2-4.5,0.2-9.2-2.5-12.8c-0.2-0.2-0.3-0.4-0.5-0.6c2.2-1.9,3-5,3-7.7v-0.1
						c-0.2-1-0.6-2-1.3-2.7c0,0.1,0.1,0.2,0.1,0.2c-0.8-1-2-1.7-3.3-1.7c-1.9,0-3.5,1.2-5.1,2.1c-3.5,1.7-7.6,1.9-11.2,0.4
						c-1-0.4-2.1-1-3.1-0.9c-1.2,0.1-2,0.8-2.7,1.6c-1.8,1.7-3.2,3.9-4.2,6.2c-0.2,0.7-0.5,1.4-1.1,1.9c-0.4,0.3-0.8,0.7-1.3,0.9
						c-1.7,1.1-2.8,2.7-3.2,4.6c-0.3,1.9-0.2,3.9,0.6,5.6c0.4,1.2,1.2,2.3,2.1,3.2c0.7,0.7,1.6,1.2,2.3,1.7c0.3,0.2,0.7,0.6,1,0.9
						c-3.4,0.7-6.6,2.5-9.1,5c-1.8,1.8-3.4,3.9-4.6,6.1c-3.1,6-5.1,9.7-6.4,12.1c-0.6,0.2-0.9,0.2-0.9,0.2s-4.3,3.8-4.2,14.8l0,0
						l-3.3,21.9v11.3c0,0-4.3,12.2-3.6,22.3c0,0.2,0,0.2,0,0.4l-0.3,1.7c-0.6,0.7-0.8,1.7-0.7,2.6c0,0.3,0,0.7,0.1,0.9l-1.7,8.6
						l0.3,0.3l-0.9,2.6C859.2,548.6,861,551.6,861,551.6z M886.4,490.1c0.2,0.2,0.3,0.2,0.3,0.2s1.9,17,0.7,27.1l-4-0.2l-1.9-0.6
						l0.7-5.4C882.3,511.2,884.7,496.9,886.4,490.1L886.4,490.1z M902.2,440.7l0.4-0.6c-0.1,0.2-0.2,0.4-0.2,0.6H902.2z
						 M884.1,517.4l2.1,0.2l1.3,0.2c0,0.2-0.1,0.3-0.1,0.5L884.1,517.4z M928.9,443.8c0-0.2,0-0.4,0-0.6l1.7,1l0.1,0.1
						C930,444.1,929.5,444,928.9,443.8L928.9,443.8z M941.6,451.3c-0.2-0.3-0.5-0.7-0.7-1c1.2,0.2,1.8,0.4,1.8,0.4
						c0.9-0.2,1.8-0.1,2.7,0.2c0.2,0.6,0.6,1.1,0.9,1.7l3,5.8c0,0-0.7,0.1-2-0.6C946.1,457.2,941.6,451.3,941.6,451.3z M884.1,560.7
						l0.9,0.4l0,0C884.9,561.2,884.6,561,884.1,560.7z"/>
				</defs>
				<clipPath id="SVGID_6_">
					<use xlink:href="#SVGID_5_"  style="overflow:visible;"/>
				</clipPath>
				<rect x="928.9" y="443.2" class="st26" width="1.7" height="1.1"/>
			</g>
			<g>
				<defs>
					<path id="SVGID_7_" d="M861,551.6c0,0,4.6,1.8,10.3,4.1c0.2,0.7,0.3,1.3,0.4,2c0.1,1.3,2.6,3.1,2.6,3.1s4.7,0.8,8.5,1.9
						c2.8,0.7,3.1-0.7,2.8-1.3l0.8,0.3c0.2,7.7,0.4,13.3,0.4,13.3s1.2,0,3.1,0.1c0,0.2,0.1,0.5,0.1,0.7c0.7,7.6,2.1,20.1,3.1,21.2
						c1.5,1.5,0.8,12.3,0.2,14.2s0,15.7,0,15.7s2.3,8.4,2.2,17.6c-0.2,9.2,2.6,14,2.6,14l1,0.1c0,0.2,0,0.5-0.1,0.7
						c-0.1,0.8-0.1,1.7-0.1,2.4c-0.1,1.2-0.5,2.2-1.2,3.2c-1.6,2.2-2.6,4.8-3.2,7.5c-0.1,0.6-0.2,1.2-0.2,1.8c0,0.2,0,0.2,0,0.2
						s0.9,2.6,9.5,3.6c8.6,0.9,7.4-5.3,7.4-5.3s0.1-0.2,0.1-0.5c0.4-2.1,0.4-4.2,0-6.4c-0.3-1.7-0.1-4.5,0.3-7
						c0-0.2,0.1-0.5,0.1-0.8c0.7-0.2,1.4-0.5,2-0.9c2.6-2.5,0-21.8,0-21.8s-4.8-15.9-3.6-18.2c1.2-2.3,2.6-7.9,2.6-7.9v-19.4
						c1.9-3.1,2.7-7.3,3.1-11.1c0-0.2,0.1-0.5,0.1-0.7c1.6,0,3.1,0,4.5-0.1l0.4,0.7c2.2,4.3,4.6,8.6,5,9.3c1.2,1.3,0.2,7.4,0,10.5
						s2.2,9.2,2.2,9.2c-2.9,1.7-3.6,22-3.6,22s2.2,5-2.3,10.5c-4.5,5.5-2.7,16.1-2.2,15.7c0.2-0.1,1.1,0.1,2.5,0.2
						c-0.2,0.9-0.7,1.7-1.3,2.5c-1.5,1.8-2,4.6-2.1,6.9c-0.1,1.2-0.1,2.4,0,3.6l3.2,2.3c0,0,2,0,2,1.8c0,1.8,5,3.6,5,3.6
						s7.5,2.1,13.2,0c1.8-0.7,2.4-1.8,2.2-3.1c-0.4-2.9-4.3-6.9-7.2-9.7c-1.9-2-2.7-4.6-3.1-6.8c-0.1-0.2-0.1-0.5-0.1-0.7
						c0.2-0.2,0.4-0.3,0.6-0.5c2.3-2.9,4.9-10.8,4.9-10.8s-1.2-8,1.4-15.3c1.9-5.4,4.2-18,5.3-24.2c0.4-2.2,0.5-4.6,0.2-6.8
						c-0.5-4.6-1.2-12.9-1-19.5c0.1-2.2,0-5.6-0.1-9.6v-0.1c1.4-2.6,4.4-6.9,9.5-7.3c7.4-0.5,3.6-4.6,3.6-4.6s-4.3-30.1-7.2-35.5
						c-0.1-0.1-0.1-0.2-0.2-0.2c-0.4-0.7-0.9-2-1.3-3.8c-2.8-10.3-6.5-35.6-6.5-35.6l-0.4-6.1c4.4,2.2,12.6,6,15.8,7.2
						c4.6,1.6,11,0.6,12.6-4.6s-5-15.8-5-15.8c-1-3.7-7.7-11.6-11.2-15.5c-0.3-0.5-0.7-1-1-1.5c-0.9-1.3-1.7-2.5-2.2-3.1l-0.1,0.1
						c-0.2-0.2-0.2-0.3-0.3-0.5l-0.1,0.2c-1.2-2.3-2.6-4.6-3.7-5.9c-2.5-2.9-13.5-6-14.6-5.2c-0.8,0.7,2.5,3.4,4.8,5l-2.2-1.5
						l-4.9-4.2l-2.2-1.5c-0.1-0.1-0.2-0.1-0.2-0.2c1.2-4.5,0.2-9.2-2.5-12.8c-0.2-0.2-0.3-0.4-0.5-0.6c2.2-1.9,3-5,3-7.7v-0.1
						c-0.2-1-0.6-2-1.3-2.7c0,0.1,0.1,0.2,0.1,0.2c-0.8-1-2-1.7-3.3-1.7c-1.9,0-3.5,1.2-5.1,2.1c-3.5,1.7-7.6,1.9-11.2,0.4
						c-1-0.4-2.1-1-3.1-0.9c-1.2,0.1-2,0.8-2.7,1.6c-1.8,1.7-3.2,3.9-4.2,6.2c-0.2,0.7-0.5,1.4-1.1,1.9c-0.4,0.3-0.8,0.7-1.3,0.9
						c-1.7,1.1-2.8,2.7-3.2,4.6c-0.3,1.9-0.2,3.9,0.6,5.6c0.4,1.2,1.2,2.3,2.1,3.2c0.7,0.7,1.6,1.2,2.3,1.7c0.3,0.2,0.7,0.6,1,0.9
						c-3.4,0.7-6.6,2.5-9.1,5c-1.8,1.8-3.4,3.9-4.6,6.1c-3.1,6-5.1,9.7-6.4,12.1c-0.6,0.2-0.9,0.2-0.9,0.2s-4.3,3.8-4.2,14.8l0,0
						l-3.3,21.9v11.3c0,0-4.3,12.2-3.6,22.3c0,0.2,0,0.2,0,0.4l-0.3,1.7c-0.6,0.7-0.8,1.7-0.7,2.6c0,0.3,0,0.7,0.1,0.9l-1.7,8.6
						l0.3,0.3l-0.9,2.6C859.2,548.6,861,551.6,861,551.6z M886.4,490.1c0.2,0.2,0.3,0.2,0.3,0.2s1.9,17,0.7,27.1l-4-0.2l-1.9-0.6
						l0.7-5.4C882.3,511.2,884.7,496.9,886.4,490.1L886.4,490.1z M902.2,440.7l0.4-0.6c-0.1,0.2-0.2,0.4-0.2,0.6H902.2z
						 M884.1,517.4l2.1,0.2l1.3,0.2c0,0.2-0.1,0.3-0.1,0.5L884.1,517.4z M928.9,443.8c0-0.2,0-0.4,0-0.6l1.7,1l0.1,0.1
						C930,444.1,929.5,444,928.9,443.8L928.9,443.8z M941.6,451.3c-0.2-0.3-0.5-0.7-0.7-1c1.2,0.2,1.8,0.4,1.8,0.4
						c0.9-0.2,1.8-0.1,2.7,0.2c0.2,0.6,0.6,1.1,0.9,1.7l3,5.8c0,0-0.7,0.1-2-0.6C946.1,457.2,941.6,451.3,941.6,451.3z M884.1,560.7
						l0.9,0.4l0,0C884.9,561.2,884.6,561,884.1,560.7z"/>
				</defs>
				<clipPath id="SVGID_8_">
					<use xlink:href="#SVGID_7_"  style="overflow:visible;"/>
				</clipPath>
				<rect x="884.1" y="517.4" class="st27" width="3.4" height="1"/>
			</g>
			<g>
				<defs>
					<path id="SVGID_9_" d="M861,551.6c0,0,4.6,1.8,10.3,4.1c0.2,0.7,0.3,1.3,0.4,2c0.1,1.3,2.6,3.1,2.6,3.1s4.7,0.8,8.5,1.9
						c2.8,0.7,3.1-0.7,2.8-1.3l0.8,0.3c0.2,7.7,0.4,13.3,0.4,13.3s1.2,0,3.1,0.1c0,0.2,0.1,0.5,0.1,0.7c0.7,7.6,2.1,20.1,3.1,21.2
						c1.5,1.5,0.8,12.3,0.2,14.2s0,15.7,0,15.7s2.3,8.4,2.2,17.6c-0.2,9.2,2.6,14,2.6,14l1,0.1c0,0.2,0,0.5-0.1,0.7
						c-0.1,0.8-0.1,1.7-0.1,2.4c-0.1,1.2-0.5,2.2-1.2,3.2c-1.6,2.2-2.6,4.8-3.2,7.5c-0.1,0.6-0.2,1.2-0.2,1.8c0,0.2,0,0.2,0,0.2
						s0.9,2.6,9.5,3.6c8.6,0.9,7.4-5.3,7.4-5.3s0.1-0.2,0.1-0.5c0.4-2.1,0.4-4.2,0-6.4c-0.3-1.7-0.1-4.5,0.3-7
						c0-0.2,0.1-0.5,0.1-0.8c0.7-0.2,1.4-0.5,2-0.9c2.6-2.5,0-21.8,0-21.8s-4.8-15.9-3.6-18.2c1.2-2.3,2.6-7.9,2.6-7.9v-19.4
						c1.9-3.1,2.7-7.3,3.1-11.1c0-0.2,0.1-0.5,0.1-0.7c1.6,0,3.1,0,4.5-0.1l0.4,0.7c2.2,4.3,4.6,8.6,5,9.3c1.2,1.3,0.2,7.4,0,10.5
						s2.2,9.2,2.2,9.2c-2.9,1.7-3.6,22-3.6,22s2.2,5-2.3,10.5c-4.5,5.5-2.7,16.1-2.2,15.7c0.2-0.1,1.1,0.1,2.5,0.2
						c-0.2,0.9-0.7,1.7-1.3,2.5c-1.5,1.8-2,4.6-2.1,6.9c-0.1,1.2-0.1,2.4,0,3.6l3.2,2.3c0,0,2,0,2,1.8c0,1.8,5,3.6,5,3.6
						s7.5,2.1,13.2,0c1.8-0.7,2.4-1.8,2.2-3.1c-0.4-2.9-4.3-6.9-7.2-9.7c-1.9-2-2.7-4.6-3.1-6.8c-0.1-0.2-0.1-0.5-0.1-0.7
						c0.2-0.2,0.4-0.3,0.6-0.5c2.3-2.9,4.9-10.8,4.9-10.8s-1.2-8,1.4-15.3c1.9-5.4,4.2-18,5.3-24.2c0.4-2.2,0.5-4.6,0.2-6.8
						c-0.5-4.6-1.2-12.9-1-19.5c0.1-2.2,0-5.6-0.1-9.6v-0.1c1.4-2.6,4.4-6.9,9.5-7.3c7.4-0.5,3.6-4.6,3.6-4.6s-4.3-30.1-7.2-35.5
						c-0.1-0.1-0.1-0.2-0.2-0.2c-0.4-0.7-0.9-2-1.3-3.8c-2.8-10.3-6.5-35.6-6.5-35.6l-0.4-6.1c4.4,2.2,12.6,6,15.8,7.2
						c4.6,1.6,11,0.6,12.6-4.6s-5-15.8-5-15.8c-1-3.7-7.7-11.6-11.2-15.5c-0.3-0.5-0.7-1-1-1.5c-0.9-1.3-1.7-2.5-2.2-3.1l-0.1,0.1
						c-0.2-0.2-0.2-0.3-0.3-0.5l-0.1,0.2c-1.2-2.3-2.6-4.6-3.7-5.9c-2.5-2.9-13.5-6-14.6-5.2c-0.8,0.7,2.5,3.4,4.8,5l-2.2-1.5
						l-4.9-4.2l-2.2-1.5c-0.1-0.1-0.2-0.1-0.2-0.2c1.2-4.5,0.2-9.2-2.5-12.8c-0.2-0.2-0.3-0.4-0.5-0.6c2.2-1.9,3-5,3-7.7v-0.1
						c-0.2-1-0.6-2-1.3-2.7c0,0.1,0.1,0.2,0.1,0.2c-0.8-1-2-1.7-3.3-1.7c-1.9,0-3.5,1.2-5.1,2.1c-3.5,1.7-7.6,1.9-11.2,0.4
						c-1-0.4-2.1-1-3.1-0.9c-1.2,0.1-2,0.8-2.7,1.6c-1.8,1.7-3.2,3.9-4.2,6.2c-0.2,0.7-0.5,1.4-1.1,1.9c-0.4,0.3-0.8,0.7-1.3,0.9
						c-1.7,1.1-2.8,2.7-3.2,4.6c-0.3,1.9-0.2,3.9,0.6,5.6c0.4,1.2,1.2,2.3,2.1,3.2c0.7,0.7,1.6,1.2,2.3,1.7c0.3,0.2,0.7,0.6,1,0.9
						c-3.4,0.7-6.6,2.5-9.1,5c-1.8,1.8-3.4,3.9-4.6,6.1c-3.1,6-5.1,9.7-6.4,12.1c-0.6,0.2-0.9,0.2-0.9,0.2s-4.3,3.8-4.2,14.8l0,0
						l-3.3,21.9v11.3c0,0-4.3,12.2-3.6,22.3c0,0.2,0,0.2,0,0.4l-0.3,1.7c-0.6,0.7-0.8,1.7-0.7,2.6c0,0.3,0,0.7,0.1,0.9l-1.7,8.6
						l0.3,0.3l-0.9,2.6C859.2,548.6,861,551.6,861,551.6z M886.4,490.1c0.2,0.2,0.3,0.2,0.3,0.2s1.9,17,0.7,27.1l-4-0.2l-1.9-0.6
						l0.7-5.4C882.3,511.2,884.7,496.9,886.4,490.1L886.4,490.1z M902.2,440.7l0.4-0.6c-0.1,0.2-0.2,0.4-0.2,0.6H902.2z
						 M884.1,517.4l2.1,0.2l1.3,0.2c0,0.2-0.1,0.3-0.1,0.5L884.1,517.4z M928.9,443.8c0-0.2,0-0.4,0-0.6l1.7,1l0.1,0.1
						C930,444.1,929.5,444,928.9,443.8L928.9,443.8z M941.6,451.3c-0.2-0.3-0.5-0.7-0.7-1c1.2,0.2,1.8,0.4,1.8,0.4
						c0.9-0.2,1.8-0.1,2.7,0.2c0.2,0.6,0.6,1.1,0.9,1.7l3,5.8c0,0-0.7,0.1-2-0.6C946.1,457.2,941.6,451.3,941.6,451.3z M884.1,560.7
						l0.9,0.4l0,0C884.9,561.2,884.6,561,884.1,560.7z"/>
				</defs>
				<clipPath id="SVGID_10_">
					<use xlink:href="#SVGID_9_"  style="overflow:visible;"/>
				</clipPath>
				<rect x="902.2" y="440.1" class="st28" width="0.4" height="0.6"/>
			</g>
			<g>
				<defs>
					<path id="SVGID_11_" d="M861,551.6c0,0,4.6,1.8,10.3,4.1c0.2,0.7,0.3,1.3,0.4,2c0.1,1.3,2.6,3.1,2.6,3.1s4.7,0.8,8.5,1.9
						c2.8,0.7,3.1-0.7,2.8-1.3l0.8,0.3c0.2,7.7,0.4,13.3,0.4,13.3s1.2,0,3.1,0.1c0,0.2,0.1,0.5,0.1,0.7c0.7,7.6,2.1,20.1,3.1,21.2
						c1.5,1.5,0.8,12.3,0.2,14.2s0,15.7,0,15.7s2.3,8.4,2.2,17.6c-0.2,9.2,2.6,14,2.6,14l1,0.1c0,0.2,0,0.5-0.1,0.7
						c-0.1,0.8-0.1,1.7-0.1,2.4c-0.1,1.2-0.5,2.2-1.2,3.2c-1.6,2.2-2.6,4.8-3.2,7.5c-0.1,0.6-0.2,1.2-0.2,1.8c0,0.2,0,0.2,0,0.2
						s0.9,2.6,9.5,3.6c8.6,0.9,7.4-5.3,7.4-5.3s0.1-0.2,0.1-0.5c0.4-2.1,0.4-4.2,0-6.4c-0.3-1.7-0.1-4.5,0.3-7
						c0-0.2,0.1-0.5,0.1-0.8c0.7-0.2,1.4-0.5,2-0.9c2.6-2.5,0-21.8,0-21.8s-4.8-15.9-3.6-18.2c1.2-2.3,2.6-7.9,2.6-7.9v-19.4
						c1.9-3.1,2.7-7.3,3.1-11.1c0-0.2,0.1-0.5,0.1-0.7c1.6,0,3.1,0,4.5-0.1l0.4,0.7c2.2,4.3,4.6,8.6,5,9.3c1.2,1.3,0.2,7.4,0,10.5
						s2.2,9.2,2.2,9.2c-2.9,1.7-3.6,22-3.6,22s2.2,5-2.3,10.5c-4.5,5.5-2.7,16.1-2.2,15.7c0.2-0.1,1.1,0.1,2.5,0.2
						c-0.2,0.9-0.7,1.7-1.3,2.5c-1.5,1.8-2,4.6-2.1,6.9c-0.1,1.2-0.1,2.4,0,3.6l3.2,2.3c0,0,2,0,2,1.8c0,1.8,5,3.6,5,3.6
						s7.5,2.1,13.2,0c1.8-0.7,2.4-1.8,2.2-3.1c-0.4-2.9-4.3-6.9-7.2-9.7c-1.9-2-2.7-4.6-3.1-6.8c-0.1-0.2-0.1-0.5-0.1-0.7
						c0.2-0.2,0.4-0.3,0.6-0.5c2.3-2.9,4.9-10.8,4.9-10.8s-1.2-8,1.4-15.3c1.9-5.4,4.2-18,5.3-24.2c0.4-2.2,0.5-4.6,0.2-6.8
						c-0.5-4.6-1.2-12.9-1-19.5c0.1-2.2,0-5.6-0.1-9.6v-0.1c1.4-2.6,4.4-6.9,9.5-7.3c7.4-0.5,3.6-4.6,3.6-4.6s-4.3-30.1-7.2-35.5
						c-0.1-0.1-0.1-0.2-0.2-0.2c-0.4-0.7-0.9-2-1.3-3.8c-2.8-10.3-6.5-35.6-6.5-35.6l-0.4-6.1c4.4,2.2,12.6,6,15.8,7.2
						c4.6,1.6,11,0.6,12.6-4.6s-5-15.8-5-15.8c-1-3.7-7.7-11.6-11.2-15.5c-0.3-0.5-0.7-1-1-1.5c-0.9-1.3-1.7-2.5-2.2-3.1l-0.1,0.1
						c-0.2-0.2-0.2-0.3-0.3-0.5l-0.1,0.2c-1.2-2.3-2.6-4.6-3.7-5.9c-2.5-2.9-13.5-6-14.6-5.2c-0.8,0.7,2.5,3.4,4.8,5l-2.2-1.5
						l-4.9-4.2l-2.2-1.5c-0.1-0.1-0.2-0.1-0.2-0.2c1.2-4.5,0.2-9.2-2.5-12.8c-0.2-0.2-0.3-0.4-0.5-0.6c2.2-1.9,3-5,3-7.7v-0.1
						c-0.2-1-0.6-2-1.3-2.7c0,0.1,0.1,0.2,0.1,0.2c-0.8-1-2-1.7-3.3-1.7c-1.9,0-3.5,1.2-5.1,2.1c-3.5,1.7-7.6,1.9-11.2,0.4
						c-1-0.4-2.1-1-3.1-0.9c-1.2,0.1-2,0.8-2.7,1.6c-1.8,1.7-3.2,3.9-4.2,6.2c-0.2,0.7-0.5,1.4-1.1,1.9c-0.4,0.3-0.8,0.7-1.3,0.9
						c-1.7,1.1-2.8,2.7-3.2,4.6c-0.3,1.9-0.2,3.9,0.6,5.6c0.4,1.2,1.2,2.3,2.1,3.2c0.7,0.7,1.6,1.2,2.3,1.7c0.3,0.2,0.7,0.6,1,0.9
						c-3.4,0.7-6.6,2.5-9.1,5c-1.8,1.8-3.4,3.9-4.6,6.1c-3.1,6-5.1,9.7-6.4,12.1c-0.6,0.2-0.9,0.2-0.9,0.2s-4.3,3.8-4.2,14.8l0,0
						l-3.3,21.9v11.3c0,0-4.3,12.2-3.6,22.3c0,0.2,0,0.2,0,0.4l-0.3,1.7c-0.6,0.7-0.8,1.7-0.7,2.6c0,0.3,0,0.7,0.1,0.9l-1.7,8.6
						l0.3,0.3l-0.9,2.6C859.2,548.6,861,551.6,861,551.6z M886.4,490.1c0.2,0.2,0.3,0.2,0.3,0.2s1.9,17,0.7,27.1l-4-0.2l-1.9-0.6
						l0.7-5.4C882.3,511.2,884.7,496.9,886.4,490.1L886.4,490.1z M902.2,440.7l0.4-0.6c-0.1,0.2-0.2,0.4-0.2,0.6H902.2z
						 M884.1,517.4l2.1,0.2l1.3,0.2c0,0.2-0.1,0.3-0.1,0.5L884.1,517.4z M928.9,443.8c0-0.2,0-0.4,0-0.6l1.7,1l0.1,0.1
						C930,444.1,929.5,444,928.9,443.8L928.9,443.8z M941.6,451.3c-0.2-0.3-0.5-0.7-0.7-1c1.2,0.2,1.8,0.4,1.8,0.4
						c0.9-0.2,1.8-0.1,2.7,0.2c0.2,0.6,0.6,1.1,0.9,1.7l3,5.8c0,0-0.7,0.1-2-0.6C946.1,457.2,941.6,451.3,941.6,451.3z M884.1,560.7
						l0.9,0.4l0,0C884.9,561.2,884.6,561,884.1,560.7z"/>
				</defs>
				<clipPath id="SVGID_12_">
					<use xlink:href="#SVGID_11_"  style="overflow:visible;"/>
				</clipPath>
				<rect x="881.6" y="490.1" class="st29" width="7.1" height="27.4"/>
			</g>
			<g>
				<defs>
					<path id="SVGID_13_" d="M861,551.6c0,0,4.6,1.8,10.3,4.1c0.2,0.7,0.3,1.3,0.4,2c0.1,1.3,2.6,3.1,2.6,3.1s4.7,0.8,8.5,1.9
						c2.8,0.7,3.1-0.7,2.8-1.3l0.8,0.3c0.2,7.7,0.4,13.3,0.4,13.3s1.2,0,3.1,0.1c0,0.2,0.1,0.5,0.1,0.7c0.7,7.6,2.1,20.1,3.1,21.2
						c1.5,1.5,0.8,12.3,0.2,14.2s0,15.7,0,15.7s2.3,8.4,2.2,17.6c-0.2,9.2,2.6,14,2.6,14l1,0.1c0,0.2,0,0.5-0.1,0.7
						c-0.1,0.8-0.1,1.7-0.1,2.4c-0.1,1.2-0.5,2.2-1.2,3.2c-1.6,2.2-2.6,4.8-3.2,7.5c-0.1,0.6-0.2,1.2-0.2,1.8c0,0.2,0,0.2,0,0.2
						s0.9,2.6,9.5,3.6c8.6,0.9,7.4-5.3,7.4-5.3s0.1-0.2,0.1-0.5c0.4-2.1,0.4-4.2,0-6.4c-0.3-1.7-0.1-4.5,0.3-7
						c0-0.2,0.1-0.5,0.1-0.8c0.7-0.2,1.4-0.5,2-0.9c2.6-2.5,0-21.8,0-21.8s-4.8-15.9-3.6-18.2c1.2-2.3,2.6-7.9,2.6-7.9v-19.4
						c1.9-3.1,2.7-7.3,3.1-11.1c0-0.2,0.1-0.5,0.1-0.7c1.6,0,3.1,0,4.5-0.1l0.4,0.7c2.2,4.3,4.6,8.6,5,9.3c1.2,1.3,0.2,7.4,0,10.5
						s2.2,9.2,2.2,9.2c-2.9,1.7-3.6,22-3.6,22s2.2,5-2.3,10.5c-4.5,5.5-2.7,16.1-2.2,15.7c0.2-0.1,1.1,0.1,2.5,0.2
						c-0.2,0.9-0.7,1.7-1.3,2.5c-1.5,1.8-2,4.6-2.1,6.9c-0.1,1.2-0.1,2.4,0,3.6l3.2,2.3c0,0,2,0,2,1.8c0,1.8,5,3.6,5,3.6
						s7.5,2.1,13.2,0c1.8-0.7,2.4-1.8,2.2-3.1c-0.4-2.9-4.3-6.9-7.2-9.7c-1.9-2-2.7-4.6-3.1-6.8c-0.1-0.2-0.1-0.5-0.1-0.7
						c0.2-0.2,0.4-0.3,0.6-0.5c2.3-2.9,4.9-10.8,4.9-10.8s-1.2-8,1.4-15.3c1.9-5.4,4.2-18,5.3-24.2c0.4-2.2,0.5-4.6,0.2-6.8
						c-0.5-4.6-1.2-12.9-1-19.5c0.1-2.2,0-5.6-0.1-9.6v-0.1c1.4-2.6,4.4-6.9,9.5-7.3c7.4-0.5,3.6-4.6,3.6-4.6s-4.3-30.1-7.2-35.5
						c-0.1-0.1-0.1-0.2-0.2-0.2c-0.4-0.7-0.9-2-1.3-3.8c-2.8-10.3-6.5-35.6-6.5-35.6l-0.4-6.1c4.4,2.2,12.6,6,15.8,7.2
						c4.6,1.6,11,0.6,12.6-4.6s-5-15.8-5-15.8c-1-3.7-7.7-11.6-11.2-15.5c-0.3-0.5-0.7-1-1-1.5c-0.9-1.3-1.7-2.5-2.2-3.1l-0.1,0.1
						c-0.2-0.2-0.2-0.3-0.3-0.5l-0.1,0.2c-1.2-2.3-2.6-4.6-3.7-5.9c-2.5-2.9-13.5-6-14.6-5.2c-0.8,0.7,2.5,3.4,4.8,5l-2.2-1.5
						l-4.9-4.2l-2.2-1.5c-0.1-0.1-0.2-0.1-0.2-0.2c1.2-4.5,0.2-9.2-2.5-12.8c-0.2-0.2-0.3-0.4-0.5-0.6c2.2-1.9,3-5,3-7.7v-0.1
						c-0.2-1-0.6-2-1.3-2.7c0,0.1,0.1,0.2,0.1,0.2c-0.8-1-2-1.7-3.3-1.7c-1.9,0-3.5,1.2-5.1,2.1c-3.5,1.7-7.6,1.9-11.2,0.4
						c-1-0.4-2.1-1-3.1-0.9c-1.2,0.1-2,0.8-2.7,1.6c-1.8,1.7-3.2,3.9-4.2,6.2c-0.2,0.7-0.5,1.4-1.1,1.9c-0.4,0.3-0.8,0.7-1.3,0.9
						c-1.7,1.1-2.8,2.7-3.2,4.6c-0.3,1.9-0.2,3.9,0.6,5.6c0.4,1.2,1.2,2.3,2.1,3.2c0.7,0.7,1.6,1.2,2.3,1.7c0.3,0.2,0.7,0.6,1,0.9
						c-3.4,0.7-6.6,2.5-9.1,5c-1.8,1.8-3.4,3.9-4.6,6.1c-3.1,6-5.1,9.7-6.4,12.1c-0.6,0.2-0.9,0.2-0.9,0.2s-4.3,3.8-4.2,14.8l0,0
						l-3.3,21.9v11.3c0,0-4.3,12.2-3.6,22.3c0,0.2,0,0.2,0,0.4l-0.3,1.7c-0.6,0.7-0.8,1.7-0.7,2.6c0,0.3,0,0.7,0.1,0.9l-1.7,8.6
						l0.3,0.3l-0.9,2.6C859.2,548.6,861,551.6,861,551.6z M886.4,490.1c0.2,0.2,0.3,0.2,0.3,0.2s1.9,17,0.7,27.1l-4-0.2l-1.9-0.6
						l0.7-5.4C882.3,511.2,884.7,496.9,886.4,490.1L886.4,490.1z M902.2,440.7l0.4-0.6c-0.1,0.2-0.2,0.4-0.2,0.6H902.2z
						 M884.1,517.4l2.1,0.2l1.3,0.2c0,0.2-0.1,0.3-0.1,0.5L884.1,517.4z M928.9,443.8c0-0.2,0-0.4,0-0.6l1.7,1l0.1,0.1
						C930,444.1,929.5,444,928.9,443.8L928.9,443.8z M941.6,451.3c-0.2-0.3-0.5-0.7-0.7-1c1.2,0.2,1.8,0.4,1.8,0.4
						c0.9-0.2,1.8-0.1,2.7,0.2c0.2,0.6,0.6,1.1,0.9,1.7l3,5.8c0,0-0.7,0.1-2-0.6C946.1,457.2,941.6,451.3,941.6,451.3z M884.1,560.7
						l0.9,0.4l0,0C884.9,561.2,884.6,561,884.1,560.7z"/>
				</defs>
				<clipPath id="SVGID_14_">
					<use xlink:href="#SVGID_13_"  style="overflow:visible;"/>
				</clipPath>
				<rect x="859.2" y="678.3" class="st30" width="114.2" height="0.8"/>
			</g>
			<g>
				<defs>
					<path id="SVGID_15_" d="M861,551.6c0,0,4.6,1.8,10.3,4.1c0.2,0.7,0.3,1.3,0.4,2c0.1,1.3,2.6,3.1,2.6,3.1s4.7,0.8,8.5,1.9
						c2.8,0.7,3.1-0.7,2.8-1.3l0.8,0.3c0.2,7.7,0.4,13.3,0.4,13.3s1.2,0,3.1,0.1c0,0.2,0.1,0.5,0.1,0.7c0.7,7.6,2.1,20.1,3.1,21.2
						c1.5,1.5,0.8,12.3,0.2,14.2s0,15.7,0,15.7s2.3,8.4,2.2,17.6c-0.2,9.2,2.6,14,2.6,14l1,0.1c0,0.2,0,0.5-0.1,0.7
						c-0.1,0.8-0.1,1.7-0.1,2.4c-0.1,1.2-0.5,2.2-1.2,3.2c-1.6,2.2-2.6,4.8-3.2,7.5c-0.1,0.6-0.2,1.2-0.2,1.8c0,0.2,0,0.2,0,0.2
						s0.9,2.6,9.5,3.6c8.6,0.9,7.4-5.3,7.4-5.3s0.1-0.2,0.1-0.5c0.4-2.1,0.4-4.2,0-6.4c-0.3-1.7-0.1-4.5,0.3-7
						c0-0.2,0.1-0.5,0.1-0.8c0.7-0.2,1.4-0.5,2-0.9c2.6-2.5,0-21.8,0-21.8s-4.8-15.9-3.6-18.2c1.2-2.3,2.6-7.9,2.6-7.9v-19.4
						c1.9-3.1,2.7-7.3,3.1-11.1c0-0.2,0.1-0.5,0.1-0.7c1.6,0,3.1,0,4.5-0.1l0.4,0.7c2.2,4.3,4.6,8.6,5,9.3c1.2,1.3,0.2,7.4,0,10.5
						s2.2,9.2,2.2,9.2c-2.9,1.7-3.6,22-3.6,22s2.2,5-2.3,10.5c-4.5,5.5-2.7,16.1-2.2,15.7c0.2-0.1,1.1,0.1,2.5,0.2
						c-0.2,0.9-0.7,1.7-1.3,2.5c-1.5,1.8-2,4.6-2.1,6.9c-0.1,1.2-0.1,2.4,0,3.6l3.2,2.3c0,0,2,0,2,1.8c0,1.8,5,3.6,5,3.6
						s7.5,2.1,13.2,0c1.8-0.7,2.4-1.8,2.2-3.1c-0.4-2.9-4.3-6.9-7.2-9.7c-1.9-2-2.7-4.6-3.1-6.8c-0.1-0.2-0.1-0.5-0.1-0.7
						c0.2-0.2,0.4-0.3,0.6-0.5c2.3-2.9,4.9-10.8,4.9-10.8s-1.2-8,1.4-15.3c1.9-5.4,4.2-18,5.3-24.2c0.4-2.2,0.5-4.6,0.2-6.8
						c-0.5-4.6-1.2-12.9-1-19.5c0.1-2.2,0-5.6-0.1-9.6v-0.1c1.4-2.6,4.4-6.9,9.5-7.3c7.4-0.5,3.6-4.6,3.6-4.6s-4.3-30.1-7.2-35.5
						c-0.1-0.1-0.1-0.2-0.2-0.2c-0.4-0.7-0.9-2-1.3-3.8c-2.8-10.3-6.5-35.6-6.5-35.6l-0.4-6.1c4.4,2.2,12.6,6,15.8,7.2
						c4.6,1.6,11,0.6,12.6-4.6s-5-15.8-5-15.8c-1-3.7-7.7-11.6-11.2-15.5c-0.3-0.5-0.7-1-1-1.5c-0.9-1.3-1.7-2.5-2.2-3.1l-0.1,0.1
						c-0.2-0.2-0.2-0.3-0.3-0.5l-0.1,0.2c-1.2-2.3-2.6-4.6-3.7-5.9c-2.5-2.9-13.5-6-14.6-5.2c-0.8,0.7,2.5,3.4,4.8,5l-2.2-1.5
						l-4.9-4.2l-2.2-1.5c-0.1-0.1-0.2-0.1-0.2-0.2c1.2-4.5,0.2-9.2-2.5-12.8c-0.2-0.2-0.3-0.4-0.5-0.6c2.2-1.9,3-5,3-7.7v-0.1
						c-0.2-1-0.6-2-1.3-2.7c0,0.1,0.1,0.2,0.1,0.2c-0.8-1-2-1.7-3.3-1.7c-1.9,0-3.5,1.2-5.1,2.1c-3.5,1.7-7.6,1.9-11.2,0.4
						c-1-0.4-2.1-1-3.1-0.9c-1.2,0.1-2,0.8-2.7,1.6c-1.8,1.7-3.2,3.9-4.2,6.2c-0.2,0.7-0.5,1.4-1.1,1.9c-0.4,0.3-0.8,0.7-1.3,0.9
						c-1.7,1.1-2.8,2.7-3.2,4.6c-0.3,1.9-0.2,3.9,0.6,5.6c0.4,1.2,1.2,2.3,2.1,3.2c0.7,0.7,1.6,1.2,2.3,1.7c0.3,0.2,0.7,0.6,1,0.9
						c-3.4,0.7-6.6,2.5-9.1,5c-1.8,1.8-3.4,3.9-4.6,6.1c-3.1,6-5.1,9.7-6.4,12.1c-0.6,0.2-0.9,0.2-0.9,0.2s-4.3,3.8-4.2,14.8l0,0
						l-3.3,21.9v11.3c0,0-4.3,12.2-3.6,22.3c0,0.2,0,0.2,0,0.4l-0.3,1.7c-0.6,0.7-0.8,1.7-0.7,2.6c0,0.3,0,0.7,0.1,0.9l-1.7,8.6
						l0.3,0.3l-0.9,2.6C859.2,548.6,861,551.6,861,551.6z M886.4,490.1c0.2,0.2,0.3,0.2,0.3,0.2s1.9,17,0.7,27.1l-4-0.2l-1.9-0.6
						l0.7-5.4C882.3,511.2,884.7,496.9,886.4,490.1L886.4,490.1z M902.2,440.7l0.4-0.6c-0.1,0.2-0.2,0.4-0.2,0.6H902.2z
						 M884.1,517.4l2.1,0.2l1.3,0.2c0,0.2-0.1,0.3-0.1,0.5L884.1,517.4z M928.9,443.8c0-0.2,0-0.4,0-0.6l1.7,1l0.1,0.1
						C930,444.1,929.5,444,928.9,443.8L928.9,443.8z M941.6,451.3c-0.2-0.3-0.5-0.7-0.7-1c1.2,0.2,1.8,0.4,1.8,0.4
						c0.9-0.2,1.8-0.1,2.7,0.2c0.2,0.6,0.6,1.1,0.9,1.7l3,5.8c0,0-0.7,0.1-2-0.6C946.1,457.2,941.6,451.3,941.6,451.3z M884.1,560.7
						l0.9,0.4l0,0C884.9,561.2,884.6,561,884.1,560.7z"/>
				</defs>
				<clipPath id="SVGID_16_">
					<use xlink:href="#SVGID_15_"  style="overflow:visible;"/>
				</clipPath>
				<rect x="859.2" y="530.3" class="st31" width="114.2" height="147.9"/>
			</g>
			<g>
				<defs>
					<path id="SVGID_17_" d="M861,551.6c0,0,4.6,1.8,10.3,4.1c0.2,0.7,0.3,1.3,0.4,2c0.1,1.3,2.6,3.1,2.6,3.1s4.7,0.8,8.5,1.9
						c2.8,0.7,3.1-0.7,2.8-1.3l0.8,0.3c0.2,7.7,0.4,13.3,0.4,13.3s1.2,0,3.1,0.1c0,0.2,0.1,0.5,0.1,0.7c0.7,7.6,2.1,20.1,3.1,21.2
						c1.5,1.5,0.8,12.3,0.2,14.2s0,15.7,0,15.7s2.3,8.4,2.2,17.6c-0.2,9.2,2.6,14,2.6,14l1,0.1c0,0.2,0,0.5-0.1,0.7
						c-0.1,0.8-0.1,1.7-0.1,2.4c-0.1,1.2-0.5,2.2-1.2,3.2c-1.6,2.2-2.6,4.8-3.2,7.5c-0.1,0.6-0.2,1.2-0.2,1.8c0,0.2,0,0.2,0,0.2
						s0.9,2.6,9.5,3.6c8.6,0.9,7.4-5.3,7.4-5.3s0.1-0.2,0.1-0.5c0.4-2.1,0.4-4.2,0-6.4c-0.3-1.7-0.1-4.5,0.3-7
						c0-0.2,0.1-0.5,0.1-0.8c0.7-0.2,1.4-0.5,2-0.9c2.6-2.5,0-21.8,0-21.8s-4.8-15.9-3.6-18.2c1.2-2.3,2.6-7.9,2.6-7.9v-19.4
						c1.9-3.1,2.7-7.3,3.1-11.1c0-0.2,0.1-0.5,0.1-0.7c1.6,0,3.1,0,4.5-0.1l0.4,0.7c2.2,4.3,4.6,8.6,5,9.3c1.2,1.3,0.2,7.4,0,10.5
						s2.2,9.2,2.2,9.2c-2.9,1.7-3.6,22-3.6,22s2.2,5-2.3,10.5c-4.5,5.5-2.7,16.1-2.2,15.7c0.2-0.1,1.1,0.1,2.5,0.2
						c-0.2,0.9-0.7,1.7-1.3,2.5c-1.5,1.8-2,4.6-2.1,6.9c-0.1,1.2-0.1,2.4,0,3.6l3.2,2.3c0,0,2,0,2,1.8c0,1.8,5,3.6,5,3.6
						s7.5,2.1,13.2,0c1.8-0.7,2.4-1.8,2.2-3.1c-0.4-2.9-4.3-6.9-7.2-9.7c-1.9-2-2.7-4.6-3.1-6.8c-0.1-0.2-0.1-0.5-0.1-0.7
						c0.2-0.2,0.4-0.3,0.6-0.5c2.3-2.9,4.9-10.8,4.9-10.8s-1.2-8,1.4-15.3c1.9-5.4,4.2-18,5.3-24.2c0.4-2.2,0.5-4.6,0.2-6.8
						c-0.5-4.6-1.2-12.9-1-19.5c0.1-2.2,0-5.6-0.1-9.6v-0.1c1.4-2.6,4.4-6.9,9.5-7.3c7.4-0.5,3.6-4.6,3.6-4.6s-4.3-30.1-7.2-35.5
						c-0.1-0.1-0.1-0.2-0.2-0.2c-0.4-0.7-0.9-2-1.3-3.8c-2.8-10.3-6.5-35.6-6.5-35.6l-0.4-6.1c4.4,2.2,12.6,6,15.8,7.2
						c4.6,1.6,11,0.6,12.6-4.6s-5-15.8-5-15.8c-1-3.7-7.7-11.6-11.2-15.5c-0.3-0.5-0.7-1-1-1.5c-0.9-1.3-1.7-2.5-2.2-3.1l-0.1,0.1
						c-0.2-0.2-0.2-0.3-0.3-0.5l-0.1,0.2c-1.2-2.3-2.6-4.6-3.7-5.9c-2.5-2.9-13.5-6-14.6-5.2c-0.8,0.7,2.5,3.4,4.8,5l-2.2-1.5
						l-4.9-4.2l-2.2-1.5c-0.1-0.1-0.2-0.1-0.2-0.2c1.2-4.5,0.2-9.2-2.5-12.8c-0.2-0.2-0.3-0.4-0.5-0.6c2.2-1.9,3-5,3-7.7v-0.1
						c-0.2-1-0.6-2-1.3-2.7c0,0.1,0.1,0.2,0.1,0.2c-0.8-1-2-1.7-3.3-1.7c-1.9,0-3.5,1.2-5.1,2.1c-3.5,1.7-7.6,1.9-11.2,0.4
						c-1-0.4-2.1-1-3.1-0.9c-1.2,0.1-2,0.8-2.7,1.6c-1.8,1.7-3.2,3.9-4.2,6.2c-0.2,0.7-0.5,1.4-1.1,1.9c-0.4,0.3-0.8,0.7-1.3,0.9
						c-1.7,1.1-2.8,2.7-3.2,4.6c-0.3,1.9-0.2,3.9,0.6,5.6c0.4,1.2,1.2,2.3,2.1,3.2c0.7,0.7,1.6,1.2,2.3,1.7c0.3,0.2,0.7,0.6,1,0.9
						c-3.4,0.7-6.6,2.5-9.1,5c-1.8,1.8-3.4,3.9-4.6,6.1c-3.1,6-5.1,9.7-6.4,12.1c-0.6,0.2-0.9,0.2-0.9,0.2s-4.3,3.8-4.2,14.8l0,0
						l-3.3,21.9v11.3c0,0-4.3,12.2-3.6,22.3c0,0.2,0,0.2,0,0.4l-0.3,1.7c-0.6,0.7-0.8,1.7-0.7,2.6c0,0.3,0,0.7,0.1,0.9l-1.7,8.6
						l0.3,0.3l-0.9,2.6C859.2,548.6,861,551.6,861,551.6z M886.4,490.1c0.2,0.2,0.3,0.2,0.3,0.2s1.9,17,0.7,27.1l-4-0.2l-1.9-0.6
						l0.7-5.4C882.3,511.2,884.7,496.9,886.4,490.1L886.4,490.1z M902.2,440.7l0.4-0.6c-0.1,0.2-0.2,0.4-0.2,0.6H902.2z
						 M884.1,517.4l2.1,0.2l1.3,0.2c0,0.2-0.1,0.3-0.1,0.5L884.1,517.4z M928.9,443.8c0-0.2,0-0.4,0-0.6l1.7,1l0.1,0.1
						C930,444.1,929.5,444,928.9,443.8L928.9,443.8z M941.6,451.3c-0.2-0.3-0.5-0.7-0.7-1c1.2,0.2,1.8,0.4,1.8,0.4
						c0.9-0.2,1.8-0.1,2.7,0.2c0.2,0.6,0.6,1.1,0.9,1.7l3,5.8c0,0-0.7,0.1-2-0.6C946.1,457.2,941.6,451.3,941.6,451.3z M884.1,560.7
						l0.9,0.4l0,0C884.9,561.2,884.6,561,884.1,560.7z"/>
				</defs>
				<clipPath id="SVGID_18_">
					<use xlink:href="#SVGID_17_"  style="overflow:visible;"/>
				</clipPath>
				<rect x="859.2" y="404.3" class="st32" width="114.2" height="126"/>
			</g>
			<g>
				<defs>
					<path id="SVGID_19_" d="M861,551.6c0,0,4.6,1.8,10.3,4.1c0.2,0.7,0.3,1.3,0.4,2c0.1,1.3,2.6,3.1,2.6,3.1s4.7,0.8,8.5,1.9
						c2.8,0.7,3.1-0.7,2.8-1.3l0.8,0.3c0.2,7.7,0.4,13.3,0.4,13.3s1.2,0,3.1,0.1c0,0.2,0.1,0.5,0.1,0.7c0.7,7.6,2.1,20.1,3.1,21.2
						c1.5,1.5,0.8,12.3,0.2,14.2s0,15.7,0,15.7s2.3,8.4,2.2,17.6c-0.2,9.2,2.6,14,2.6,14l1,0.1c0,0.2,0,0.5-0.1,0.7
						c-0.1,0.8-0.1,1.7-0.1,2.4c-0.1,1.2-0.5,2.2-1.2,3.2c-1.6,2.2-2.6,4.8-3.2,7.5c-0.1,0.6-0.2,1.2-0.2,1.8c0,0.2,0,0.2,0,0.2
						s0.9,2.6,9.5,3.6c8.6,0.9,7.4-5.3,7.4-5.3s0.1-0.2,0.1-0.5c0.4-2.1,0.4-4.2,0-6.4c-0.3-1.7-0.1-4.5,0.3-7
						c0-0.2,0.1-0.5,0.1-0.8c0.7-0.2,1.4-0.5,2-0.9c2.6-2.5,0-21.8,0-21.8s-4.8-15.9-3.6-18.2c1.2-2.3,2.6-7.9,2.6-7.9v-19.4
						c1.9-3.1,2.7-7.3,3.1-11.1c0-0.2,0.1-0.5,0.1-0.7c1.6,0,3.1,0,4.5-0.1l0.4,0.7c2.2,4.3,4.6,8.6,5,9.3c1.2,1.3,0.2,7.4,0,10.5
						s2.2,9.2,2.2,9.2c-2.9,1.7-3.6,22-3.6,22s2.2,5-2.3,10.5c-4.5,5.5-2.7,16.1-2.2,15.7c0.2-0.1,1.1,0.1,2.5,0.2
						c-0.2,0.9-0.7,1.7-1.3,2.5c-1.5,1.8-2,4.6-2.1,6.9c-0.1,1.2-0.1,2.4,0,3.6l3.2,2.3c0,0,2,0,2,1.8c0,1.8,5,3.6,5,3.6
						s7.5,2.1,13.2,0c1.8-0.7,2.4-1.8,2.2-3.1c-0.4-2.9-4.3-6.9-7.2-9.7c-1.9-2-2.7-4.6-3.1-6.8c-0.1-0.2-0.1-0.5-0.1-0.7
						c0.2-0.2,0.4-0.3,0.6-0.5c2.3-2.9,4.9-10.8,4.9-10.8s-1.2-8,1.4-15.3c1.9-5.4,4.2-18,5.3-24.2c0.4-2.2,0.5-4.6,0.2-6.8
						c-0.5-4.6-1.2-12.9-1-19.5c0.1-2.2,0-5.6-0.1-9.6v-0.1c1.4-2.6,4.4-6.9,9.5-7.3c7.4-0.5,3.6-4.6,3.6-4.6s-4.3-30.1-7.2-35.5
						c-0.1-0.1-0.1-0.2-0.2-0.2c-0.4-0.7-0.9-2-1.3-3.8c-2.8-10.3-6.5-35.6-6.5-35.6l-0.4-6.1c4.4,2.2,12.6,6,15.8,7.2
						c4.6,1.6,11,0.6,12.6-4.6s-5-15.8-5-15.8c-1-3.7-7.7-11.6-11.2-15.5c-0.3-0.5-0.7-1-1-1.5c-0.9-1.3-1.7-2.5-2.2-3.1l-0.1,0.1
						c-0.2-0.2-0.2-0.3-0.3-0.5l-0.1,0.2c-1.2-2.3-2.6-4.6-3.7-5.9c-2.5-2.9-13.5-6-14.6-5.2c-0.8,0.7,2.5,3.4,4.8,5l-2.2-1.5
						l-4.9-4.2l-2.2-1.5c-0.1-0.1-0.2-0.1-0.2-0.2c1.2-4.5,0.2-9.2-2.5-12.8c-0.2-0.2-0.3-0.4-0.5-0.6c2.2-1.9,3-5,3-7.7v-0.1
						c-0.2-1-0.6-2-1.3-2.7c0,0.1,0.1,0.2,0.1,0.2c-0.8-1-2-1.7-3.3-1.7c-1.9,0-3.5,1.2-5.1,2.1c-3.5,1.7-7.6,1.9-11.2,0.4
						c-1-0.4-2.1-1-3.1-0.9c-1.2,0.1-2,0.8-2.7,1.6c-1.8,1.7-3.2,3.9-4.2,6.2c-0.2,0.7-0.5,1.4-1.1,1.9c-0.4,0.3-0.8,0.7-1.3,0.9
						c-1.7,1.1-2.8,2.7-3.2,4.6c-0.3,1.9-0.2,3.9,0.6,5.6c0.4,1.2,1.2,2.3,2.1,3.2c0.7,0.7,1.6,1.2,2.3,1.7c0.3,0.2,0.7,0.6,1,0.9
						c-3.4,0.7-6.6,2.5-9.1,5c-1.8,1.8-3.4,3.9-4.6,6.1c-3.1,6-5.1,9.7-6.4,12.1c-0.6,0.2-0.9,0.2-0.9,0.2s-4.3,3.8-4.2,14.8l0,0
						l-3.3,21.9v11.3c0,0-4.3,12.2-3.6,22.3c0,0.2,0,0.2,0,0.4l-0.3,1.7c-0.6,0.7-0.8,1.7-0.7,2.6c0,0.3,0,0.7,0.1,0.9l-1.7,8.6
						l0.3,0.3l-0.9,2.6C859.2,548.6,861,551.6,861,551.6z M886.4,490.1c0.2,0.2,0.3,0.2,0.3,0.2s1.9,17,0.7,27.1l-4-0.2l-1.9-0.6
						l0.7-5.4C882.3,511.2,884.7,496.9,886.4,490.1L886.4,490.1z M902.2,440.7l0.4-0.6c-0.1,0.2-0.2,0.4-0.2,0.6H902.2z
						 M884.1,517.4l2.1,0.2l1.3,0.2c0,0.2-0.1,0.3-0.1,0.5L884.1,517.4z M928.9,443.8c0-0.2,0-0.4,0-0.6l1.7,1l0.1,0.1
						C930,444.1,929.5,444,928.9,443.8L928.9,443.8z M941.6,451.3c-0.2-0.3-0.5-0.7-0.7-1c1.2,0.2,1.8,0.4,1.8,0.4
						c0.9-0.2,1.8-0.1,2.7,0.2c0.2,0.6,0.6,1.1,0.9,1.7l3,5.8c0,0-0.7,0.1-2-0.6C946.1,457.2,941.6,451.3,941.6,451.3z M884.1,560.7
						l0.9,0.4l0,0C884.9,561.2,884.6,561,884.1,560.7z"/>
				</defs>
				<clipPath id="SVGID_20_">
					<use xlink:href="#SVGID_19_"  style="overflow:visible;"/>
				</clipPath>
				<path class="st33" d="M973.4,404.3H859.2H973.4z"/>
			</g>
		</g>
	</g>
	<g>
		<path class="st14" d="M916.9,435.9c1.2,0.7,1.2,3.7,1.1,6.2c-0.2,1.8-0.4,3.2-0.4,3.2l8,19.1c0,0,2.9-13.7,3-19.7
			c0-0.5-0.1-1-0.2-1.4C926.9,438.8,919.2,436.4,916.9,435.9z"/>
	</g>
	<g>
		<path class="st14" d="M916.3,435.7c0,0,0.2,0.1,0.6,0.2C916.7,435.7,916.5,435.7,916.3,435.7z"/>
	</g>
	<g>
		<path class="st14" d="M919.1,668.3l3.1,2.3c0,0,2,0,2,1.7c0,1.7,4.8,3.6,4.8,3.6s7.3,2,12.8,0c1.8-0.7,2.3-1.8,2.2-3.1
			c-0.4-2.9-4.2-6.8-7-9.7c-1.8-1.9-2.6-4.5-3-6.7c-0.2-1.6-0.3-3.2-0.2-4.8l-11.7-0.8c0.7,1.7,0.7,3.6,0,5.5
			c-0.2,0.7-0.6,1.2-1,1.7c-1.4,1.8-1.9,4.6-2.1,6.9C919,666,919,667.2,919.1,668.3z"/>
	</g>
	<g>
		<path class="st14" d="M895.2,673.6c0,0,0.9,2.6,9.3,3.6c8.4,0.9,7.2-5.3,7.2-5.3s0.1-0.2,0.1-0.5c0.3-2.1,0.3-4.2,0-6.3
			c-0.2-1.7,0-4.4,0.3-7c0.4-3.1,1-5.8,1-5.8l-12.9,0.9c0,0-0.2,2.6-0.3,5.3c-0.1,0.8-0.1,1.7-0.1,2.4c-0.1,1.2-0.4,2.2-1.1,3.1
			c-1.5,2.2-2.6,4.8-3.1,7.4c-0.1,0.6-0.2,1.2-0.2,1.8C895.2,673.5,895.2,673.6,895.2,673.6z"/>
	</g>
	<g class="st12">
		<path d="M922.2,650.8c0.7,1.7,0.7,3.6,0,5.5c3.3,0.6,9.6,1.7,11.9,0.2c-0.2-1.6-0.3-3.2-0.2-4.8L922.2,650.8z"/>
	</g>
	<g class="st12">
		<path d="M899.6,658.5c2.3,0.2,8.8,0.5,12.3-0.4c0.4-3.1,1-5.8,1-5.8l-12.9,0.9C900,653.3,899.8,655.8,899.6,658.5z"/>
	</g>
	<g>
		<path class="st4" d="M890.3,569.8c0,0,0.2,2.4,0.5,5.7c0.7,7.5,2,20,3.1,21c1.5,1.5,0.8,12.2,0.2,14.1s0,15.6,0,15.6
			c1.4,5.7,2.2,11.6,2.1,17.5c-0.2,9.1,2.5,13.9,2.5,13.9s12.7,1.2,15.2-1.3c2.6-2.4,0-21.7,0-21.7s-4.7-15.7-3.6-18
			c1.1-2.3,2.5-7.8,2.5-7.8v-19.2c1.8-3.1,2.6-7.2,3-11c0.2-3.2,0.3-6.5,0-9.7c0,0,2.4,4.8,4.8,9.6c2.2,4.3,4.4,8.6,5,9.2
			c1.2,1.3,0.2,7.4,0,10.4c-0.2,3.1,2.1,9.1,2.1,9.1c-2.8,1.7-3.4,21.8-3.4,21.8s2.1,5-2.3,10.4c-4.4,5.5-2.6,16-2.1,15.6
			c0.6-0.4,12.3,2.8,14.6,0c2.3-2.8,4.7-10.7,4.7-10.7s-1.2-7.9,1.3-15.2c1.8-5.4,4.1-17.9,5.1-24.1c0.4-2.2,0.4-4.5,0.2-6.8
			c-0.5-4.5-1.2-12.8-1-19.4c0.1-2.2,0-5.5-0.1-9.6c-0.5-13.7-2-34.3-2-34.3l-10.4-6.9l-6.9-4.6l-1.7,0.2l-31.2,4.8l-1.2,15.6
			L890.3,569.8z"/>
	</g>
	<g class="st12">
		<path d="M932.6,528.3l0.6,3c0,0,4.6,21.8,5.5,33.1c0.9,11.2,5,7.9,5,7.9c0.3-0.9,0.7-1.8,1.2-2.7c-0.5-13.7-2-34.3-2-34.3
			L932.6,528.3z"/>
	</g>
	<g>
		<path class="st34" d="M899.7,445.5c0,0,21.5,17,17.5,13.7c-2.2-1.9-0.7-9.8,1.1-16.7c1.5-5.6,3.1-10.5,3.1-10.5
			s-18.6-17.4-17.3-3.1c0.5,5,0.1,8.6-0.7,11.1C902.1,444.4,899.7,445.5,899.7,445.5z"/>
	</g>
	<g class="st12">
		<path d="M901.5,441l13.6,10.5l3.9-4.4c0,0,3.4-1.5,3.6,0.2c0.2,1.7,1.2,11.7-0.7,12.7c-2,1-4.5,1.6-6.8,1.2
			c-2.2-0.3-4.7-2.8-6.5-3.7c-1.7-0.9-7.8-5.9-7.8-5.9l-3.1-4.2L901.5,441z"/>
	</g>
	<g>
		<path class="st35" d="M901.5,441.3l13.6,10.5l3.9-4.4c0,0,3.4-1.5,3.6,0.2c0.2,1.7,1.2,11.7-0.7,12.7c-2,1-4.5,1.6-6.8,1.2
			c-2.2-0.3-4.7-2.8-6.5-3.7s-7.8-5.9-7.8-5.9l-3.1-4.2L901.5,441.3z"/>
	</g>
	<g class="st12">
		<path d="M890.3,569.8c0,0,0.2,2.4,0.5,5.7c4.2,0.2,12.4,0.7,18.1,2.2c2.2,0.6,4.6,0.8,7,0.9c0.2-3.2,0.3-6.5,0-9.7
			c0,0,2.4,4.8,4.8,9.6c2.1-0.2,4.1-0.4,6.1-0.8l-2.6-32.9c0,0,0.1-11.1-0.3-20.8l-31.2,4.8l-1.2,15.3L890.3,569.8z"/>
	</g>
	<g class="st12">
		<path d="M913.8,450.6c0,0-9.3-10.1-11.5-8.4c-2.2,1.6-3.6,5.5-3.6,5.5l7.6,8.2L913.8,450.6z"/>
	</g>
	<g>
		<path class="st35" d="M913.4,450.3c0,0-9.3-10.1-11.5-8.4c-2.2,1.6-3.6,5.5-3.6,5.5l7.6,8.2L913.4,450.3z"/>
	</g>
	<g class="st12">
		<path d="M921.2,456.7l-5.3-6.7c0,0,0.8-6.3,2.8-5.5c2,0.8,2.6,4.1,2.6,4.1L921.2,456.7L921.2,456.7z"/>
	</g>
	<g>
		<path class="st35" d="M921.5,456.3l-5.3-6.7c0,0,0.8-6.3,2.8-5.5s2.5,4.1,2.5,4.1V456.3z"/>
	</g>
	<g class="st12">
		<path d="M897,444.3c0,0,11,11.7,17.6,12.6c0.6,0.1,1.2,0.2,1.7,0.2c1.7,0.3,5.4,0,4.8-9.8l0.8-1.7l5,3.1l1.7,13.9l3.1,35.7
			l4.5,39.8c0,0-13.9-1.3-17.8,2.2c-3.9,3.5-5-19-5-19l-10.7-45.6l-11.4-29.3L897,444.3z"/>
	</g>
	<g class="st12">
		<path d="M891.5,447.9l11.4,29.3l10.7,45.6c0,0,1.1,22.5,5,19c1.2-1.2,3.6-1.7,6.1-2.1c3.1-0.3,6.4-0.4,9.5-0.2
			c1.2,0.1,2.1,0.2,2.1,0.2l-4.5-39.8l-3.1-35.7l-1.7-13.9l-5-3.1l-0.8,1.7c0,0.2,0,0.5,0,0.7c0.3,9-3.2,9.3-4.9,9
			c-0.6-0.1-1.2-0.2-1.7-0.2c-4.6-0.6-11.5-6.6-15.1-10.1c-1.5-1.4-2.4-2.5-2.4-2.5L891.5,447.9z"/>
	</g>
	<g>
		<path class="st13" d="M891.5,446.9l11.4,29.3l10.7,45.6c0,0,1.1,22.5,5,19c1.2-1.2,3.6-1.7,6.1-2.1c3.1-0.3,6.4-0.4,9.5-0.2
			c1.2,0.1,2.1,0.2,2.1,0.2l-4.5-39.8l-3.1-35.7l-1.7-13.9l-5-3.1l-0.8,1.7c0,0.2,0,0.5,0,0.7c0.3,9-3.2,9.3-4.9,9
			c-0.6-0.1-1.2-0.2-1.7-0.2c-4.6-0.6-11.5-6.6-15.1-10.1c-1.5-1.4-2.4-2.5-2.4-2.5L891.5,446.9z"/>
	</g>
	<g class="st12">
		<path d="M921.2,447.8c0,0.2,0,0.5,0,0.7l0.1,0.1c1.3,0.9,3.5,15.8,3.5,15.8l2.8,37.9l5.1,28.3c0,0,0.7,3.2,1.6,7.9
			c1.2,0.1,2.1,0.2,2.1,0.2l-4.5-39.8l-3.1-35.7l-1.7-13.9l-5-3.1L921.2,447.8z"/>
	</g>
	<g>
		<path class="st14" d="M917.6,445.3c0,0,3.1,2.5,4.4,3.3c1.3,0.8,3.5,15.8,3.5,15.8l2.8,37.9l5.1,28.3c0,0,4.6,21.8,5.5,33.1
			c0.9,11.2,5,7.9,5,7.9s3-8.8,10.2-9.3c7.2-0.5,3.4-4.5,3.4-4.5s-4.1-30-7-35.2c-0.1-0.1-0.1-0.2-0.2-0.2c-0.4-0.7-0.8-2-1.3-3.7
			c-2.7-10.2-6.1-35.3-6.1-35.3l-2.2-31.2c-5.5-9-22.8-8.7-22.8-8.7L917.6,445.3z"/>
	</g>
	<g class="st12">
		<path d="M891.5,446.9l11.4,29.3l10.7,45.6c0,0,1.1,22.5,5,19c1.2-1.2,3.6-1.7,6.1-2.1c-0.1-7.7-0.2-21.6-1.4-27.4
			c-1-5.3-1.4-10.8-1.2-16.1L908.4,465c0,0-10.5-12.8-10.5-14.6c0-0.7,0.7-1.9,1.7-3.2c-1.5-1.4-2.4-2.5-2.4-2.5L891.5,446.9z"/>
	</g>
	<g>
		<path class="st14" d="M926.6,577l-2.6-32.9c0,0,0.2-24.6-1.4-32.8c-1-5.3-1.4-10.8-1.2-16.1l-13.9-30.1c0,0-10.5-12.8-10.5-14.6
			c-0.1-1.8,5.5-7.9,5.5-7.9s-12.1,1.4-13.7,6.8s-10.4,7.4-10.4,7.4s-4.2,3.8-4.1,14.7c0.1,10.9,13.4,19.4,13.4,19.4
			s2.2,20.5,0.3,29.8c-1.9,9.3-0.2,54.2-0.2,54.2s12.8,0.2,20.9,2.2C916.5,579.1,926.6,577,926.6,577z"/>
	</g>
	<g>
		<path class="st36" d="M907.7,524.8l-9.9,36.9c0,0-1.3,3.3-8.3,0.7c-7-2.6-26.9-10.8-26.9-10.8s-1.7-2.9,1.5-8.3l10-29.1
			L907.7,524.8z"/>
	</g>
	<g>
		<polygon class="st37" points="895,541.1 879,523.7 869,519.7 864.8,540.5 884.1,561.3 		"/>
	</g>
	<g>
		<path class="st34" d="M877.9,546.8c0,0,4.7,2.7,6,2.8s5.6,8.4,3.7,8.3c-1.8-0.1-6.1-2.3-5.7-1.2c0.4,1.2,3.2,4.6,4.1,4.2
			c0.8-0.3,1.2,2.5-2.3,1.5s-8.2-1.8-8.2-1.8s-2.5-1.8-2.6-3.1c-0.1-1.2-2.2-8-2.2-8L877.9,546.8z"/>
	</g>
	<g>
		<path class="st34" d="M953.8,449.6c0,0-4.1-8.8-6.6-11.7c-2.4-2.9-13.1-6-14.2-5.1c-1.1,0.8,5.3,5.6,6.6,6.3
			c1.2,0.6-7.5,6.4-7.6,6.5c-0.2,0.1-6.7-0.6-3.3,1.6c3.3,2.2,13.3,4.4,13.3,4.4c1.3-0.2,2.7,0.1,3.8,0.9
			C947.7,453.8,953.8,449.6,953.8,449.6z"/>
	</g>
	<g class="st12">
		<path d="M868.8,547.3c0.5,1.7,1.2,3.5,2.2,5c0.9-0.8,10.1-3.9,10.1-3.9l-1-1.6l-1.7-2.6c0,0-8.2-1.7-9.5,0
			C868.4,545.1,868.5,546.2,868.8,547.3z"/>
	</g>
	<g>
		<path class="st35" d="M868.4,547c0.5,1.7,1.2,3.5,2.2,5c0.9-0.8,10.1-3.9,10.1-3.9l-1-1.6l-1.7-2.6c0,0-8.2-1.7-9.5,0
			C868,544.7,868.1,545.7,868.4,547z"/>
	</g>
	<g class="st12">
		<path d="M944.5,451.6c0.3,0.7,0.7,1.2,1,1.9c1.5,2.3,3.6,5,3.6,5s8.7-4,8.7-4.1c0-0.2-2.6-4.3-4.7-7.5c-0.8-1.3-1.7-2.5-2.2-3.1
			c0,0-3.2,6.8-6.5,6.8C943.7,450.4,944.2,450.8,944.5,451.6z"/>
	</g>
	<g>
		<path class="st35" d="M945,452c0.3,0.7,0.7,1.2,1,1.9c1.5,2.3,3.6,5,3.6,5s8.7-4,8.7-4.1c0-0.2-2.6-4.3-4.7-7.5
			c-0.8-1.3-1.7-2.5-2.2-3.1c0,0-3.2,6.8-6.5,6.8C944.1,450.8,944.5,451.2,945,452z"/>
	</g>
	<g>
		<polygon class="st36" points="895.8,521.7 896.9,518.4 881.3,517.3 887,517.9 894.6,519.4 894,521.7 		"/>
	</g>
	<g class="st12">
		<path d="M868.4,547c1.7-0.8,6.4-2.5,11.3-0.3l-1.7-2.6c0,0-8.2-1.7-9.5,0C868,544.7,868.1,545.7,868.4,547z"/>
	</g>
	<g>
		<path class="st14" d="M867.4,526.5c0,0.6,0.1,1.1,0.1,1.7c0.1,1.7,0.2,3.3,0.2,5c0.2,7.4-0.1,13.6-0.1,13.6s5.9-3.6,12.3-0.6
			l0.7-12v-0.4l0.7-5.3l2.1-17c0,0,3.9-23.6,5.1-24.4c1.2-0.9-9-19.9-9-19.9l-5.2,4.2l-3.2,21.8v11.2
			C871,504.3,866.7,516.5,867.4,526.5z"/>
	</g>
	<g class="st12">
		<path d="M944.7,451.4l1.2,2.4c1.5,2.3,3.6,5,3.6,5s8.7-4,8.7-4.1c0-0.2-2.6-4.3-4.7-7.5c-0.7-0.7-1.1-1.2-1.1-1.2
			C955,452.3,944.7,451.4,944.7,451.4z"/>
	</g>
	<g>
		<path class="st14" d="M937.3,450.3l3.6,1.7c0,0,4.4,5.9,5.6,6.5c1.2,0.7,1.9,0.6,1.9,0.6l-3.7-7.4c0,0,10.4,0.8,7.8-5.5
			c0,0,11.6,12.6,12.8,17.6c0,0,6.5,10.5,4.8,15.7c-1.5,5.2-7.8,6.2-12.2,4.6c-4.5-1.6-18.1-8.5-18.1-8.5L937.3,450.3z"/>
	</g>
	<g class="st12">
		<path d="M950.1,462.8c0,0,9.7,10.7,8.9,12.2C958.2,476.3,950.6,464.9,950.1,462.8z"/>
	</g>
	<g class="st6">
		<path d="M906.7,433.9c0,0-13.6-4.1-21.2,10.6c-7.7,14.6-8,15.6-7.5,16.3c0.4,0.7,15.2-3.1,16.1-1.5c0.8,1.7-8.5,8.8-8.5,8.8
			l35.9,27l-15.1-31.8c-1-2.2-2.3-4.3-4-6.1c-2.5-2.7-5.8-6.9-4.6-8.3c1.1-1.2,2.7-4.1,5-7.5C904.4,438.8,907,436,906.7,433.9z"/>
	</g>
	<g>
		<path class="st14" d="M907,433.6c0,0-13.6-4.1-21.2,10.6c-7.7,14.6-8,15.6-7.5,16.3c0.4,0.7,15.2-3.1,16.1-1.5
			c0.8,1.7-8.5,8.8-8.5,8.8l35.5,27.4l-14.7-32.2c-1-2.2-2.3-4.3-4-6.1c-2.5-2.7-5.8-6.9-4.6-8.3c1.1-1.2,2.7-4.1,5-7.5
			C904.7,438.5,907.4,435.7,907,433.6z"/>
	</g>
	<g class="st12">
		<path d="M907,433.6c0,0-13.6-4.1-21.2,10.6c-7.7,14.6-8,15.6-7.5,16.3c0.4,0.7,15.2-3.1,16.1-1.5c0.8,1.7-8.5,8.8-8.5,8.8
			l35.5,27.4L906,461.4c-0.6-1.3-1.4-2.5-2.4-3.6c-2.4-2.6-7-7.8-5.5-9.3c1.1-1.2,2.7-4.1,5-7.5C904.7,438.5,907.4,435.7,907,433.6z
			"/>
	</g>
	<g>
		<ellipse class="st4" cx="904.2" cy="497.8" rx="2.8" ry="2.8"/>
	</g>
	<g>
		<ellipse class="st4" cx="904.2" cy="515.1" rx="2.8" ry="2.8"/>
	</g>
	<g>
		<path class="st14" d="M867.8,533c1.6,0.4,9.3,0.2,12.8,1v-0.2l0.7-5.3c-3.9-0.5-12.5-1.4-13.6-0.4
			C866,529.3,865.8,532.6,867.8,533z"/>
	</g>
	<g class="st12">
		<path d="M867.8,533.3c1.6,0.4,9.3,0.2,12.8,1v-0.2l0.7-5.3c-3.9-0.5-12.5-1.4-13.6-0.4C866,529.7,865.8,533,867.8,533.3z"/>
	</g>
	<g class="st12">
		<path d="M867.8,533c1.6,0.4,9.3,0.2,12.8,1v-0.2l0.7-5.3c-3.9-0.5-12.5-1.4-13.6-0.4C866,529.3,865.8,532.6,867.8,533z"/>
	</g>
	<g>
		<ellipse class="st4" cx="869.5" cy="530.5" rx="1.7" ry="1.7"/>
	</g>
	<g class="st12">
		<path class="st8" d="M901.4,537.2l-7.2,24.2c0,0-1.9,0.9-1.9-0.7C892.3,559.1,901.4,537.2,901.4,537.2z"/>
	</g>
	<g class="st12">
		<path d="M904.1,438.6c0.4,0.3,0.9,0.7,1.4,1c2.4,1.5,4.6,3.6,7.7,3.6c1.7,0,3.4-0.2,5-0.8c1.5-5.6,3.1-10.5,3.1-10.5
			s-18.6-17.4-17.3-3.1C904.5,433.7,904.8,436.1,904.1,438.6z"/>
	</g>
	<g>
		<path class="st34" d="M897.6,426.9c0,8.6,7,15.6,15.7,15.6c8.7,0,15.7-6.9,15.7-15.6s-7-15.6-15.7-15.6l0,0
			c-8.7,0-15.7,6.9-15.7,15.5C897.6,426.8,897.6,426.8,897.6,426.9z"/>
	</g>
	<g>
		<path class="st37" d="M922.2,439.9c0.2,0.3,0.4,0.7,0.7,0.8l2.5,1.5l4.6,2.8l7.5,4.5c0.2,0.1,0.3,0.2,0.5,0.2
			c1.7,0.9,3.8,0.9,5.5,0.1c1.3-0.6,2.3-1.8,2.6-3.2c0.4-2-0.3-4.1-2-5.3c0,0-0.1-0.1-0.2-0.1c-1.6-0.4-3.1-1.2-4.3-2.2l-4.6-3.2
			l-4.1-3.8l-2.1-1.4c-0.7-0.4-1.4-0.5-2.1-0.1C924.6,431.9,920.3,435.1,922.2,439.9z"/>
	</g>
	<g>
		<path class="st35" d="M925.4,442.2l4.6,2.8c1-3.9,3.4-6.6,5.5-8.7l-4.7-4.2C927.3,434,925.8,439.9,925.4,442.2z"/>
	</g>
	<g class="st12">
		<path d="M938,449.9c1.7,0.9,3.8,0.9,5.5,0.1c1.3-0.6,2.3-1.8,2.6-3.2c0.4-2-0.3-4.1-2-5.3c-1.2,0.5-2.2,1.2-3.1,2
			c-1.3,1.2-2.2,2.6-2.7,4.3C938.1,448.4,938,449.1,938,449.9z"/>
	</g>
	<g class="st12">
		<path d="M897.6,426.9c0,2.2,0.5,4.6,1.5,6.5c0.9,0.9,1.7,2.1,2.1,3.3c1.1,1.3,1.5,2,2.9,2.9c0.6-0.6,1.8-1,2.1-1.7
			c0.6-2,0.2-4.1,0.2-6.2c0-0.9,0.2-2,0.9-2.5c0.7-0.4,1.5-0.1,2.2,0.2c0.7,0.4,1.3,0.8,2.1,0.9c1.2,0.2,2.2-0.7,2.8-1.7
			c0.7-1,1-2.1,1.6-3c0.8-1.2,2-2.2,3.1-3.2c1.3-1.1,2.6-2.3,4.1-3.3c0.8-0.6,1.8-0.8,2.6-1.5l0.2-0.1c-5-7-14.8-8.7-22-3.7
			C900.1,417,897.6,421.8,897.6,426.9L897.6,426.9z"/>
	</g>
	<g>
		<path class="st38" d="M928.5,409.6c-0.3-2.2-2.2-4.2-4.4-4.3c-1.8,0-3.4,1.2-5,2.1c-3.4,1.7-7.4,1.9-10.9,0.4c-1-0.4-2-1-3.1-0.9
			c-1.1,0.1-2,0.8-2.7,1.5c-1.7,1.7-3.1,3.9-4.1,6.2c-0.2,0.7-0.5,1.4-1.1,1.9c-0.4,0.3-0.8,0.6-1.3,0.8c-1.6,1.1-2.7,2.7-3.1,4.6
			c-0.3,1.9-0.2,3.8,0.6,5.6c0.4,1.2,1.2,2.3,2.1,3.2c0.7,0.7,1.5,1.2,2.2,1.7c2.4,2.1,3.6,5.2,3.1,8.4c2,0.5,4-1.3,4.6-3.3
			s0.2-4.1,0.2-6.2c0-0.9,0.2-2,0.9-2.5c0.7-0.4,1.5-0.1,2.2,0.2c0.7,0.4,1.3,0.8,2.1,0.9c1.2,0.2,2.2-0.7,2.8-1.7
			c0.7-0.9,1-2.1,1.6-3c0.8-1.2,2-2.2,3.1-3.2c1.3-1.1,2.6-2.3,4.1-3.3c0.8-0.6,1.8-0.8,2.7-1.5
			C927.7,415.8,928.5,412.5,928.5,409.6z"/>
	</g>
	<g class="st12">
		<path d="M916.3,435.7c0,0,0.2,0.1,0.6,0.2C916.7,435.7,916.5,435.7,916.3,435.7z"/>
	</g>
	<g class="st39">
		<g>
			<path d="M904.5,436.3c0.6-2,0.2-4.1,0.2-6.2c0-0.9,0.2-2,0.9-2.5c0.7-0.4,1.5-0.1,2.2,0.2c0.7,0.4,1.3,0.8,2.1,0.9
				c1.2,0.2,2.2-0.7,2.8-1.7c0.7-1,1-2.1,1.6-3c0.8-1.2,2-2.2,3.1-3.2c1.3-1.1,2.6-2.3,4.1-3.3c0.8-0.6,1.8-0.8,2.7-1.5
				c2.5-1.8,3.3-5,3.3-7.9c-0.1-0.6-0.2-1.1-0.5-1.6c0.7,0.7,1.1,1.7,1.2,2.7c0,2.9-0.7,6.1-3.3,7.9c-0.8,0.6-1.8,0.8-2.7,1.5
				c-1.4,1-2.7,2.2-4.1,3.3c-1.2,0.9-2.3,1.9-3.1,3.2c-0.6,1-1,2.1-1.6,3c-0.7,0.9-1.7,1.7-2.8,1.7c-0.7-0.1-1.4-0.6-2.1-0.9
				s-1.5-0.7-2.2-0.2c-0.8,0.4-1,1.5-0.9,2.5c0,2.1,0.4,4.2-0.2,6.2s-2.6,3.8-4.6,3.3c0.1-0.3,0.1-0.7,0.1-1.1
				C902.5,439.6,904,438,904.5,436.3z"/>
		</g>
		<g>
			<path d="M894.8,429.6c0.7,0.7,1.5,1.2,2.2,1.7c0.8,0.7,1.5,1.5,2,2.4c-0.3-0.5-0.7-0.9-1.2-1.2c-0.7-0.6-1.6-1.1-2.2-1.7
				c-0.6-0.5-1-1.2-1.4-1.8C894.3,429.2,894.5,429.3,894.8,429.6z"/>
		</g>
	</g>
	<g class="st12">
		<path d="M915.8,565.2c0.2,0.8,0.7,1.7,0.7,2.5c0.1,1.5-0.8,2.9-0.9,4.3c-0.1,1.7,1,3.3,2,4.6c-1.2,0-2.5-0.4-3.1-1.4
			c-0.2-0.4-0.3-0.8-0.4-1.2c-1.1-4.3-2.2-9-0.2-13c0.2-0.7,0.7-1.3,1.2-1.8C915.4,561.2,915.1,563.2,915.8,565.2z"/>
	</g>
	<g class="st12">
		<path d="M945.8,534.8l3.1-4.2c0.7-1,1.6-2.1,1.8-3.4c0.3-1.4-0.1-2.8-0.1-4.2c0-0.2,0-0.3,0-0.5c-0.1-0.1-0.1-0.2-0.2-0.2
			c-0.4-0.7-0.8-2-1.3-3.7c-0.5,0.5-0.8,1-1.1,1.7c-1.5,3.6-0.1,7.8-1.3,11.5C946.5,532.8,946,533.8,945.8,534.8z"/>
	</g>
	<g class="st12">
		<path d="M928.1,607.2c3.1,0.7,6.4-0.7,8-3.5L928.1,607.2z"/>
	</g>
	<g class="st12">
		<path d="M910,616.8c-2.4,0.2-4.8-0.5-6.9-1.9L910,616.8z"/>
	</g>
	<g class="st12">
		<path d="M922.3,639.7c2,0.8,3.8,2.1,5.8,3.1c2,0.9,4.2,1.6,6.5,0.9L922.3,639.7z"/>
	</g>
	<g>
		<ellipse class="st17" cx="812.1" cy="636.1" rx="32.6" ry="9.3"/>
	</g>
	<g class="st12">
		<ellipse cx="812.1" cy="633" rx="6.6" ry="1.9"/>
	</g>
	<g>
		<rect x="808.5" y="583.8" class="st17" width="6.7" height="49.2"/>
	</g>
	<g class="st12">
		<path d="M815.1,586.3v5.7c-1.3-0.4-4.4-2.2-6.7-3.5v-4.6h1.4L815.1,586.3z"/>
	</g>
	<g>
		<path class="st18" d="M799.4,562.5c0,0,22.1-5.6,27.6-9.8c5.5-4.2,27.1,15.6,24.3,23.2c-2.8,7.5-13.3,13-13.3,13s-28.7,4.6-33.7-5
			C799.5,574,799.4,562.5,799.4,562.5z"/>
	</g>
	<g class="st12">
		<path d="M799.4,562.5c0,0,22.1-5.6,27.6-9.8c5.5-4.2,27.1,15.6,24.3,23.2c-2.8,7.5-13.3,13-13.3,13s-28.7,4.6-33.7-5
			C799.5,574,799.4,562.5,799.4,562.5z"/>
	</g>
	<g>
		<path class="st18" d="M797.5,560.1c0,0,22.1-5.6,27.6-9.8c5.5-4.2,27.1,15.6,24.3,23.2c-2.8,7.6-13.3,13-13.3,13s-28.7,4.6-33.7-5
			C797.6,571.6,797.5,560.1,797.5,560.1z"/>
	</g>
	<g class="st12">
		<path d="M843,521.3c-0.1,0-0.2,0-0.2,0C842.9,521.3,843,521.3,843,521.3z"/>
	</g>
	<g>
		<path class="st18" d="M777.3,543.3c-2.2-0.5-8.4-1-11.2,8.6c-0.7,2.2-1.5,4.4-2.6,6.5c-2.7,5.6-6.4,17.3,9.4,19.9l37.9,8.5
			c0,0,20.3,2.5,21.6,1.5s1.2-3.1,1.2-3.1s-22.5,0-26.8-6.9c-4.4-6.9-4.6-16.1-4.6-16.1s0.6-14.4-22.6-18.5
			C778.9,543.7,778.2,543.5,777.3,543.3z"/>
	</g>
	<g class="st12">
		<path d="M777.3,543.3c-2.2-0.5-8.4-1-11.2,8.6c-0.7,2.2-1.5,4.4-2.6,6.5c-2.7,5.6-6.4,17.3,9.4,19.9l37.9,8.5
			c0,0,20.3,2.5,21.6,1.5c1.3-0.9,1.2-3.1,1.2-3.1s-22.5,0-26.8-6.9c-4.3-6.9-4.6-16.1-4.6-16.1s0.6-14.4-22.6-18.5
			C778.9,543.8,778.2,543.6,777.3,543.3z"/>
	</g>
	<g>
		<path class="st18" d="M856.9,533.5c-0.4-2.9-3-5-5.9-4.9c-4.8,0.1-18.7,0.7-27.3,4.4c-1.8,0.8-3.7,1.6-5.6,2.3
			c-1.7,0.6-3.8,1.6-4.8,3s-25.1,19.8,9.6,37.4c0,0,18.6,5.2,25.8-7c0,0,5.1-13.2,4.7-17.8c-0.4-4.6,3.4-17,3.4-17
			S857,533.7,856.9,533.5z"/>
	</g>
	<g class="st12">
		<path d="M856.9,536.8c-0.4-2.6-3-4.6-5.9-4.6c-5.4,0.1-22.3,0.7-30,5.5c0,0-5.9,3.5-7.7,3.5s-25.1,18.2,9.6,34.6
			c0,0,18.6,4.9,25.8-6.5c0,0,5.1-12.2,4.7-16.5c-0.4-4.2,3.4-15.6,3.4-15.6S857,537.1,856.9,536.8z"/>
	</g>
	<g>
		<rect x="832.3" y="575.7" class="st17" width="6" height="12.9"/>
	</g>
</g>
<g>
	<g>
		<g>
			<path class="st13" d="M829.3,288.8L829.3,288.8z"/>
		</g>
		<g>
			<path class="st0" d="M906.3,85.1l-65.8,137.8c-9.7-4.6-20.5-7.2-31.9-7.2c-11.2,0-21.8,2.5-31.2,6.9L711.7,85.1
				c30.8-14.2,64.1-21.3,97.4-21.3C842.2,63.8,875.5,70.9,906.3,85.1z"/>
		</g>
		<g>
			<path class="st3" d="M1033.2,273.9l-152.6-0.4c-4.5-21-18.1-38.7-36.7-48.8l66-138.2c30.6,14.7,57.3,35.8,78.2,61.3
				C1009.3,173.4,1033,225.6,1033.2,273.9z"/>
		</g>
		<g>
			<path class="st10" d="M773.6,224.5c-18.6,10-32.5,27.8-37.1,48.9l-152.1-1.1c0.5-61.5,23.9-98.9,45-124.4s47.6-46.6,78.2-61.3
				L773.6,224.5z"/>
		</g>
		<g>
			<ellipse class="st40" cx="808.6" cy="288.8" rx="60.5" ry="60"/>
		</g>
	</g>
	<g>
		<g>
			<g class="st15">
				<path class="st8" d="M781.3,140.2c0.6,0.1,0.8,0,2.2-0.1c3.7-0.4,5.8-3.1,6.6-6.5H790c-0.9,1.1-2.3,1.7-4.2,1.7
					c-3.5,0-6.2-2.6-6.2-6.8s2.9-7.9,7.6-7.9c4.9,0,7.5,4.1,7.5,9.4c0,7.7-4,14-13.1,13.6v-3.4H781.3z M783.8,128.2
					c0,2.6,1.2,4.2,3,4.2c1.3,0,2.3-0.8,2.8-1.7c0.2-0.3,0.2-0.8,0.2-1.6c0-3-1-5.4-3.1-5.4C785.1,123.7,783.8,125.6,783.8,128.2z"
					/>
				<path class="st8" d="M799.3,121H810v3.6h-7.7l-0.6,4.4c0.4-0.1,0.8-0.1,1.2-0.1c3.9,0,7.7,2.2,7.7,7c0,4.3-3.3,7.8-8.6,7.8
					c-2.2,0-4.2-0.6-5.3-1.2l0.9-3.3c0.9,0.5,2.5,1,4.2,1c2.3,0,4.4-1.4,4.4-4c0-2.7-2-4.2-5.8-4.2c-1,0-1.8,0.1-2.5,0.1L799.3,121z
					"/>
				<path class="st8" d="M824.1,127.6c0,4.6-2.6,6.9-5.4,6.9c-3.1,0-5.3-2.7-5.3-6.6s2.1-6.8,5.4-6.8
					C822.3,121.1,824.1,124.1,824.1,127.6z M816.6,128c0,2.4,0.7,4.1,2.2,4.1s2.1-1.7,2.1-4.3c0-2.4-0.5-4.3-2.1-4.3
					C816.9,123.5,816.6,126.2,816.6,128z M833.3,121l-12.4,22.7h-2.4L831,121H833.3z M838.5,136.7c0,4.6-2.5,6.9-5.3,6.9
					c-3.1,0-5.3-2.7-5.3-6.7c0-3.9,2.1-6.8,5.4-6.8C836.8,130.2,838.5,133.2,838.5,136.7z M831,136.9c0,2.5,0.7,4.3,2.2,4.3
					c1.4,0,2.1-1.7,2.1-4.3c0-2.4-0.5-4.3-2.1-4.3C831.5,132.6,831,134.8,831,136.9z"/>
			</g>
		</g>
	</g>
	<g>
		<g>
			<g>
				<g class="st15">
					<path class="st8" d="M657.1,218.1h-4.3v-18.5h-0.1l-3.8,2l-0.9-3.1l5.4-2.8h3.7L657.1,218.1L657.1,218.1z"/>
					<path class="st8" d="M663.6,207c0-6.8,2.5-11.6,7.6-11.6c5.3,0,7.4,5.2,7.4,11.4c0,7.4-2.8,11.6-7.6,11.6
						C665.8,218.4,663.6,213.2,663.6,207z M671,215c2,0,3-2.8,3-8.1c0-5.1-0.9-8-3-8c-1.9,0-3.1,2.7-3.1,8
						C668,212.2,669,215,671,215L671,215z"/>
					<path class="st8" d="M680.6,207c0-6.8,2.5-11.6,7.6-11.6c5.3,0,7.4,5.2,7.4,11.4c0,7.4-2.8,11.6-7.6,11.6
						C682.8,218.4,680.6,213.2,680.6,207z M688.1,215c2,0,3-2.8,3-8.1c0-5.1-0.9-8-3-8c-1.9,0-3.1,2.7-3.1,8
						C685.1,212.2,686.2,215,688.1,215L688.1,215z"/>
					<path class="st8" d="M708.2,202.4c0,4.6-2.6,6.9-5.4,6.9c-3.1,0-5.3-2.7-5.3-6.6c0-3.9,2.1-6.8,5.4-6.8
						C706.5,195.8,708.2,198.9,708.2,202.4z M700.7,202.7c0,2.4,0.7,4.1,2.2,4.1s2.1-1.7,2.1-4.3c0-2.4-0.5-4.3-2.1-4.3
						C701.1,198.2,700.7,201,700.7,202.7z M717.5,195.8L705,218.5h-2.4l12.5-22.7H717.5z M722.6,211.5c0,4.6-2.5,6.9-5.3,6.9
						c-3.1,0-5.3-2.7-5.3-6.7c0-3.9,2.1-6.8,5.4-6.8C720.9,204.9,722.6,207.9,722.6,211.5z M715.1,211.6c0,2.5,0.7,4.3,2.2,4.3
						s2.1-1.7,2.1-4.3c0-2.4-0.5-4.3-2.1-4.3C715.6,207.3,715.1,209.6,715.1,211.6z"/>
				</g>
				<g class="st15">
					<path class="st8" d="M914.2,215c0.6,0.1,0.8,0,2.2-0.1c3.7-0.4,5.8-3.1,6.6-6.5h-0.1c-0.9,1.1-2.3,1.7-4.2,1.7
						c-3.5,0-6.2-2.6-6.2-6.8s2.9-7.9,7.6-7.9c4.9,0,7.5,4.1,7.5,9.4c0,7.7-4,14-13.1,13.6V215H914.2z M916.7,202.9
						c0,2.6,1.2,4.2,3,4.2c1.3,0,2.3-0.8,2.8-1.7c0.2-0.3,0.2-0.8,0.2-1.6c0-3-1-5.4-3.1-5.4C917.9,198.5,916.7,200.4,916.7,202.9z"
						/>
					<path class="st8" d="M930,199.4v-3.6h14v2.7l-8.6,19.6h-4.5l8.6-18.7v-0.1H930V199.4z"/>
					<path class="st8" d="M957,202.4c0,4.6-2.6,6.9-5.4,6.9c-3.1,0-5.3-2.7-5.3-6.6c0-3.9,2.1-6.8,5.4-6.8
						C955.3,195.8,957,198.9,957,202.4z M949.5,202.7c0,2.4,0.7,4.1,2.2,4.1c1.5,0,2.1-1.7,2.1-4.3c0-2.4-0.5-4.3-2.1-4.3
						C949.9,198.2,949.5,201,949.5,202.7z M966.3,195.8l-12.5,22.7h-2.4l12.5-22.7H966.3z M971.3,211.5c0,4.6-2.5,6.9-5.3,6.9
						c-3.1,0-5.3-2.7-5.3-6.7c0-3.9,2.1-6.8,5.4-6.8C969.7,204.9,971.3,207.9,971.3,211.5z M963.9,211.6c0,2.5,0.7,4.3,2.2,4.3
						c1.4,0,2.1-1.7,2.1-4.3c0-2.4-0.5-4.3-2.1-4.3C964.4,207.3,963.9,209.6,963.9,211.6z"/>
				</g>
			</g>
		</g>
	</g>
</g>
<g>
	<g class="st15">
		<path class="st41" d="M108.1,231.4l25.8-57l12.7-0.1l25.9,56.8h-12.2l-5.6-12.6l-29,0.1l-5.9,12.6L108.1,231.4z M140.6,185.1
			l-9.6,22.1l19.1-0.1L140.6,185.1L140.6,185.1z"/>
		<path class="st41" d="M178.4,174.1l24.8-0.1c14.9-0.1,26.1,9.2,26.2,28.1c0.1,16.5-8.4,28.9-26,28.9l-24.8,0.1L178.4,174.1z
			 M191.2,220.5h11.3c7.4,0,14.3-4.5,14.2-17.1c0-11.5-4.1-18.8-16.6-18.8h-9L191.2,220.5z"/>
		<path class="st41" d="M239.4,173.9l16.4-0.1l13.4,25.1l12.9-25.2l16.6-0.1l0.2,57h-11.8l-0.2-40.3h-0.2l-12.7,26h-9.8l-12.8-25.5
			h-0.2l0.2,39.9h-12L239.4,173.9z"/>
		<path class="st41" d="M311,173.6l12.6-0.1l0.2,57l-12.6,0.1L311,173.6z"/>
		<path class="st41" d="M344.7,191.1l0.2,39.4h-11l-0.2-57.3l14.5-0.1l25.8,35.5l-0.1-35.6h10.7l0.2,57.3h-10.7L344.7,191.1z"/>
	</g>
	<g class="st15">
		<path class="st41" d="M416.3,200.3l13.6-0.1c7.6,0,10.5,4.7,10.5,9.5c0,4.9-2.8,9.6-10.4,9.6h-7V230h-6.7L416.3,200.3z
			 M422.9,214.3h5.1c3,0,5.8-0.7,5.8-4.5s-2.8-4.5-5.8-4.5h-5.1V214.3z"/>
		<path class="st41" d="M458,230.4c-8.6,0-15.6-6.8-15.6-15.4c0-8.6,6.9-15.5,15.5-15.5c8.6,0,15.6,6.8,15.6,15.4
			C473.5,223.4,466.6,230.4,458,230.4z M448.7,215c0,5,4.2,9.1,9.3,9.1s9.1-4.2,9.1-9.2s-4.1-9.2-9.2-9.1
			C452.9,205.8,448.7,210,448.7,215z"/>
		<path class="st41" d="M491.4,229.9h-7.5l-9.9-29.8h6.9l6.8,21h0.1l6.8-21h6.9L491.4,229.9z"/>
	</g>
</g>
<g class="st15">
	<path class="st42" d="M258.6,527.8c-0.4,0.1-0.9,0.1-1.4,0.1c-0.8,0-1.4-0.1-1.7-0.4c-0.4-0.3-0.6-0.6-0.7-1.1
		c-0.1-0.5-0.1-1-0.1-1.8v-6.2h-1.3v-1.5h1.3v-2.7h1.9v2.7h1.8v1.5h-1.8v6.3c0,0.7,0.1,1.2,0.3,1.4c0.2,0.2,0.4,0.3,0.8,0.3
		c0.3,0,0.7,0,1-0.1v1.5H258.6z"/>
	<path class="st42" d="M262.2,518.4c1-1.1,2-1.6,3.3-1.6c2.5,0,3.7,1.3,3.7,4v7.1h-1.9v-7c0-0.9-0.2-1.5-0.5-1.9
		c-0.3-0.4-0.8-0.6-1.6-0.6c-1,0-2,0.6-3,1.7v7.8h-1.9v-15h1.9V518.4z"/>
	<path class="st42" d="M274,515h-1.9v-2.1h1.9V515z M274,527.8h-1.9V517h1.9V527.8z"/>
	<path class="st42" d="M278.9,518.4c1-1.1,2-1.6,3.3-1.6c2.5,0,3.7,1.3,3.7,4v7.1H284v-7c0-0.9-0.2-1.5-0.5-1.9
		c-0.3-0.4-0.8-0.6-1.6-0.6c-1,0-2,0.6-3,1.7v7.8H277V517h1.9V518.4z"/>
	<path class="st42" d="M297.7,527.8h-2.3l-3.5-5.5l-1.2,1.2v4.3h-2v-15h1.9v8.5l4.2-4.4h2.4l-4.1,4L297.7,527.8z"/>
	<path class="st42" d="M303.2,528.2c-3,0-4.5-1.2-4.7-3.5h1.9c0,1.3,0.9,2,2.7,2c0.8,0,1.4-0.2,1.8-0.5c0.4-0.3,0.6-0.7,0.6-1.2
		s-0.2-0.8-0.6-1c-0.4-0.2-1.3-0.5-2.5-0.8c-1.3-0.3-2.2-0.7-2.8-1.1c-0.6-0.4-0.9-1.1-0.9-2.1c0-0.9,0.4-1.6,1.1-2.2
		c0.7-0.6,1.7-0.9,2.9-0.9c2.9,0,4.3,1,4.4,3h-1.9c-0.1-1-0.8-1.5-2.3-1.5c-0.6,0-1.2,0.1-1.6,0.4c-0.4,0.2-0.6,0.6-0.6,1.1
		c0,0.4,0.2,0.7,0.5,0.9c0.3,0.2,1.1,0.4,2.5,0.8c1.3,0.3,2.3,0.7,2.9,1.1s1,1.2,1,2.2s-0.4,1.8-1.2,2.5
		C305.6,527.8,304.5,528.2,303.2,528.2z"/>
	<path class="st42" d="M317.4,515h-1.9v-2.1h1.9V515z M317.4,527.8h-1.9V517h1.9V527.8z"/>
	<path class="st42" d="M324.5,527.8c-0.4,0.1-0.9,0.1-1.4,0.1c-0.8,0-1.4-0.1-1.7-0.4c-0.4-0.3-0.6-0.6-0.7-1.1s-0.1-1-0.1-1.8v-6.2
		h-1.3v-1.5h1.3v-2.7h1.9v2.7h1.8v1.5h-1.8v6.3c0,0.7,0.1,1.2,0.3,1.4c0.2,0.2,0.4,0.3,0.8,0.3c0.3,0,0.7,0,1-0.1v1.5H324.5z"/>
	<path class="st42" d="M328.2,515c0,0.9-0.2,1.6-0.5,2.2c-0.4,0.5-0.9,0.8-1.6,0.8v-1c0.7,0,1-0.7,1-2h-1v-2.1h2.1V515z"/>
	<path class="st42" d="M334.8,528.2c-3,0-4.5-1.2-4.7-3.5h1.9c0,1.3,0.9,2,2.7,2c0.8,0,1.4-0.2,1.8-0.5c0.4-0.3,0.6-0.7,0.6-1.2
		s-0.2-0.8-0.6-1c-0.4-0.2-1.3-0.5-2.5-0.8c-1.3-0.3-2.2-0.7-2.8-1.1c-0.6-0.4-0.9-1.1-0.9-2.1c0-0.9,0.4-1.6,1.1-2.2
		c0.7-0.6,1.7-0.9,2.9-0.9c2.9,0,4.3,1,4.4,3h-1.9c-0.1-1-0.8-1.5-2.3-1.5c-0.6,0-1.2,0.1-1.6,0.4c-0.4,0.2-0.6,0.6-0.6,1.1
		c0,0.4,0.2,0.7,0.5,0.9c0.3,0.2,1.2,0.4,2.5,0.8c1.3,0.3,2.3,0.7,2.9,1.1c0.6,0.4,1,1.2,1,2.2s-0.4,1.8-1.2,2.5
		C337.1,527.8,336.1,528.2,334.8,528.2z"/>
	<path class="st42" d="M350.9,528.2c-3,0-4.5-1.2-4.7-3.5h1.9c0,1.3,0.9,2,2.7,2c0.8,0,1.4-0.2,1.8-0.5c0.4-0.3,0.6-0.7,0.6-1.2
		s-0.2-0.8-0.6-1c-0.4-0.2-1.3-0.5-2.5-0.8c-1.3-0.3-2.2-0.7-2.8-1.1c-0.6-0.4-0.9-1.1-0.9-2.1c0-0.9,0.4-1.6,1.1-2.2
		c0.7-0.6,1.7-0.9,2.9-0.9c2.9,0,4.3,1,4.4,3H353c-0.1-1-0.8-1.5-2.3-1.5c-0.6,0-1.2,0.1-1.6,0.4c-0.4,0.2-0.6,0.6-0.6,1.1
		c0,0.4,0.2,0.7,0.5,0.9c0.3,0.2,1.2,0.4,2.5,0.8c1.3,0.3,2.3,0.7,2.9,1.1c0.6,0.4,1,1.2,1,2.2s-0.4,1.8-1.2,2.5
		C353.4,527.8,352.4,528.2,350.9,528.2z"/>
	<path class="st42" d="M362.3,528.2c-1.6,0-2.9-0.5-3.9-1.5c-1-1-1.5-2.4-1.5-4.2c0-1.8,0.5-3.2,1.4-4.2s2.2-1.5,3.7-1.5
		c1.6,0,2.8,0.5,3.7,1.5c0.9,1,1.4,2.4,1.4,4.2v0.5h-8.3c0.1,1.3,0.4,2.2,1,2.8c0.6,0.6,1.4,0.9,2.3,0.9c0.7,0,1.3-0.2,1.8-0.5
		c0.5-0.3,0.8-0.8,0.9-1.5h2c-0.2,1.1-0.7,2-1.5,2.6S363.5,528.2,362.3,528.2z M365.2,521.3c-0.2-1-0.5-1.8-1.1-2.3
		c-0.6-0.5-1.2-0.8-2-0.8s-1.4,0.3-2,0.8c-0.6,0.5-0.9,1.3-1.1,2.4h6.2V521.3z"/>
	<path class="st42" d="M373.8,528.2c-1.5,0-2.8-0.5-3.7-1.5c-0.9-1-1.4-2.4-1.4-4.2c0-1.8,0.5-3.2,1.4-4.2s2.2-1.5,3.7-1.5
		c1.2,0,2.2,0.3,3,0.9s1.3,1.5,1.4,2.6h-2c0-0.6-0.3-1.1-0.7-1.5c-0.5-0.3-1-0.5-1.7-0.5c-0.9,0-1.7,0.4-2.2,1.1
		c-0.6,0.7-0.9,1.7-0.9,3.1s0.3,2.4,0.9,3.1c0.6,0.7,1.3,1.1,2.2,1.1c0.6,0,1.2-0.2,1.7-0.5c0.5-0.3,0.7-0.8,0.7-1.5h2
		c-0.1,1.1-0.6,2-1.4,2.6S375,528.2,373.8,528.2z"/>
	<path class="st42" d="M386.9,526.5c-1,1.1-2,1.6-3.3,1.6c-2.5,0-3.7-1.3-3.7-4V517h1.9v7c0,0.9,0.2,1.5,0.5,1.9
		c0.3,0.4,0.8,0.6,1.6,0.6c1.1,0,2.1-0.6,3-1.7v-7.8h1.9v10.9h-1.9V526.5z"/>
	<path class="st42" d="M397.5,518.8c-0.3-0.1-0.7-0.1-1.2-0.1c-1,0-1.8,0.5-2.5,1.5v7.7h-1.9V517h1.9v1.5c0.8-1.2,1.8-1.8,2.8-1.8
		c0.3,0,0.6,0,0.9,0.1L397.5,518.8L397.5,518.8z"/>
	<path class="st42" d="M403.5,528.2c-1.6,0-2.9-0.5-3.9-1.5s-1.5-2.4-1.5-4.2c0-1.8,0.5-3.2,1.4-4.2s2.2-1.5,3.7-1.5
		c1.6,0,2.8,0.5,3.7,1.5c0.9,1,1.4,2.4,1.4,4.2v0.5H400c0.1,1.3,0.4,2.2,1,2.8c0.6,0.6,1.4,0.9,2.3,0.9c0.7,0,1.3-0.2,1.8-0.5
		c0.5-0.3,0.8-0.8,0.9-1.5h2c-0.2,1.1-0.7,2-1.5,2.6S404.8,528.2,403.5,528.2z M406.4,521.3c-0.2-1-0.5-1.8-1.1-2.3
		c-0.6-0.5-1.2-0.8-2-0.8s-1.4,0.3-2,0.8s-0.9,1.3-1.1,2.4h6.2V521.3z"/>
	<path class="st42" d="M413.1,527.8H411v-2.1h2.1V527.8z"/>
</g>
<g class="st15">
	<path class="st42" d="M256.7,636.8v9.4h-1.9v-9.4h-1.6v-1.5h1.6v-1c0-2.3,1-3.4,3-3.4c0.6,0,1.1,0,1.4,0.1v1.7
		c-0.4-0.1-0.8-0.1-1.2-0.1c-0.5,0-0.8,0.1-1.1,0.4c-0.2,0.3-0.3,0.7-0.3,1.4v0.9h2.1v1.5L256.7,636.8L256.7,636.8z"/>
	<path class="st42" d="M262.2,633.3h-1.9v-2.1h1.9V633.3z M262.2,646.2h-1.9v-10.9h1.9V646.2z"/>
	<path class="st42" d="M267.1,636.7c1-1.1,2-1.6,3.3-1.6c2.5,0,3.7,1.3,3.7,4v7.1h-1.9v-7c0-0.9-0.2-1.5-0.5-1.9
		c-0.3-0.4-0.8-0.6-1.6-0.6c-1,0-2,0.6-3,1.7v7.8h-1.9v-10.9h1.9V636.7z"/>
	<path class="st42" d="M283.8,644.8c-0.9,1-1.9,1.6-3.1,1.6c-1.4,0-2.5-0.5-3.3-1.5c-0.8-1-1.2-2.4-1.2-4.1c0-1.8,0.4-3.2,1.3-4.2
		c0.9-1,2-1.6,3.3-1.6c1.2,0,2.2,0.4,3,1.1v-5h1.9v15h-1.9V644.8z M283.8,643.1v-5.2c-0.8-0.9-1.8-1.3-2.9-1.3c-0.8,0-1.5,0.4-2,1.1
		c-0.5,0.7-0.7,1.8-0.7,3.2c0,1.3,0.2,2.4,0.7,3.1c0.5,0.7,1.1,1,1.9,1C281.9,644.8,282.9,644.3,283.8,643.1z"/>
	<path class="st42" d="M296.2,633.3h-1.9v-2.1h1.9V633.3z M296.2,646.2h-1.9v-10.9h1.9V646.2z"/>
	<path class="st42" d="M303.4,646.2c-0.4,0.1-0.9,0.1-1.4,0.1c-0.8,0-1.4-0.1-1.7-0.4c-0.4-0.3-0.6-0.6-0.7-1.1
		c-0.1-0.5-0.1-1-0.1-1.8v-6.2h-1.3v-1.5h1.3v-2.7h1.9v2.7h1.8v1.5h-1.8v6.3c0,0.7,0.1,1.2,0.3,1.4c0.2,0.2,0.4,0.3,0.8,0.3
		c0.3,0,0.7,0,1-0.1v1.5H303.4z"/>
	<path class="st42" d="M315.3,646.3c-1.6,0-2.9-0.5-3.9-1.5c-1-1-1.5-2.4-1.5-4.2c0-1.8,0.5-3.2,1.4-4.2s2.2-1.5,3.7-1.5
		c1.6,0,2.8,0.5,3.7,1.5s1.4,2.4,1.4,4.2v0.5h-8.3c0.1,1.3,0.4,2.2,1,2.8c0.6,0.6,1.4,0.9,2.3,0.9c0.7,0,1.3-0.2,1.8-0.5
		c0.5-0.3,0.8-0.8,0.9-1.5h2c-0.2,1.1-0.7,2-1.5,2.6S316.5,646.3,315.3,646.3z M318.2,639.7c-0.2-1-0.5-1.8-1.1-2.3
		c-0.6-0.5-1.2-0.8-2-0.8s-1.4,0.3-2,0.8c-0.6,0.5-0.9,1.3-1.1,2.4h6.2V639.7z"/>
	<path class="st42" d="M329.3,645.1c-1,0.9-2.3,1.4-3.8,1.4c-1.1,0-2-0.3-2.7-0.9s-1-1.3-1-2.3c0-2.5,2.2-3.8,6.7-3.8h0.9
		c0-0.8,0-1.3-0.1-1.7s-0.3-0.6-0.7-0.9s-1-0.3-1.8-0.3c-1.7,0-2.6,0.6-2.7,1.8H322c0.1-2.2,1.7-3.4,4.7-3.4c1.4,0,2.5,0.3,3.3,0.8
		s1.2,1.6,1.2,3.3v7h-1.9v-1H329.3z M329.3,643.3v-2.4H328c-2.8,0-4.2,0.8-4.2,2.3c0,0.6,0.2,1,0.6,1.3c0.4,0.3,1,0.4,1.7,0.4
		c0.6,0,1.3-0.1,1.8-0.4S329,643.8,329.3,643.3z"/>
	<path class="st42" d="M338,646.3c-3,0-4.5-1.2-4.7-3.5h1.9c0,1.3,0.9,2,2.7,2c0.8,0,1.4-0.2,1.8-0.5c0.4-0.3,0.6-0.7,0.6-1.2
		s-0.2-0.8-0.6-1c-0.4-0.2-1.3-0.5-2.5-0.8c-1.3-0.3-2.2-0.7-2.8-1.1c-0.6-0.4-0.9-1.1-0.9-2.1c0-0.9,0.4-1.6,1.1-2.2
		c0.7-0.6,1.7-0.9,2.9-0.9c2.9,0,4.3,1,4.4,3h-1.9c-0.1-1-0.8-1.5-2.3-1.5c-0.6,0-1.2,0.1-1.6,0.4s-0.6,0.6-0.6,1.1
		c0,0.4,0.2,0.7,0.5,0.9c0.3,0.2,1.1,0.4,2.5,0.8c1.3,0.3,2.3,0.7,2.9,1.1c0.6,0.4,1,1.2,1,2.2s-0.4,1.8-1.2,2.5
		C340.5,646.1,339.5,646.3,338,646.3z"/>
	<path class="st42" d="M345.4,648.8c1,0,1.7-0.9,2.3-2.6l-4.1-10.9h2.1l2.9,8.5l2.9-8.5h2.1l-4.1,10.9c-0.4,1-0.7,1.8-1,2.4
		c-0.3,0.6-0.6,1-1.1,1.4c-0.4,0.4-1,0.6-1.6,0.6c-0.5,0-0.9,0-1.3-0.1v-1.8C344.7,648.8,345,648.8,345.4,648.8z"/>
	<path class="st42" d="M365.2,646.2c-0.4,0.1-0.9,0.1-1.4,0.1c-0.8,0-1.4-0.1-1.7-0.4c-0.4-0.3-0.6-0.6-0.7-1.1
		c-0.1-0.5-0.1-1-0.1-1.8v-6.2h-1.3v-1.5h1.3v-2.7h1.9v2.7h1.8v1.5h-1.8v6.3c0,0.7,0.1,1.2,0.3,1.4c0.2,0.2,0.4,0.3,0.8,0.3
		c0.3,0,0.7,0,1-0.1v1.5H365.2z"/>
	<path class="st42" d="M371.3,635.1c1.6,0,2.8,0.5,3.7,1.5c0.9,1,1.4,2.4,1.4,4.2c0,1.8-0.5,3.2-1.4,4.2c-0.9,1-2.2,1.5-3.7,1.5
		c-1.5,0-2.8-0.5-3.7-1.5c-0.9-1-1.4-2.4-1.4-4.2c0-1.8,0.5-3.2,1.4-4.2C368.5,635.6,369.7,635.1,371.3,635.1z M371.3,644.8
		c0.9,0,1.7-0.3,2.2-1.1c0.6-0.7,0.9-1.7,0.9-3.1s-0.3-2.4-0.9-3.1s-1.3-1.1-2.2-1.1s-1.7,0.4-2.2,1.1c-0.6,0.7-0.9,1.7-0.9,3.1
		c0,1.4,0.3,2.4,0.9,3.1C369.6,644.6,370.3,644.8,371.3,644.8z"/>
	<path class="st42" d="M399,646.2h-1.9v-7c0-0.9-0.1-1.5-0.4-1.9c-0.3-0.4-0.7-0.6-1.3-0.6c-0.9,0-1.9,0.6-2.8,1.7v7.8h-1.9v-7
		c0-0.9-0.1-1.5-0.4-1.9c-0.3-0.4-0.7-0.6-1.3-0.6c-0.9,0-1.9,0.6-2.7,1.7v7.8h-1.9v-10.9h1.9v1.4c0.9-1.1,1.9-1.6,3-1.6
		c1.6,0,2.6,0.7,3,2c0.7-0.9,1.3-1.4,1.8-1.6s1-0.3,1.5-0.3c2.2,0,3.3,1.3,3.3,4v7H399z"/>
	<path class="st42" d="M408.8,645.1c-1,0.9-2.3,1.4-3.8,1.4c-1.1,0-2-0.3-2.7-0.9c-0.7-0.6-1-1.3-1-2.3c0-2.5,2.2-3.8,6.7-3.8h0.9
		c0-0.8,0-1.3-0.1-1.7c-0.1-0.4-0.3-0.6-0.7-0.9s-1-0.3-1.8-0.3c-1.7,0-2.6,0.6-2.7,1.8h-1.9c0.1-2.2,1.7-3.4,4.7-3.4
		c1.4,0,2.5,0.3,3.3,0.8s1.2,1.6,1.2,3.3v7h-1.9v-1H408.8z M408.8,643.3v-2.4h-1.3c-2.8,0-4.2,0.8-4.2,2.3c0,0.6,0.2,1,0.6,1.3
		c0.4,0.3,1,0.4,1.7,0.4c0.6,0,1.3-0.1,1.8-0.4C407.9,644.1,408.4,643.8,408.8,643.3z"/>
	<path class="st42" d="M415.6,636.7c1-1.1,2-1.6,3.3-1.6c2.5,0,3.7,1.3,3.7,4v7.1h-1.9v-7c0-0.9-0.2-1.5-0.5-1.9
		c-0.3-0.4-0.8-0.6-1.6-0.6c-1,0-2,0.6-3,1.7v7.8h-1.9v-10.9h1.9V636.7z"/>
	<path class="st42" d="M432.3,645.1c-1,0.9-2.3,1.4-3.8,1.4c-1.1,0-2-0.3-2.7-0.9c-0.7-0.6-1-1.3-1-2.3c0-2.5,2.2-3.8,6.7-3.8h0.9
		c0-0.8,0-1.3-0.1-1.7c-0.1-0.4-0.3-0.6-0.7-0.9s-1-0.3-1.8-0.3c-1.7,0-2.6,0.6-2.7,1.8H425c0.1-2.2,1.7-3.4,4.7-3.4
		c1.4,0,2.5,0.3,3.3,0.8s1.2,1.6,1.2,3.3v7h-1.9v-1H432.3z M432.3,643.3v-2.4H431c-2.8,0-4.2,0.8-4.2,2.3c0,0.6,0.2,1,0.6,1.3
		c0.4,0.3,1,0.4,1.7,0.4c0.6,0,1.3-0.1,1.8-0.4C431.4,644.1,432,643.8,432.3,643.3z"/>
	<path class="st42" d="M446.1,645.3c0,3.5-1.6,5.3-4.7,5.3c-1.4,0-2.4-0.3-3.2-0.9s-1.2-1.4-1.2-2.4h2c0,1.2,0.8,1.8,2.4,1.8
		c0.9,0,1.6-0.2,2.1-0.7s0.7-1.5,0.7-2.9V645c-0.9,1-1.9,1.6-3.1,1.6c-1.4,0-2.5-0.5-3.3-1.5c-0.8-1-1.2-2.4-1.2-4.1
		c0-1.8,0.4-3.2,1.3-4.2s2-1.6,3.3-1.6c1.2,0,2.2,0.4,3,1.1v-0.8h1.9L446.1,645.3L446.1,645.3z M444.1,643.1v-5.2
		c-0.8-0.9-1.8-1.3-2.9-1.3c-0.8,0-1.5,0.4-2,1.1s-0.7,1.8-0.7,3.2c0,1.3,0.2,2.4,0.7,3.1c0.5,0.7,1.1,1,1.9,1
		C442.3,644.8,443.2,644.3,444.1,643.1z"/>
	<path class="st42" d="M453.6,646.3c-1.6,0-2.9-0.5-3.9-1.5c-1-1-1.5-2.4-1.5-4.2c0-1.8,0.5-3.2,1.4-4.2s2.2-1.5,3.7-1.5
		c1.6,0,2.8,0.5,3.7,1.5c0.9,1,1.4,2.4,1.4,4.2v0.5h-8.3c0.1,1.3,0.4,2.2,1,2.8s1.4,0.9,2.3,0.9c0.7,0,1.3-0.2,1.8-0.5
		c0.5-0.3,0.8-0.8,0.9-1.5h2c-0.2,1.1-0.7,2-1.5,2.6S454.9,646.3,453.6,646.3z M456.5,639.7c-0.2-1-0.5-1.8-1.1-2.3s-1.2-0.8-2-0.8
		s-1.4,0.3-2,0.8c-0.6,0.5-0.9,1.3-1.1,2.4h6.2V639.7z"/>
	<path class="st42" d="M473.3,644.8c-0.9,1-1.9,1.6-3.1,1.6c-1.4,0-2.5-0.5-3.3-1.5s-1.2-2.4-1.2-4.1c0-1.8,0.4-3.2,1.3-4.2
		s2-1.6,3.3-1.6c1.2,0,2.2,0.4,3,1.1v-5h1.9v15h-1.9L473.3,644.8L473.3,644.8z M473.3,643.1v-5.2c-0.8-0.9-1.8-1.3-2.9-1.3
		c-0.8,0-1.5,0.4-2,1.1c-0.5,0.7-0.7,1.8-0.7,3.2c0,1.3,0.2,2.4,0.7,3.1c0.5,0.7,1.1,1,1.9,1C471.4,644.8,472.4,644.3,473.3,643.1z"
		/>
	<path class="st42" d="M485,645.1c-1,0.9-2.3,1.4-3.8,1.4c-1.1,0-2-0.3-2.7-0.9s-1-1.3-1-2.3c0-2.5,2.2-3.8,6.7-3.8h0.9
		c0-0.8,0-1.3-0.1-1.7s-0.3-0.6-0.7-0.9s-1-0.3-1.8-0.3c-1.7,0-2.6,0.6-2.7,1.8h-1.9c0.1-2.2,1.7-3.4,4.7-3.4c1.4,0,2.5,0.3,3.3,0.8
		s1.2,1.6,1.2,3.3v7h-1.9v-1H485z M485,643.3v-2.4h-1.3c-2.8,0-4.2,0.8-4.2,2.3c0,0.6,0.2,1,0.6,1.3c0.4,0.3,1,0.4,1.7,0.4
		c0.6,0,1.3-0.1,1.8-0.4S484.7,643.8,485,643.3z"/>
	<path class="st42" d="M494.2,646.2c-0.4,0.1-0.9,0.1-1.4,0.1c-0.8,0-1.4-0.1-1.7-0.4c-0.4-0.3-0.6-0.6-0.7-1.1s-0.1-1-0.1-1.8v-6.2
		h-1.3v-1.5h1.3v-2.7h1.9v2.7h1.8v1.5h-1.8v6.3c0,0.7,0.1,1.2,0.3,1.4c0.2,0.2,0.4,0.3,0.8,0.3c0.3,0,0.7,0,1-0.1v1.5H494.2z"/>
	<path class="st42" d="M502.8,645.1c-1,0.9-2.3,1.4-3.8,1.4c-1.1,0-2-0.3-2.7-0.9c-0.7-0.6-1-1.3-1-2.3c0-2.5,2.2-3.8,6.7-3.8h0.9
		c0-0.8,0-1.3-0.1-1.7s-0.3-0.6-0.7-0.9s-1-0.3-1.8-0.3c-1.7,0-2.6,0.6-2.7,1.8h-1.9c0.1-2.2,1.7-3.4,4.7-3.4c1.4,0,2.5,0.3,3.3,0.8
		s1.2,1.6,1.2,3.3v7h-1.9v-1H502.8z M502.8,643.3v-2.4h-1.4c-2.8,0-4.2,0.8-4.2,2.3c0,0.6,0.2,1,0.6,1.3c0.4,0.3,1,0.4,1.7,0.4
		c0.6,0,1.3-0.1,1.8-0.4C501.7,644.1,502.3,643.8,502.8,643.3z"/>
	<path class="st42" d="M510.1,646.2H508v-2.1h2.1V646.2z"/>
</g>
<g class="st15">
	<path class="st42" d="M261.3,406.5c-1,0.9-2.3,1.4-3.8,1.4c-1.1,0-2-0.3-2.7-0.9s-1-1.3-1-2.3c0-2.5,2.2-3.8,6.7-3.8h0.9
		c0-0.8,0-1.3-0.1-1.7c-0.1-0.4-0.3-0.6-0.7-0.9c-0.4-0.3-1-0.3-1.8-0.3c-1.7,0-2.6,0.6-2.7,1.8h-1.9c0.1-2.2,1.7-3.4,4.7-3.4
		c1.4,0,2.5,0.3,3.3,0.8c0.8,0.5,1.2,1.6,1.2,3.3v7h-1.9v-1H261.3z M261.3,404.8v-2.4H260c-2.8,0-4.2,0.8-4.2,2.3
		c0,0.6,0.2,1,0.6,1.3s1,0.4,1.7,0.4c0.6,0,1.3-0.1,1.8-0.4C260.4,405.7,261,405.3,261.3,404.8z"/>
	<path class="st42" d="M271.8,398.5c-0.3-0.1-0.7-0.1-1.2-0.1c-1,0-1.8,0.5-2.5,1.5v7.7h-1.9v-10.8h1.9v1.5c0.8-1.2,1.8-1.8,2.8-1.8
		c0.3,0,0.6,0,0.9,0.1V398.5z"/>
	<path class="st42" d="M277.9,407.9c-1.6,0-2.9-0.5-3.9-1.5s-1.5-2.4-1.5-4.2c0-1.8,0.5-3.2,1.4-4.2s2.2-1.5,3.7-1.5
		c1.6,0,2.8,0.5,3.7,1.5s1.4,2.4,1.4,4.2v0.5h-8.2c0.1,1.3,0.4,2.2,1,2.8c0.6,0.6,1.4,0.9,2.3,0.9c0.7,0,1.3-0.2,1.8-0.5
		s0.8-0.8,0.9-1.5h2c-0.2,1.1-0.7,2-1.5,2.6C280.3,407.6,279.2,407.9,277.9,407.9z M280.8,401.2c-0.2-1-0.5-1.8-1.1-2.3
		c-0.6-0.5-1.2-0.8-2-0.8c-0.8,0-1.4,0.3-2,0.8s-0.9,1.3-1.1,2.4h6.2V401.2z"/>
	<path class="st42" d="M304.4,396.8l-3.3,10.9h-1.8l-2.4-8l-2.3,8h-1.8l-3.3-10.9h2.1l2,8.3l2.5-8.3h1.8l2.5,8.3l2-8.3H304.4z"/>
	<path class="st42" d="M307.8,394.7h-1.9v-2.1h1.9V394.7z M307.8,407.7h-1.9v-10.9h1.9V407.7z"/>
	<path class="st42" d="M312.6,407.7h-1.9v-15h1.9V407.7z"/>
	<path class="st42" d="M317.5,407.7h-1.9v-15h1.9V407.7z"/>
	<path class="st42" d="M322.3,394.7h-1.9v-2.1h1.9V394.7z M322.3,407.7h-1.9v-10.9h1.9V407.7z"/>
	<path class="st42" d="M327.2,398.2c1-1.1,2-1.6,3.3-1.6c2.5,0,3.7,1.3,3.7,4v7.1h-1.9v-7c0-0.9-0.2-1.5-0.5-1.9s-0.8-0.6-1.6-0.6
		c-1,0-2,0.6-3,1.7v7.8h-1.9v-10.9h1.9V398.2z"/>
	<path class="st42" d="M345.9,406.8c0,3.5-1.6,5.3-4.7,5.3c-1.4,0-2.4-0.3-3.2-0.9s-1.2-1.4-1.2-2.4h2c0,1.2,0.8,1.8,2.4,1.8
		c0.9,0,1.6-0.2,2.1-0.7s0.7-1.5,0.7-2.9v-0.5c-0.9,1-1.9,1.6-3.1,1.6c-1.4,0-2.5-0.5-3.3-1.5s-1.2-2.4-1.2-4.1
		c0-1.8,0.4-3.2,1.3-4.2s2-1.6,3.3-1.6c1.2,0,2.2,0.4,3,1.1v-1h1.9L345.9,406.8L345.9,406.8z M343.9,404.5v-5.2
		c-0.8-0.9-1.8-1.3-2.9-1.3c-0.8,0-1.5,0.4-2,1.1s-0.7,1.8-0.7,3.2c0,1.3,0.2,2.4,0.7,3.1s1.1,1,1.9,1
		C342.1,406.4,343.1,405.8,343.9,404.5z"/>
	<path class="st42" d="M358.6,407.7c-0.4,0.1-0.9,0.1-1.4,0.1c-0.8,0-1.4-0.1-1.7-0.4c-0.4-0.3-0.6-0.6-0.7-1.1s-0.1-1-0.1-1.8v-6.2
		h-1.3v-1.5h1.3v-2.7h1.9v2.7h1.8v1.5h-1.8v6.3c0,0.7,0.1,1.2,0.3,1.4c0.2,0.2,0.4,0.3,0.8,0.3c0.3,0,0.7,0,1-0.1v1.5H358.6z"/>
	<path class="st42" d="M364.7,396.5c1.6,0,2.8,0.5,3.7,1.5c0.9,1,1.4,2.4,1.4,4.2c0,1.8-0.5,3.2-1.4,4.2s-2.2,1.5-3.7,1.5
		c-1.5,0-2.8-0.5-3.7-1.5c-0.9-1-1.4-2.4-1.4-4.2c0-1.8,0.5-3.2,1.4-4.2C361.9,397,363.1,396.5,364.7,396.5z M364.7,406.4
		c0.9,0,1.7-0.3,2.2-1.1c0.6-0.7,0.9-1.7,0.9-3.1s-0.3-2.4-0.9-3.1c-0.6-0.7-1.3-1.1-2.2-1.1s-1.7,0.4-2.2,1.1
		c-0.6,0.7-0.9,1.7-0.9,3.1s0.3,2.4,0.9,3.1C363,406.1,363.7,406.4,364.7,406.4z"/>
	<path class="st42" d="M384.6,406.3c-1,1.1-2,1.6-3.3,1.6c-2.5,0-3.7-1.3-3.7-4v-7.1h1.9v7c0,0.9,0.2,1.5,0.5,1.9s0.8,0.6,1.6,0.6
		c1.1,0,2.1-0.6,3-1.7v-7.8h1.9v10.9h-1.9V406.3z"/>
	<path class="st42" d="M393.4,407.9c-3,0-4.5-1.2-4.7-3.5h1.9c0,1.3,0.9,2,2.7,2c0.8,0,1.4-0.2,1.8-0.5s0.6-0.7,0.6-1.2
		s-0.2-0.8-0.6-1s-1.3-0.5-2.5-0.8c-1.3-0.3-2.2-0.7-2.8-1.1s-0.9-1.1-0.9-2.1c0-0.9,0.4-1.6,1.1-2.2c0.7-0.6,1.7-0.9,2.9-0.9
		c2.9,0,4.3,1,4.4,3h-1.9c-0.1-1-0.8-1.5-2.3-1.5c-0.6,0-1.2,0.1-1.6,0.4s-0.6,0.6-0.6,1.1c0,0.4,0.2,0.7,0.5,0.9
		c0.3,0.2,1.1,0.4,2.5,0.8c1.3,0.3,2.3,0.7,2.9,1.1c0.6,0.4,1,1.2,1,2.2s-0.4,1.8-1.2,2.5C395.8,407.6,394.7,407.9,393.4,407.9z"/>
	<path class="st42" d="M404.7,407.9c-1.6,0-2.9-0.5-3.9-1.5c-1-1-1.5-2.4-1.5-4.2c0-1.8,0.5-3.2,1.4-4.2c0.9-1,2.2-1.5,3.7-1.5
		c1.6,0,2.8,0.5,3.7,1.5c0.9,1,1.4,2.4,1.4,4.2v0.5h-8.3c0.1,1.3,0.4,2.2,1,2.8c0.6,0.6,1.4,0.9,2.3,0.9c0.7,0,1.3-0.2,1.8-0.5
		s0.8-0.8,0.9-1.5h2c-0.2,1.1-0.7,2-1.5,2.6S405.9,407.9,404.7,407.9z M407.5,401.2c-0.2-1-0.5-1.8-1.1-2.3s-1.2-0.8-2-0.8
		s-1.4,0.3-2,0.8c-0.6,0.5-0.9,1.3-1.1,2.4h6.2V401.2z"/>
	<path class="st42" d="M421.3,407.9c-3,0-4.5-1.2-4.7-3.5h1.9c0,1.3,0.9,2,2.7,2c0.8,0,1.4-0.2,1.8-0.5s0.6-0.7,0.6-1.2
		s-0.2-0.8-0.6-1s-1.3-0.5-2.5-0.8c-1.3-0.3-2.2-0.7-2.8-1.1c-0.6-0.4-0.9-1.1-0.9-2.1c0-0.9,0.4-1.6,1.1-2.2s1.7-0.9,2.9-0.9
		c2.9,0,4.3,1,4.4,3h-1.9c-0.1-1-0.8-1.5-2.3-1.5c-0.6,0-1.2,0.1-1.6,0.4s-0.6,0.6-0.6,1.1c0,0.4,0.2,0.7,0.5,0.9
		c0.3,0.2,1.1,0.4,2.5,0.8c1.3,0.3,2.3,0.7,2.9,1.1c0.6,0.4,1,1.2,1,2.2s-0.4,1.8-1.2,2.5C423.7,407.6,422.7,407.9,421.3,407.9z"/>
	<path class="st42" d="M430,394.7h-1.9v-2.1h1.9V394.7z M430,407.7h-1.9v-10.9h1.9V407.7z"/>
	<path class="st42" d="M434.8,398.2c1-1.1,2-1.6,3.3-1.6c2.5,0,3.7,1.3,3.7,4v7.1h-2v-7c0-0.9-0.2-1.5-0.5-1.9
		c-0.3-0.4-0.8-0.6-1.6-0.6c-1,0-2,0.6-3,1.7v7.8h-1.9v-10.9h1.9v1.4H434.8z"/>
	<path class="st42" d="M453.5,406.8c0,3.5-1.6,5.3-4.7,5.3c-1.4,0-2.4-0.3-3.2-0.9c-0.8-0.6-1.2-1.4-1.2-2.4h2
		c0,1.2,0.8,1.8,2.4,1.8c0.9,0,1.6-0.2,2.1-0.7s0.7-1.5,0.7-2.9v-0.5c-0.9,1-1.9,1.6-3.1,1.6c-1.4,0-2.5-0.5-3.3-1.5
		s-1.2-2.4-1.2-4.1c0-1.8,0.4-3.2,1.3-4.2s2-1.6,3.3-1.6c1.2,0,2.2,0.4,3,1.1v-1h1.9L453.5,406.8L453.5,406.8z M451.5,404.5v-5.2
		c-0.8-0.9-1.8-1.3-2.9-1.3c-0.8,0-1.5,0.4-2,1.1c-0.5,0.7-0.7,1.8-0.7,3.2c0,1.3,0.2,2.4,0.7,3.1c0.5,0.7,1.1,1,1.9,1
		C449.6,406.4,450.6,405.8,451.5,404.5z"/>
	<path class="st42" d="M458.3,407.7h-1.9v-15h1.9V407.7z"/>
	<path class="st42" d="M465.9,407.9c-1.6,0-2.9-0.5-3.9-1.5c-1-1-1.5-2.4-1.5-4.2c0-1.8,0.5-3.2,1.4-4.2s2.2-1.5,3.7-1.5
		c1.6,0,2.8,0.5,3.7,1.5c0.9,1,1.4,2.4,1.4,4.2v0.5h-8.3c0.1,1.3,0.4,2.2,1,2.8c0.6,0.6,1.4,0.9,2.3,0.9c0.7,0,1.3-0.2,1.8-0.5
		c0.5-0.3,0.8-0.8,0.9-1.5h2c-0.2,1.1-0.7,2-1.5,2.6S467.1,407.9,465.9,407.9z M468.7,401.2c-0.2-1-0.5-1.8-1.1-2.3
		c-0.6-0.5-1.2-0.8-2-0.8s-1.4,0.3-2,0.8c-0.6,0.5-0.9,1.3-1.1,2.4h6.2V401.2z"/>
	<path class="st42" d="M485.5,406.5c-1,0.9-2.3,1.4-3.8,1.4c-1.1,0-2-0.3-2.7-0.9c-0.7-0.6-1-1.3-1-2.3c0-2.5,2.2-3.8,6.7-3.8h0.9
		c0-0.8,0-1.3-0.1-1.7c-0.1-0.4-0.3-0.6-0.7-0.9s-1-0.3-1.8-0.3c-1.7,0-2.6,0.6-2.7,1.8h-1.9c0.1-2.2,1.7-3.4,4.7-3.4
		c1.4,0,2.5,0.3,3.3,0.8c0.8,0.5,1.2,1.6,1.2,3.3v7h-1.9v-1H485.5z M485.5,404.8v-2.4h-1.3c-2.8,0-4.2,0.8-4.2,2.3
		c0,0.6,0.2,1,0.6,1.3s1,0.4,1.7,0.4c0.6,0,1.3-0.1,1.8-0.4C484.6,405.7,485.2,405.3,485.5,404.8z"/>
	<path class="st42" d="M492.3,398.1c0.9-1,1.9-1.5,3.1-1.5c1.4,0,2.5,0.5,3.3,1.5c0.8,1,1.2,2.4,1.2,4.1c0,1.8-0.4,3.2-1.3,4.2
		s-2,1.6-3.3,1.6c-1.2,0-2.2-0.4-3-1.1v5h-1.9v-15.1h1.9L492.3,398.1L492.3,398.1z M492.3,405.1c0.8,0.9,1.8,1.3,2.9,1.3
		c0.8,0,1.5-0.4,2-1.1s0.7-1.8,0.7-3.2c0-1.3-0.2-2.4-0.7-3c-0.5-0.7-1.1-1-1.9-1c-1.1,0-2.1,0.6-2.9,1.9v5.1H492.3z"/>
	<path class="st42" d="M504.1,398.1c0.9-1,1.9-1.5,3.1-1.5c1.4,0,2.5,0.5,3.3,1.5s1.2,2.4,1.2,4.1c0,1.8-0.4,3.2-1.3,4.2
		s-2,1.6-3.3,1.6c-1.2,0-2.2-0.4-3-1.1v5h-1.9v-15.1h1.9L504.1,398.1L504.1,398.1z M504.1,405.1c0.8,0.9,1.8,1.3,2.9,1.3
		c0.8,0,1.5-0.4,2-1.1s0.7-1.8,0.7-3.2c0-1.3-0.2-2.4-0.7-3c-0.5-0.7-1.1-1-1.9-1c-1.1,0-2.1,0.6-2.9,1.9v5.1H504.1z"/>
	<path class="st42" d="M516.5,407.7h-2.1v-2.1h2.1V407.7z"/>
</g>
</svg>
