<?xml version="1.0" encoding="UTF-8" standalone="no"?>
<!DOCTYPE svg PUBLIC "-//W3C//DTD SVG 1.1//EN" "http://www.w3.org/Graphics/SVG/1.1/DTD/svg11.dtd">
<!-- Generated by Microsoft Visio, SVG Export admin-info-arch.svg Page-1 -->
<svg xmlns="http://www.w3.org/2000/svg" xmlns:xlink="http://www.w3.org/1999/xlink" xmlns:ev="http://www.w3.org/2001/xml-events"
		xmlns:v="http://schemas.microsoft.com/visio/2003/SVGExtensions/" width="10.8264in" height="5.54165in"
		viewBox="0 0 779.501 398.999" xml:space="preserve" color-interpolation-filters="sRGB" class="st8">
	<v:documentProperties v:langID="1033" v:viewMarkup="false"/>

	<style type="text/css">
	<![CDATA[
		.st1 {fill:#595959;stroke:#fec000;stroke-width:1.5}
		.st2 {fill:#ffffff;font-family:Calibri;font-size:0.833336em;font-weight:bold}
		.st3 {marker-end:url(#mrkr4-21);stroke:#fec000;stroke-linecap:round;stroke-linejoin:round;stroke-width:1.5}
		.st4 {fill:#fec000;fill-opacity:1;stroke:#fec000;stroke-opacity:1;stroke-width:0.45454464074831}
		.st5 {font-size:1em}
		.st6 {fill:none;stroke:none;stroke-linecap:round;stroke-linejoin:round;stroke-width:0.75}
		.st7 {fill:#fec000;font-family:Calibri;font-size:1.5em;font-weight:bold}
		.st8 {fill:none;fill-rule:evenodd;font-size:12px;overflow:visible;stroke-linecap:square;stroke-miterlimit:3}
	]]>
	</style>

	<defs id="Markers">
		<g id="lend4">
			<path d="M 2 1 L 0 0 L 2 -1 L 2 1 " style="stroke:none"/>
		</g>
		<marker id="mrkr4-21" class="st4" v:arrowType="4" v:arrowSize="1" v:setback="0" refX="-0" orient="auto"
				markerUnits="strokeWidth" overflow="visible">
			<use xlink:href="#lend4" transform="scale(-2.2000039387852,-2.2000039387852) "/>
		</marker>
	</defs>
	<g v:mID="0" v:index="1" v:groupContext="foregroundPage">
		<title>Page-1</title>
		<v:pageProperties v:drawingScale="1" v:pageScale="1" v:drawingUnits="0" v:shadowOffsetX="8.99997"
				v:shadowOffsetY="-8.99997"/>
		<v:layer v:name="Connector" v:index="0"/>
		<g id="shape1-1" v:mID="1" v:groupContext="shape" transform="translate(343.753,-370.499)">
			<title>Rectangle</title>
			<desc>Home</desc>
			<v:userDefs>
				<v:ud v:nameU="visVersion" v:val="VT0(15):26"/>
			</v:userDefs>
			<v:textBlock v:margins="rect(3.99999,3.99999,3.99999,3.99999)"/>
			<v:textRect cx="42.7499" cy="385.498" width="85.5" height="26.9999"/>
			<rect x="0" y="371.999" width="85.4997" height="26.9999" class="st1"/>
			<text x="30.32" y="388.5" class="st2" v:langID="1033"><v:paragraph v:horizAlign="1"/><v:tabList/>Home</text>		</g>
		<g id="shape2-4" v:mID="2" v:groupContext="shape" transform="translate(175.003,-316.499)">
			<title>Rectangle.2</title>
			<desc>Login</desc>
			<v:userDefs>
				<v:ud v:nameU="visVersion" v:val="VT0(15):26"/>
			</v:userDefs>
			<v:textBlock v:margins="rect(3.99999,3.99999,3.99999,3.99999)"/>
			<v:textRect cx="42.7499" cy="385.498" width="85.5" height="26.9999"/>
			<rect x="0" y="371.999" width="85.4997" height="26.9999" class="st1"/>
			<text x="31.67" y="388.5" class="st2" v:langID="1033"><v:paragraph v:horizAlign="1"/><v:tabList/>Login</text>		</g>
		<g id="shape3-7" v:mID="3" v:groupContext="shape" transform="translate(512.502,-316.499)">
			<title>Rectangle.3</title>
			<desc>Create Account</desc>
			<v:userDefs>
				<v:ud v:nameU="visVersion" v:val="VT0(15):26"/>
			</v:userDefs>
			<v:textBlock v:margins="rect(3.99999,3.99999,3.99999,3.99999)"/>
			<v:textRect cx="42.7499" cy="385.498" width="85.5" height="26.9999"/>
			<rect x="0" y="371.999" width="85.4997" height="26.9999" class="st1"/>
			<text x="10.96" y="388.5" class="st2" v:langID="1033"><v:paragraph v:horizAlign="1"/><v:tabList/>Create Account</text>		</g>
		<g id="shape4-10" v:mID="4" v:groupContext="shape" transform="translate(6.25402,-273.749)">
			<title>Rectangle.4</title>
			<desc>Forgot Password</desc>
			<v:userDefs>
				<v:ud v:nameU="visVersion" v:val="VT0(15):26"/>
			</v:userDefs>
			<v:textBlock v:margins="rect(3.99999,3.99999,3.99999,3.99999)"/>
			<v:textRect cx="42.7499" cy="385.498" width="85.5" height="26.9999"/>
			<rect x="0" y="371.999" width="85.4997" height="26.9999" class="st1"/>
			<text x="8.07" y="388.5" class="st2" v:langID="1033"><v:paragraph v:horizAlign="1"/><v:tabList/>Forgot Password</text>		</g>
		<g id="shape5-13" v:mID="5" v:groupContext="shape" transform="translate(343.753,-273.749)">
			<title>Rectangle.5</title>
			<desc>Dashboard</desc>
			<v:userDefs>
				<v:ud v:nameU="visVersion" v:val="VT0(15):26"/>
			</v:userDefs>
			<v:textBlock v:margins="rect(3.99999,3.99999,3.99999,3.99999)"/>
			<v:textRect cx="42.7499" cy="385.498" width="85.5" height="26.9999"/>
			<rect x="0" y="371.999" width="85.4997" height="26.9999" class="st1"/>
			<text x="20.15" y="388.5" class="st2" v:langID="1033"><v:paragraph v:horizAlign="1"/><v:tabList/>Dashboard</text>		</g>
		<g id="shape6-16" v:mID="6" v:groupContext="shape" v:layerMember="0" transform="translate(217.753,-343.499)">
			<title>Dynamic connector</title>
			<path d="M168.75 372 L168.75 385.5 L0 385.5 L0 392.4 L0 399" class="st3"/>
		</g>
		<g id="shape7-22" v:mID="7" v:groupContext="shape" v:layerMember="0" transform="translate(386.503,-343.499)">
			<title>Dynamic connector.8</title>
			<path d="M0 372 L0 385.5 L168.75 385.5 L168.75 392.4 L168.75 399" class="st3"/>
		</g>
		<g id="shape8-27" v:mID="8" v:groupContext="shape" v:layerMember="0" transform="translate(49.0039,-300.749)">
			<title>Dynamic connector.12</title>
			<path d="M126 369.75 L0 369.75 L0 392.4 L0 399" class="st3"/>
		</g>
		<g id="shape9-32" v:mID="9" v:groupContext="shape" v:layerMember="0" transform="translate(260.503,-300.749)">
			<title>Dynamic connector.13</title>
			<path d="M0 369.75 L126 369.75 L126 392.4 L126 399" class="st3"/>
		</g>
		<g id="shape10-37" v:mID="10" v:groupContext="shape" transform="translate(268.378,-219.749)">
			<title>Rectangle.14</title>
			<desc>Orders</desc>
			<v:userDefs>
				<v:ud v:nameU="visVersion" v:val="VT0(15):26"/>
			</v:userDefs>
			<v:textBlock v:margins="rect(3.99999,3.99999,3.99999,3.99999)"/>
			<v:textRect cx="42.7499" cy="385.498" width="85.5" height="26.9999"/>
			<rect x="0" y="371.999" width="85.4997" height="26.9999" class="st1"/>
			<text x="28.62" y="388.5" class="st2" v:langID="1033"><v:paragraph v:horizAlign="1"/><v:tabList/>Orders</text>		</g>
		<g id="shape11-40" v:mID="11" v:groupContext="shape" transform="translate(144.629,-219.749)">
			<title>Rectangle.15</title>
			<desc>Reviews</desc>
			<v:userDefs>
				<v:ud v:nameU="visVersion" v:val="VT0(15):26"/>
			</v:userDefs>
			<v:textBlock v:margins="rect(3.99999,3.99999,3.99999,3.99999)"/>
			<v:textRect cx="42.7499" cy="385.498" width="85.5" height="26.9999"/>
			<rect x="0" y="371.999" width="85.4997" height="26.9999" class="st1"/>
			<text x="25.59" y="388.5" class="st2" v:langID="1033"><v:paragraph v:horizAlign="1"/><v:tabList/>Reviews</text>		</g>
		<g id="shape12-43" v:mID="12" v:groupContext="shape" transform="translate(20.879,-219.749)">
			<title>Rectangle.16</title>
			<desc>Products</desc>
			<v:userDefs>
				<v:ud v:nameU="visVersion" v:val="VT0(15):26"/>
			</v:userDefs>
			<v:textBlock v:margins="rect(3.99999,3.99999,3.99999,3.99999)"/>
			<v:textRect cx="42.7499" cy="385.498" width="85.5" height="26.9999"/>
			<rect x="0" y="371.999" width="85.4997" height="26.9999" class="st1"/>
			<text x="24.44" y="388.5" class="st2" v:langID="1033"><v:paragraph v:horizAlign="1"/><v:tabList/>Products</text>		</g>
		<g id="shape13-46" v:mID="13" v:groupContext="shape" transform="translate(427.003,-219.749)">
			<title>Rectangle.18</title>
			<desc>Complaints</desc>
			<v:userDefs>
				<v:ud v:nameU="visVersion" v:val="VT0(15):26"/>
			</v:userDefs>
			<v:textBlock v:margins="rect(3.99999,3.99999,3.99999,3.99999)"/>
			<v:textRect cx="42.7499" cy="385.498" width="85.5" height="26.9999"/>
			<rect x="0" y="371.999" width="85.4997" height="26.9999" class="st1"/>
			<text x="19.33" y="388.5" class="st2" v:langID="1033"><v:paragraph v:horizAlign="1"/><v:tabList/>Complaints</text>		</g>
		<g id="shape14-49" v:mID="14" v:groupContext="shape" transform="translate(681.252,-219.749)">
			<title>Rectangle.19</title>
			<desc>Profile</desc>
			<v:userDefs>
				<v:ud v:nameU="visVersion" v:val="VT0(15):26"/>
			</v:userDefs>
			<v:textBlock v:margins="rect(3.99999,3.99999,3.99999,3.99999)"/>
			<v:textRect cx="42.7499" cy="385.498" width="85.5" height="26.9999"/>
			<rect x="0" y="371.999" width="85.4997" height="26.9999" class="st1"/>
			<text x="29.07" y="388.5" class="st2" v:langID="1033"><v:paragraph v:horizAlign="1"/><v:tabList/>Profile</text>		</g>
		<g id="shape15-52" v:mID="15" v:groupContext="shape" v:layerMember="0" transform="translate(63.6238,-246.749)">
			<title>Dynamic connector.26</title>
			<path d="M322.88 372 L322.88 385.5 L0 385.5 L0 392.4 L0 399" class="st3"/>
		</g>
		<g id="shape16-57" v:mID="16" v:groupContext="shape" v:layerMember="0" transform="translate(187.373,-246.749)">
			<title>Dynamic connector.27</title>
			<path d="M199.13 372 L199.13 385.5 L0 385.5 L0 392.4 L0 399" class="st3"/>
		</g>
		<g id="shape17-62" v:mID="17" v:groupContext="shape" v:layerMember="0" transform="translate(311.123,-246.749)">
			<title>Dynamic connector.28</title>
			<path d="M75.38 372 L75.38 385.5 L0 385.5 L0 392.4 L0 399" class="st3"/>
		</g>
		<g id="shape18-67" v:mID="18" v:groupContext="shape" v:layerMember="0" transform="translate(386.503,-246.749)">
			<title>Dynamic connector.31</title>
			<path d="M0 372 L0 385.5 L337.5 385.5 L337.5 392.4 L337.5 399" class="st3"/>
		</g>
		<g id="shape19-72" v:mID="19" v:groupContext="shape" transform="translate(555.252,-219.749)">
			<title>Rectangle.36</title>
			<desc>Users</desc>
			<v:userDefs>
				<v:ud v:nameU="visVersion" v:val="VT0(15):26"/>
			</v:userDefs>
			<v:textBlock v:margins="rect(3.99999,3.99999,3.99999,3.99999)"/>
			<v:textRect cx="42.7499" cy="385.498" width="85.5" height="26.9999"/>
			<rect x="0" y="371.999" width="85.4997" height="26.9999" class="st1"/>
			<text x="31.2" y="388.5" class="st2" v:langID="1033"><v:paragraph v:horizAlign="1"/><v:tabList/>Users</text>		</g>
		<g id="shape20-75" v:mID="20" v:groupContext="shape" v:layerMember="0" transform="translate(386.503,-246.749)">
			<title>Dynamic connector.37</title>
			<path d="M0 372 L0 385.5 L211.5 385.5 L211.5 392.4 L211.5 399" class="st3"/>
		</g>
		<g id="shape21-80" v:mID="21" v:groupContext="shape" v:layerMember="0" transform="translate(386.503,-246.749)">
			<title>Dynamic connector.38</title>
			<path d="M0 372 L0 385.5 L83.25 385.5 L83.25 392.4 L83.25 399" class="st3"/>
		</g>
		<g id="shape22-85" v:mID="22" v:groupContext="shape" transform="translate(29.8789,-165.749)">
			<title>Rectangle.39</title>
			<desc>Add Products</desc>
			<v:userDefs>
				<v:ud v:nameU="visVersion" v:val="VT0(15):26"/>
			</v:userDefs>
			<v:textBlock v:margins="rect(3.99999,3.99999,3.99999,3.99999)"/>
			<v:textRect cx="42.7499" cy="385.498" width="85.5" height="26.9999"/>
			<rect x="0" y="371.999" width="85.4997" height="26.9999" class="st1"/>
			<text x="14.91" y="388.5" class="st2" v:langID="1033"><v:paragraph v:horizAlign="1"/><v:tabList/>Add Products</text>		</g>
		<g id="shape23-88" v:mID="23" v:groupContext="shape" transform="translate(29.8789,-127.5)">
			<title>Rectangle.40</title>
			<desc>Stop Products</desc>
			<v:userDefs>
				<v:ud v:nameU="visVersion" v:val="VT0(15):26"/>
			</v:userDefs>
			<v:textBlock v:margins="rect(3.99999,3.99999,3.99999,3.99999)"/>
			<v:textRect cx="42.7499" cy="385.498" width="85.5" height="26.9999"/>
			<rect x="0" y="371.999" width="85.4997" height="26.9999" class="st1"/>
			<text x="13.84" y="388.5" class="st2" v:langID="1033"><v:paragraph v:horizAlign="1"/><v:tabList/>Stop Products</text>		</g>
		<g id="shape24-91" v:mID="24" v:groupContext="shape" transform="translate(29.8789,-89.2497)">
			<title>Rectangle.41</title>
			<desc>Active Products</desc>
			<v:userDefs>
				<v:ud v:nameU="visVersion" v:val="VT0(15):26"/>
			</v:userDefs>
			<v:textBlock v:margins="rect(3.99999,3.99999,3.99999,3.99999)"/>
			<v:textRect cx="42.7499" cy="385.498" width="85.5" height="26.9999"/>
			<rect x="0" y="371.999" width="85.4997" height="26.9999" class="st1"/>
			<text x="10.34" y="388.5" class="st2" v:langID="1033"><v:paragraph v:horizAlign="1"/><v:tabList/>Active Products</text>		</g>
		<g id="shape25-94" v:mID="25" v:groupContext="shape" transform="translate(153.629,-165.749)">
			<title>Rectangle.42</title>
			<desc>Reviews List</desc>
			<v:userDefs>
				<v:ud v:nameU="visVersion" v:val="VT0(15):26"/>
			</v:userDefs>
			<v:textBlock v:margins="rect(3.99999,3.99999,3.99999,3.99999)"/>
			<v:textRect cx="42.7499" cy="385.498" width="85.5" height="26.9999"/>
			<rect x="0" y="371.999" width="85.4997" height="26.9999" class="st1"/>
			<text x="17.39" y="388.5" class="st2" v:langID="1033"><v:paragraph v:horizAlign="1"/><v:tabList/>Reviews List</text>		</g>
		<g id="shape26-97" v:mID="26" v:groupContext="shape" transform="translate(153.629,-127.5)">
			<title>Rectangle.43</title>
			<desc>Approve Reviews</desc>
			<v:userDefs>
				<v:ud v:nameU="visVersion" v:val="VT0(15):26"/>
			</v:userDefs>
			<v:textBlock v:margins="rect(3.99999,3.99999,3.99999,3.99999)"/>
			<v:textRect cx="42.7499" cy="385.498" width="85.5" height="26.9999"/>
			<rect x="0" y="371.999" width="85.4997" height="26.9999" class="st1"/>
			<text x="6.71" y="388.5" class="st2" v:langID="1033"><v:paragraph v:horizAlign="1"/><v:tabList/>Approve Reviews</text>		</g>
		<g id="shape27-100" v:mID="27" v:groupContext="shape" transform="translate(153.629,-89.2497)">
			<title>Rectangle.44</title>
			<desc>Reject Reviews</desc>
			<v:userDefs>
				<v:ud v:nameU="visVersion" v:val="VT0(15):26"/>
			</v:userDefs>
			<v:textBlock v:margins="rect(3.99999,3.99999,3.99999,3.99999)"/>
			<v:textRect cx="42.7499" cy="385.498" width="85.5" height="26.9999"/>
			<rect x="0" y="371.999" width="85.4997" height="26.9999" class="st1"/>
			<text x="11.5" y="388.5" class="st2" v:langID="1033"><v:paragraph v:horizAlign="1"/><v:tabList/>Reject Reviews</text>		</g>
		<g id="shape28-103" v:mID="28" v:groupContext="shape" transform="translate(277.378,-165.749)">
			<title>Rectangle.45</title>
			<desc>Orders List</desc>
			<v:userDefs>
				<v:ud v:nameU="visVersion" v:val="VT0(15):26"/>
			</v:userDefs>
			<v:textBlock v:margins="rect(3.99999,3.99999,3.99999,3.99999)"/>
			<v:textRect cx="42.7499" cy="385.498" width="85.5" height="26.9999"/>
			<rect x="0" y="371.999" width="85.4997" height="26.9999" class="st1"/>
			<text x="20.42" y="388.5" class="st2" v:langID="1033"><v:paragraph v:horizAlign="1"/><v:tabList/>Orders List</text>		</g>
		<g id="shape29-106" v:mID="29" v:groupContext="shape" transform="translate(277.378,-127.5)">
			<title>Rectangle.46</title>
			<desc>Approve Orders</desc>
			<v:userDefs>
				<v:ud v:nameU="visVersion" v:val="VT0(15):26"/>
			</v:userDefs>
			<v:textBlock v:margins="rect(3.99999,3.99999,3.99999,3.99999)"/>
			<v:textRect cx="42.7499" cy="385.498" width="85.5" height="26.9999"/>
			<rect x="0" y="371.999" width="85.4997" height="26.9999" class="st1"/>
			<text x="9.74" y="388.5" class="st2" v:langID="1033"><v:paragraph v:horizAlign="1"/><v:tabList/>Approve Orders</text>		</g>
		<g id="shape30-109" v:mID="30" v:groupContext="shape" transform="translate(277.378,-89.2497)">
			<title>Rectangle.47</title>
			<desc>Reject Orders</desc>
			<v:userDefs>
				<v:ud v:nameU="visVersion" v:val="VT0(15):26"/>
			</v:userDefs>
			<v:textBlock v:margins="rect(3.99999,3.99999,3.99999,3.99999)"/>
			<v:textRect cx="42.7499" cy="385.498" width="85.5" height="26.9999"/>
			<rect x="0" y="371.999" width="85.4997" height="26.9999" class="st1"/>
			<text x="14.54" y="388.5" class="st2" v:langID="1033"><v:paragraph v:horizAlign="1"/><v:tabList/>Reject Orders</text>		</g>
		<g id="shape31-112" v:mID="31" v:groupContext="shape" v:layerMember="0" transform="translate(7.37901,-179.249)">
			<title>Dynamic connector.49</title>
			<path d="M13.5 345 L0 345 L0 399 L15.9 399 L22.5 399" class="st3"/>
		</g>
		<g id="shape32-117" v:mID="32" v:groupContext="shape" v:layerMember="0" transform="translate(7.37901,-141)">
			<title>Dynamic connector.50</title>
			<path d="M13.5 306.75 L0 306.75 L0 399 L15.9 399 L22.5 399" class="st3"/>
		</g>
		<g id="shape33-122" v:mID="33" v:groupContext="shape" v:layerMember="0" transform="translate(7.37901,-102.75)">
			<title>Dynamic connector.51</title>
			<path d="M13.5 268.5 L0 268.5 L0 399 L15.9 399 L22.5 399" class="st3"/>
		</g>
		<g id="shape34-127" v:mID="34" v:groupContext="shape" v:layerMember="0" transform="translate(131.129,-179.249)">
			<title>Dynamic connector.52</title>
			<path d="M13.5 345 L0 345 L0 399 L15.9 399 L22.5 399" class="st3"/>
		</g>
		<g id="shape35-132" v:mID="35" v:groupContext="shape" v:layerMember="0" transform="translate(131.129,-102.75)">
			<title>Dynamic connector.53</title>
			<path d="M13.5 268.5 L0 268.5 L0 399 L15.9 399 L22.5 399" class="st3"/>
		</g>
		<g id="shape36-137" v:mID="36" v:groupContext="shape" v:layerMember="0" transform="translate(131.129,-141)">
			<title>Dynamic connector.54</title>
			<path d="M13.5 306.75 L0 306.75 L0 399 L15.9 399 L22.5 399" class="st3"/>
		</g>
		<g id="shape37-142" v:mID="37" v:groupContext="shape" v:layerMember="0" transform="translate(254.878,-179.249)">
			<title>Dynamic connector.55</title>
			<path d="M13.5 345 L0 345 L0 399 L15.9 399 L22.5 399" class="st3"/>
		</g>
		<g id="shape38-147" v:mID="38" v:groupContext="shape" v:layerMember="0" transform="translate(254.878,-102.75)">
			<title>Dynamic connector.58</title>
			<path d="M13.5 268.5 L0 268.5 L0 399 L15.9 399 L22.5 399" class="st3"/>
		</g>
		<g id="shape39-152" v:mID="39" v:groupContext="shape" v:layerMember="0" transform="translate(254.878,-141)">
			<title>Dynamic connector.59</title>
			<path d="M13.5 306.75 L0 306.75 L0 399 L15.9 399 L22.5 399" class="st3"/>
		</g>
		<g id="shape40-157" v:mID="40" v:groupContext="shape" transform="translate(440.503,-165.749)">
			<title>Rectangle.60</title>
			<desc>View Complaints</desc>
			<v:userDefs>
				<v:ud v:nameU="visVersion" v:val="VT0(15):26"/>
			</v:userDefs>
			<v:textBlock v:margins="rect(3.99999,3.99999,3.99999,3.99999)"/>
			<v:textRect cx="42.7499" cy="385.498" width="85.5" height="26.9999"/>
			<rect x="0" y="371.999" width="85.4997" height="26.9999" class="st1"/>
			<text x="7.77" y="388.5" class="st2" v:langID="1033"><v:paragraph v:horizAlign="1"/><v:tabList/>View Complaints</text>		</g>
		<g id="shape41-160" v:mID="41" v:groupContext="shape" transform="translate(440.503,-127.5)">
			<title>Rectangle.61</title>
			<desc>Respond Complaints</desc>
			<v:userDefs>
				<v:ud v:nameU="visVersion" v:val="VT0(15):26"/>
			</v:userDefs>
			<v:textBlock v:margins="rect(3.99999,3.99999,3.99999,3.99999)"/>
			<v:textRect cx="42.7499" cy="385.498" width="85.5" height="26.9999"/>
			<rect x="0" y="371.999" width="85.4997" height="26.9999" class="st1"/>
			<text x="24.69" y="382.5" class="st2" v:langID="1033"><v:paragraph v:horizAlign="1"/><v:tabList/>Respond <tspan
						x="19.33" dy="1.2em" class="st5">Complaints</tspan></text>		</g>
		<g id="shape42-164" v:mID="42" v:groupContext="shape" transform="translate(568.752,-165.749)">
			<title>Rectangle.63</title>
			<desc>Add User</desc>
			<v:userDefs>
				<v:ud v:nameU="visVersion" v:val="VT0(15):26"/>
			</v:userDefs>
			<v:textBlock v:margins="rect(3.99999,3.99999,3.99999,3.99999)"/>
			<v:textRect cx="42.7499" cy="385.498" width="85.5" height="26.9999"/>
			<rect x="0" y="371.999" width="85.4997" height="26.9999" class="st1"/>
			<text x="23.67" y="388.5" class="st2" v:langID="1033"><v:paragraph v:horizAlign="1"/><v:tabList/>Add User</text>		</g>
		<g id="shape43-167" v:mID="43" v:groupContext="shape" transform="translate(568.752,-127.5)">
			<title>Rectangle.64</title>
			<desc>View User List</desc>
			<v:userDefs>
				<v:ud v:nameU="visVersion" v:val="VT0(15):26"/>
			</v:userDefs>
			<v:textBlock v:margins="rect(3.99999,3.99999,3.99999,3.99999)"/>
			<v:textRect cx="42.7499" cy="385.498" width="85.5" height="26.9999"/>
			<rect x="0" y="371.999" width="85.4997" height="26.9999" class="st1"/>
			<text x="13.44" y="388.5" class="st2" v:langID="1033"><v:paragraph v:horizAlign="1"/><v:tabList/>View User List</text>		</g>
		<g id="shape44-170" v:mID="44" v:groupContext="shape" transform="translate(568.752,-89.2497)">
			<title>Rectangle.65</title>
			<desc>View Seller List</desc>
			<v:userDefs>
				<v:ud v:nameU="visVersion" v:val="VT0(15):26"/>
			</v:userDefs>
			<v:textBlock v:margins="rect(3.99999,3.99999,3.99999,3.99999)"/>
			<v:textRect cx="42.7499" cy="385.498" width="85.5" height="26.9999"/>
			<rect x="0" y="371.999" width="85.4997" height="26.9999" class="st1"/>
			<text x="11.36" y="388.5" class="st2" v:langID="1033"><v:paragraph v:horizAlign="1"/><v:tabList/>View Seller List</text>		</g>
		<g id="shape45-173" v:mID="45" v:groupContext="shape" transform="translate(692.502,-165.749)">
			<title>Rectangle.66</title>
			<desc>View Profile</desc>
			<v:userDefs>
				<v:ud v:nameU="visVersion" v:val="VT0(15):26"/>
			</v:userDefs>
			<v:textBlock v:margins="rect(3.99999,3.99999,3.99999,3.99999)"/>
			<v:textRect cx="42.7499" cy="385.498" width="85.5" height="26.9999"/>
			<rect x="0" y="371.999" width="85.4997" height="26.9999" class="st1"/>
			<text x="17.51" y="388.5" class="st2" v:langID="1033"><v:paragraph v:horizAlign="1"/><v:tabList/>View Profile</text>		</g>
		<g id="shape46-176" v:mID="46" v:groupContext="shape" transform="translate(692.502,-127.5)">
			<title>Rectangle.67</title>
			<desc>Edit Profile</desc>
			<v:userDefs>
				<v:ud v:nameU="visVersion" v:val="VT0(15):26"/>
			</v:userDefs>
			<v:textBlock v:margins="rect(3.99999,3.99999,3.99999,3.99999)"/>
			<v:textRect cx="42.7499" cy="385.498" width="85.5" height="26.9999"/>
			<rect x="0" y="371.999" width="85.4997" height="26.9999" class="st1"/>
			<text x="19.85" y="388.5" class="st2" v:langID="1033"><v:paragraph v:horizAlign="1"/><v:tabList/>Edit Profile</text>		</g>
		<g id="shape47-179" v:mID="47" v:groupContext="shape" transform="translate(692.502,-89.2497)">
			<title>Rectangle.68</title>
			<desc>Reset Password</desc>
			<v:userDefs>
				<v:ud v:nameU="visVersion" v:val="VT0(15):26"/>
			</v:userDefs>
			<v:textBlock v:margins="rect(3.99999,3.99999,3.99999,3.99999)"/>
			<v:textRect cx="42.7499" cy="385.498" width="85.5" height="26.9999"/>
			<rect x="0" y="371.999" width="85.4997" height="26.9999" class="st1"/>
			<text x="10.05" y="388.5" class="st2" v:langID="1033"><v:paragraph v:horizAlign="1"/><v:tabList/>Reset Password</text>		</g>
		<g id="shape48-182" v:mID="48" v:groupContext="shape" v:layerMember="0" transform="translate(413.503,-179.249)">
			<title>Dynamic connector.69</title>
			<path d="M13.5 345 L0 345 L0 399 L20.4 399 L27 399" class="st3"/>
		</g>
		<g id="shape49-187" v:mID="49" v:groupContext="shape" v:layerMember="0" transform="translate(413.503,-141)">
			<title>Dynamic connector.70</title>
			<path d="M13.5 306.75 L0 306.75 L0 399 L20.4 399 L27 399" class="st3"/>
		</g>
		<g id="shape50-192" v:mID="50" v:groupContext="shape" v:layerMember="0" transform="translate(541.752,-102.75)">
			<title>Dynamic connector.76</title>
			<path d="M13.5 268.5 L0 268.5 L0 399 L20.4 399 L27 399" class="st3"/>
		</g>
		<g id="shape51-197" v:mID="51" v:groupContext="shape" v:layerMember="0" transform="translate(541.752,-179.249)">
			<title>Dynamic connector.77</title>
			<path d="M13.5 345 L0 345 L0 399 L20.4 399 L27 399" class="st3"/>
		</g>
		<g id="shape52-202" v:mID="52" v:groupContext="shape" v:layerMember="0" transform="translate(541.752,-141)">
			<title>Dynamic connector.78</title>
			<path d="M13.5 306.75 L0 306.75 L0 399 L20.4 399 L27 399" class="st3"/>
		</g>
		<g id="shape53-207" v:mID="53" v:groupContext="shape" v:layerMember="0" transform="translate(667.747,-102.75)">
			<title>Dynamic connector.79</title>
			<path d="M13.5 268.5 L0 268.5 L0 399 L18.15 399 L24.75 399" class="st3"/>
		</g>
		<g id="shape54-212" v:mID="54" v:groupContext="shape" v:layerMember="0" transform="translate(667.747,-141)">
			<title>Dynamic connector.80</title>
			<path d="M13.5 306.75 L0 306.75 L0 399 L18.15 399 L24.75 399" class="st3"/>
		</g>
		<g id="shape55-217" v:mID="55" v:groupContext="shape" v:layerMember="0" transform="translate(667.747,-179.249)">
			<title>Dynamic connector.81</title>
			<path d="M13.5 345 L0 345 L0 399 L18.15 399 L24.75 399" class="st3"/>
		</g>
		<g id="shape56-222" v:mID="56" v:groupContext="shape" transform="translate(397.753,-1.5)">
			<title>Rectangle.82</title>
			<desc>Total Orders</desc>
			<v:userDefs>
				<v:ud v:nameU="visVersion" v:val="VT0(15):26"/>
			</v:userDefs>
			<v:textBlock v:margins="rect(3.99999,3.99999,3.99999,3.99999)"/>
			<v:textRect cx="42.7499" cy="385.498" width="85.5" height="26.9999"/>
			<rect x="0" y="371.999" width="85.4997" height="26.9999" class="st1"/>
			<text x="16.9" y="388.5" class="st2" v:langID="1033"><v:paragraph v:horizAlign="1"/><v:tabList/>Total Orders</text>		</g>
		<g id="shape57-225" v:mID="57" v:groupContext="shape" transform="translate(285.253,-1.5)">
			<title>Rectangle.83</title>
			<desc>Top Contributors</desc>
			<v:userDefs>
				<v:ud v:nameU="visVersion" v:val="VT0(15):26"/>
			</v:userDefs>
			<v:textBlock v:margins="rect(3.99999,3.99999,3.99999,3.99999)"/>
			<v:textRect cx="42.7499" cy="385.498" width="85.5" height="26.9999"/>
			<rect x="0" y="371.999" width="85.4997" height="26.9999" class="st1"/>
			<text x="7.46" y="388.5" class="st2" v:langID="1033"><v:paragraph v:horizAlign="1"/><v:tabList/>Top Contributors</text>		</g>
		<g id="shape58-228" v:mID="58" v:groupContext="shape" transform="translate(172.753,-1.5)">
			<title>Rectangle.84</title>
			<desc>View Earnings</desc>
			<v:userDefs>
				<v:ud v:nameU="visVersion" v:val="VT0(15):26"/>
			</v:userDefs>
			<v:textBlock v:margins="rect(3.99999,3.99999,3.99999,3.99999)"/>
			<v:textRect cx="42.7499" cy="385.498" width="85.5" height="26.9999"/>
			<rect x="0" y="371.999" width="85.4997" height="26.9999" class="st1"/>
			<text x="13.55" y="388.5" class="st2" v:langID="1033"><v:paragraph v:horizAlign="1"/><v:tabList/>View Earnings</text>		</g>
		<g id="shape59-231" v:mID="59" v:groupContext="shape" transform="translate(510.252,-1.5)">
			<title>Rectangle.85</title>
			<desc>Total Reviews</desc>
			<v:userDefs>
				<v:ud v:nameU="visVersion" v:val="VT0(15):26"/>
			</v:userDefs>
			<v:textBlock v:margins="rect(3.99999,3.99999,3.99999,3.99999)"/>
			<v:textRect cx="42.7499" cy="385.498" width="85.5" height="26.9999"/>
			<rect x="0" y="371.999" width="85.4997" height="26.9999" class="st1"/>
			<text x="13.86" y="388.5" class="st2" v:langID="1033"><v:paragraph v:horizAlign="1"/><v:tabList/>Total Reviews</text>		</g>
		<g id="shape60-234" v:mID="60" v:groupContext="shape" v:layerMember="0" transform="translate(215.503,-28.4999)">
			<title>Dynamic connector.88</title>
			<path d="M171 153.75 L171 376.5 L0 376.5 L0 392.4 L0 399" class="st3"/>
		</g>
		<g id="shape61-239" v:mID="61" v:groupContext="shape" v:layerMember="0" transform="translate(328.003,-28.4999)">
			<title>Dynamic connector.89</title>
			<path d="M58.5 153.75 L58.5 376.5 L0 376.5 L0 392.4 L0 399" class="st3"/>
		</g>
		<g id="shape62-244" v:mID="62" v:groupContext="shape" v:layerMember="0" transform="translate(386.503,-28.4999)">
			<title>Dynamic connector.90</title>
			<path d="M0 153.75 L0 376.5 L54 376.5 L54 392.4 L54 399" class="st3"/>
		</g>
		<g id="shape63-249" v:mID="63" v:groupContext="shape" v:layerMember="0" transform="translate(386.503,-28.4999)">
			<title>Dynamic connector.91</title>
			<path d="M0 153.75 L0 376.5 L166.5 376.5 L166.5 392.4 L166.5 399" class="st3"/>
		</g>
		<g id="shape64-254" v:mID="64" v:groupContext="shape" transform="translate(1.8,-351.899)">
			<title>Sheet.64</title>
			<desc>Information Architecture Admin</desc>
			<v:textBlock v:margins="rect(4,4,4,4)"/>
			<v:textRect cx="81" cy="376.499" width="162" height="45"/>
			<rect x="0" y="353.999" width="162" height="45" class="st6"/>
			<text x="36.12" y="371.1" class="st7" v:langID="1033"><v:paragraph v:horizAlign="1"/><v:tabList/>Information <tspan
						x="7.77" dy="1.2em" class="st5">Architecture Admin </tspan> </text>		</g>
	</g>
</svg>
