<?xml version="1.0" encoding="utf-8"?>
<!-- Generator: Adobe Illustrator 23.0.1, SVG Export Plug-In . SVG Version: 6.00 Build 0)  -->
<svg version="1.1" id="a6f4e524-a1b8-434a-a0ca-43acb27f4769"
	 xmlns="http://www.w3.org/2000/svg" xmlns:xlink="http://www.w3.org/1999/xlink" x="0px" y="0px" viewBox="0 0 1198.9 740"
	 style="enable-background:new 0 0 1198.9 740;" xml:space="preserve">
<style type="text/css">
	.st0{fill:#7F7F7F;}
	.st1{fill:#FFAA0B;}
	.st2{fill:#464353;}
	.st3{opacity:0.1;fill:#FFAA0B;enable-background:new    ;}
	.st4{fill:#FFFFFF;}
	.st5{fill:#FFFFFF;stroke:#FFFFFF;stroke-miterlimit:10;}
	.st6{opacity:0.5;fill:#FFAA0B;enable-background:new    ;}
	.st7{fill:#504F60;}
	.st8{opacity:0.1;enable-background:new    ;}
	.st9{fill:#3F3D56;}
	.st10{fill:#FFFFFF;stroke:#33313F;stroke-width:3;stroke-miterlimit:10;}
	.st11{fill:none;stroke:#33313F;stroke-width:2;stroke-linecap:round;stroke-miterlimit:10;}
	.st12{fill:#FFFFFF;stroke:#33313F;stroke-width:2;stroke-linecap:round;stroke-miterlimit:10;}
	.st13{fill:none;stroke:#33313F;stroke-width:3;stroke-miterlimit:10;}
	.st14{fill:#FFFFFF;stroke:#33313F;stroke-width:3;stroke-linecap:round;stroke-miterlimit:10;}
	.st15{fill:#33313F;}
	.st16{fill:#65617D;}
	.st17{fill:#FFB8B8;}
	.st18{fill:#2F2E41;}
	.st19{fill:#005B89;}
	.st20{fill:#9F616A;}
	.st21{fill:#CBCBCB;}
	.st22{opacity:0.7;}
	.st23{fill:#2E001E;}
	.st24{fill:#FF2BC2;}
</style>
<title>prototyping process</title>
<ellipse class="st0" cx="310.5" cy="701" rx="202.6" ry="30.7"/>
<path class="st1" d="M307.2,32.3C339.4,4,389.8-1.8,435.7,0.5c144.3,7,274.5,75.9,387.1,153.7c40.8,28.2,80.9,58.6,107.4,97.4
	c53.9,79,37.9,188.5-37,253.6c-25.5,22.2-56.4,39.1-88.1,54.2c-56.4,26.8-117.3,48.2-181.3,54.4c-45.7,4.4-91.9,0.8-137.2-5.3
	c-126.8-17-251.3-54.6-355.6-118.9c-45.8-28.2-88.9-63.3-107.7-108.9s-6.8-103.5,39.9-130.5c19.3-11.2,42.4-16.2,65-21
	c33.3-7,67.1-13.8,97.2-28c31-14.6,67.8-43,61.6-75.4C280.4,91.1,275.1,60.6,307.2,32.3z"/>
<path class="st1" d="M846.3,75.5c5.8,38-10.3,72-10.3,72s-25.4-27.7-31.2-65.7c-3.2-21.3,0.4-41.4,4.2-54.9c1.4-5,6.5-7.9,11.5-6.6
	c2.2,0.6,4.2,2,5.4,4C833.6,36.1,843,54.2,846.3,75.5z"/>
<path class="st1" d="M907.5,108.1c5.7,0,11.4,0.7,16.9,2.1c9.3,2.4,9.5,15.6,0.2,18.2c-5.5,1.6-11.2,2.4-16.9,2.5
	c-20.9,0.2-38-11-38-11S886.6,108.3,907.5,108.1z"/>
<path class="st1" d="M891.3,48c-19.5,21.4-23.6,49.4-23.6,49.4s27.5-6.7,46.9-28.2c9-9.9,14.8-21.3,18.3-30.6
	c1.8-4.8-0.6-10.3-5.4-12.1c-2.4-0.9-5.1-0.8-7.5,0.3C911,31.3,900.3,38,891.3,48z"/>
<path class="st2" d="M467.9,74.2h404.7c9.3,0,16.9,7.6,16.9,16.9v494.3c0,9.3-7.6,16.9-16.9,16.9H467.9c-9.3,0-16.9-7.6-16.9-16.9
	V91.1C451,81.8,458.6,74.2,467.9,74.2z"/>
<rect x="488.9" y="127.5" class="st3" width="362.8" height="421.5"/>
<circle class="st4" cx="670.3" cy="576.8" r="15.4"/>
<path class="st4" d="M670.3,112.4c-4,0-7.3-3.3-7.3-7.3s3.3-7.3,7.3-7.3s7.3,3.3,7.3,7.3l0,0C677.6,109.1,674.3,112.4,670.3,112.4z"
	/>
<path class="st4" d="M670.3,98.3c3.8,0,6.9,3.1,6.9,6.9s-3.1,6.9-6.9,6.9c-3.8,0-6.9-3.1-6.9-6.9l0,0
	C663.4,101.3,666.5,98.3,670.3,98.3 M670.3,97.4c-4.3,0-7.7,3.4-7.8,7.7c0,4.3,3.4,7.7,7.7,7.8c4.3,0,7.7-3.4,7.8-7.7l0,0
	C678,100.9,674.6,97.4,670.3,97.4L670.3,97.4z"/>
<path class="st5" d="M509.4,258.1h67.9c2,0,3.7,1.6,3.7,3.7v95c0,2-1.6,3.7-3.7,3.7h-67.9c-2,0-3.7-1.6-3.7-3.7v-95
	C505.7,259.7,507.4,258.1,509.4,258.1z"/>
<path class="st6" d="M518.9,283.9h49c3.4,0,6.1,2.7,6.1,6.1v20.3c0,3.4-2.7,6.1-6.1,6.1h-49c-3.4,0-6.1-2.7-6.1-6.1V290
	C512.8,286.6,515.5,283.9,518.9,283.9z"/>
<path class="st1" d="M527,329.6h32.7c0.8,0,1.4,0.6,1.4,1.4v2.2c0,0.8-0.6,1.4-1.4,1.4H527c-0.8,0-1.4-0.6-1.4-1.4V331
	C525.5,330.2,526.2,329.6,527,329.6z"/>
<path class="st5" d="M636.6,258.1h67.9c2,0,3.7,1.6,3.7,3.7v95c0,2-1.6,3.7-3.7,3.7h-67.9c-2,0-3.7-1.6-3.7-3.7v-95
	C632.9,259.7,634.6,258.1,636.6,258.1z"/>
<path class="st6" d="M654,274.1h33.6c0.7,0,1.2,0.6,1.2,1.2V292c0,0.7-0.6,1.2-1.2,1.2H654c-0.7,0-1.2-0.6-1.2-1.2v-16.7
	C652.7,274.6,653.3,274.1,654,274.1z"/>
<path class="st1" d="M648.9,311.1h43.2c0.8,0,1.4,0.6,1.4,1.4v2.2c0,0.8-0.6,1.4-1.4,1.4h-43.2c-0.8,0-1.4-0.6-1.4-1.4v-2.2
	C647.5,311.8,648.1,311.1,648.9,311.1z"/>
<path class="st1" d="M648.9,320.5h43.2c0.8,0,1.4,0.6,1.4,1.4v2.2c0,0.8-0.6,1.4-1.4,1.4h-43.2c-0.8,0-1.4-0.6-1.4-1.4V322
	C647.5,321.2,648.1,320.5,648.9,320.5z"/>
<path class="st5" d="M763.3,185.4h67.9c2,0,3.7,1.6,3.7,3.7v95c0,2-1.6,3.7-3.7,3.7h-67.9c-2,0-3.7-1.6-3.7-3.7v-95
	C759.6,187,761.2,185.4,763.3,185.4z"/>
<path class="st6" d="M774,201.3h46.5c0.7,0,1.2,0.6,1.2,1.2v20.4c0,0.7-0.6,1.2-1.2,1.2H774c-0.7,0-1.2-0.6-1.2-1.2v-20.4
	C772.7,201.8,773.3,201.3,774,201.3z"/>
<path class="st6" d="M774,234.5h46.5c0.7,0,1.2,0.6,1.2,1.2v20.4c0,0.7-0.6,1.2-1.2,1.2H774c-0.7,0-1.2-0.6-1.2-1.2v-20.4
	C772.7,235.1,773.3,234.5,774,234.5z"/>
<path class="st1" d="M772.1,275.8h9.5c1.8,0,3.3,1.5,3.3,3.3v0.5c0,1.8-1.5,3.3-3.3,3.3h-9.5c-1.8,0-3.3-1.5-3.3-3.3v-0.5
	C768.8,277.3,770.3,275.8,772.1,275.8z"/>
<path class="st1" d="M792.5,275.8h9.5c1.8,0,3.3,1.5,3.3,3.3v0.5c0,1.8-1.5,3.3-3.3,3.3h-9.5c-1.8,0-3.3-1.5-3.3-3.3v-0.5
	C789.2,277.3,790.7,275.8,792.5,275.8z"/>
<path class="st1" d="M812.8,275.8h9.5c1.8,0,3.3,1.5,3.3,3.3v0.5c0,1.8-1.5,3.3-3.3,3.3h-9.5c-1.8,0-3.3-1.5-3.3-3.3v-0.5
	C809.6,277.3,811,275.8,812.8,275.8z"/>
<path class="st5" d="M763.1,330.8H831c2,0,3.7,1.6,3.7,3.7v95c0,2-1.6,3.7-3.7,3.7h-67.9c-2,0-3.7-1.6-3.7-3.7v-95
	C759.4,332.4,761.1,330.8,763.1,330.8z"/>
<path class="st6" d="M766.5,342.7h20c0.7,0,1.2,0.6,1.2,1.2v20.4c0,0.7-0.6,1.2-1.2,1.2h-20c-0.7,0-1.2-0.6-1.2-1.2V344
	C765.2,343.3,765.8,342.7,766.5,342.7z"/>
<path class="st1" d="M775.5,379.5h43.2c0.8,0,1.4,0.6,1.4,1.4v2.2c0,0.8-0.6,1.4-1.4,1.4h-43.2c-0.8,0-1.4-0.6-1.4-1.4v-2.2
	C774,380.2,774.7,379.5,775.5,379.5z"/>
<path class="st1" d="M775.5,389.7h43.2c0.8,0,1.4,0.6,1.4,1.4v2.2c0,0.8-0.6,1.4-1.4,1.4h-43.2c-0.8,0-1.4-0.6-1.4-1.4v-2.2
	C774,390.3,774.7,389.7,775.5,389.7z"/>
<path class="st1" d="M775.5,399.9h43.2c0.8,0,1.4,0.6,1.4,1.4v2.2c0,0.8-0.6,1.4-1.4,1.4h-43.2c-0.8,0-1.4-0.6-1.4-1.4v-2.2
	C774,400.5,774.7,399.9,775.5,399.9z"/>
<path class="st5" d="M624.3,306.8l-1.2,0.6l-9.3,4.5l-0.9,0.4c-0.2,0.1-0.5,0-0.6-0.2l0,0c0-0.1,0-0.1,0-0.2v-2.7
	c0-0.2-0.2-0.5-0.5-0.5l0,0h-22.7c-0.3,0-0.5-0.2-0.5-0.5v-3.7c0-0.3,0.2-0.5,0.5-0.5h22.7c0.3,0,0.5-0.2,0.5-0.5v-2.7
	c0-0.1,0-0.1,0-0.2c0.1-0.2,0.4-0.3,0.6-0.2l0,0l0.9,0.4l9.3,4.5l1.2,0.6c0.2,0.1,0.3,0.4,0.2,0.6
	C624.4,306.7,624.4,306.8,624.3,306.8z"/>
<path class="st5" d="M750.6,283.8l-0.8,1l-6.1,8.3l-0.5,0.7c-0.2,0.2-0.5,0.2-0.7,0.1l0,0l-0.1-0.1l-1.2-2.3
	c-0.1-0.2-0.4-0.3-0.6-0.2l-20,10.7c-0.2,0.1-0.5,0-0.6-0.2l0,0l-1.8-3.3c-0.1-0.2,0-0.5,0.2-0.6l0,0l20-10.7
	c0.2-0.1,0.3-0.4,0.2-0.6l0,0l-1.3-2.4c0,0-0.1-0.1-0.1-0.2c0-0.2,0.1-0.5,0.4-0.5c0,0,0,0,0.1,0h0.9l10.3-0.4h1.3
	c0.2,0,0.5,0.2,0.5,0.5C750.6,283.6,750.6,283.7,750.6,283.8z"/>
<path class="st5" d="M750.5,327.5h-1.3h-10.3H738c-0.2,0-0.5-0.2-0.5-0.5l0,0c0-0.1,0-0.1,0-0.2l1.1-2.4c0.1-0.2,0-0.5-0.2-0.6l0,0
	L718,314c-0.2-0.1-0.3-0.4-0.2-0.6l1.6-3.4c0.1-0.2,0.4-0.3,0.6-0.2l0,0l20.5,9.8c0.2,0.1,0.5,0,0.6-0.2l1.2-2.4
	c0.1-0.2,0.4-0.3,0.6-0.2c0.1,0,0.1,0.1,0.2,0.1l0.6,0.7l6.4,8.1l0.8,1c0.2,0.2,0.1,0.5,0,0.6C750.7,327.5,750.6,327.5,750.5,327.5z
	"/>
<polygon class="st7" points="376.6,517.5 376.5,520 372.2,673.7 364.8,673.7 368.4,520 368.5,517.2 "/>
<polygon class="st8" points="376.6,517.5 376.5,520 372.2,673.7 364.8,673.7 368.4,520 368.5,517.2 "/>
<polygon class="st7" points="418.9,647.7 413.5,647.7 332,647.5 327.7,647.5 330,640.4 418.4,640.4 "/>
<polygon class="st8" points="376.6,517.5 376.5,520 368.4,520 368.5,517.2 "/>
<rect x="366.1" y="513.8" class="st7" width="13.6" height="5.1"/>
<polygon class="st8" points="332.8,640.4 332,647.5 327.7,647.5 330,640.4 "/>
<polygon class="st7" points="344.4,513.7 344.2,515.9 326.2,694.1 317.9,693.7 336.9,515.9 337.1,513.9 "/>
<polygon class="st8" points="418.9,647.7 413.5,647.7 412.7,640.4 418.4,640.4 "/>
<polygon class="st7" points="427.6,693.7 419.3,694.1 401.3,515.9 401,513.7 408.4,513.9 408.6,515.9 "/>
<rect x="280.3" y="338" class="st4" width="182.5" height="175"/>
<path class="st4" d="M243.8,338h255.7c1.9,0,3.5,1.6,3.5,3.5v167.9c0,1.9-1.6,3.5-3.5,3.5H243.8c-1.9,0-3.5-1.6-3.5-3.5V341.6
	C240.3,339.6,241.9,338,243.8,338z"/>
<path class="st7" d="M375.1,279.5v42.3H368v-42.3c0-2,1.6-3.6,3.6-3.6C373.5,276,375.1,277.5,375.1,279.5L375.1,279.5z"/>
<rect x="368" y="317.9" class="st8" width="7.1" height="3.8"/>
<path class="st7" d="M377.9,320.8v14h-12.7v-14c0-0.9,0.8-1.7,1.7-1.7h9.2C377.1,319.1,377.9,319.8,377.9,320.8L377.9,320.8z"/>
<circle class="st8" cx="371.6" cy="327.9" r="2.7"/>
<circle class="st9" cx="371.6" cy="327.4" r="2.7"/>
<rect x="365.2" y="333" class="st8" width="12.7" height="1.7"/>
<rect x="360" y="335.3" class="st8" width="23.1" height="3.8"/>
<rect x="360" y="334.2" class="st7" width="23.1" height="3.8"/>
<path class="st8" d="M325.8,508.5H421c2.8,0,5.1,2.3,5.1,5.1l0,0l0,0H320.7l0,0l0,0C320.7,510.8,323,508.5,325.8,508.5z"/>
<polygon class="st8" points="337.1,513.9 344.4,513.7 344.2,515.9 336.9,515.9 "/>
<rect x="366.1" y="513.8" class="st8" width="13.6" height="2.1"/>
<polygon class="st8" points="408.6,515.9 401.3,515.9 401,513.7 408.4,513.9 "/>
<path class="st7" d="M325.8,509.7H421c2.8,0,5.1,2.3,5.1,5.1l0,0l0,0H320.7l0,0l0,0C320.7,511.9,323,509.7,325.8,509.7L325.8,509.7z
	"/>
<path class="st10" d="M456.5,358.6c0.7-0.1,1.3,0.4,1.5,1.1c0,0.1,0,0.2,0,0.3c-1.2,11.9-0.4,24.2,0.9,36.1
	c0.6,5.5,1.5,11.2,3.9,15.3c0.3,0.5,0.2,1.2-0.2,1.6c-0.7,0.5-1.5,0.8-2.4,0.7l-38.1,0.2c-0.7,0-1.3-0.6-1.3-1.3c0-0.1,0-0.2,0-0.3
	c3.1-13.1,2.4-27.3,1.2-40.8c-0.6-6.7-1-10.2,4-10.7c5.1-0.5,10.2-0.7,15.4-1.1C442.6,359.5,452.5,359.2,456.5,358.6z"/>
<path class="st10" d="M427.3,436.8c-0.7-0.1-1.3,0.4-1.5,1.1c0,0.1,0,0.2,0,0.3c1.2,11.9,0.4,24.2-0.9,36.1
	c-0.6,5.5-1.5,11.2-3.9,15.3c-0.3,0.5-0.2,1.2,0.2,1.6c0.7,0.5,1.5,0.8,2.4,0.7l38.1,0.2c0.7,0,1.3-0.6,1.3-1.3c0-0.1,0-0.2,0-0.3
	c-3.1-13.1-2.4-27.3-1.2-40.8c0.6-6.7,1-10.2-4-10.7s-10.2-0.7-15.4-1.1C441.2,437.8,431.3,437.5,427.3,436.8z"/>
<path class="st11" d="M438.5,458.8c4.4-0.2,8.9-0.2,13.3,0.2c0.6,0.1,1.1,0.5,1.1,1.1l0.4,3.5c0,0.2,0,0.3-0.1,0.5
	c-0.1,0.1-0.2,0.1-0.3,0.1c-1.9,0.1-3.7-0.2-5.6,0c-1.2,0.1-2.3,0.3-3.4,0.4c-1.9,0.2-3.8,0.2-5.7,0.1c-2.7,0-5.3-0.3-7.9-1
	c0,0,0.2-2.9,0.2-3.2c0-1.3,0-1.5,1.3-1.5L438.5,458.8z"/>
<path class="st11" d="M438.5,474.5c4.4,0.2,8.9,0.2,13.3-0.2c0.6-0.1,1.1-0.5,1.1-1.1l0.4-3.5c0-0.2,0-0.3-0.1-0.5
	c-0.1-0.1-0.2-0.1-0.3-0.1c-1.9-0.1-3.7,0.2-5.6,0c-1.2-0.1-2.3-0.3-3.4-0.4c-1.9-0.2-3.8-0.2-5.7-0.1c-2.7,0-5.3,0.3-7.9,1
	c0,0,0.2,2.9,0.2,3.2c0,1.3,0,1.5,1.3,1.5L438.5,474.5z"/>
<path class="st11" d="M438.5,480.7c4.4-0.2,8.9-0.2,13.3,0.2c0.6,0.1,1.1,0.5,1.1,1.1l0.4,3.5c0,0.2,0,0.3-0.1,0.5
	c-0.1,0.1-0.2,0.1-0.3,0.1c-1.9,0.1-3.7-0.2-5.6,0c-1.2,0.1-2.3,0.3-3.4,0.4c-1.9,0.2-3.8,0.2-5.7,0.1c-2.7,0-5.3-0.3-7.9-1
	c0,0,0.2-2.9,0.2-3.2c0-1.3,0-1.5,1.3-1.5L438.5,480.7z"/>
<path class="st12" d="M444.1,407.7c0.4,0.9,0.5,2,0.4,3c0,0.1,0,0.2-0.1,0.2c-0.1,0.1-0.2,0.1-0.4,0.1l-8.1,0.3c0,0,0.5-2.4,0.5-2.6
	c0.3-1,1-0.7,1.9-0.8L444.1,407.7z"/>
<path class="st12" d="M456.4,407.7c0.4,0.9,0.5,2,0.4,3c0,0.1,0,0.2-0.1,0.2c-0.1,0.1-0.2,0.1-0.4,0.1l-8.1,0.3c0,0,0.5-2.4,0.5-2.6
	c0.3-1,1-0.7,1.9-0.8L456.4,407.7z"/>
<path class="st13" d="M451.5,366.9l1.1,9.4c0.2,1.4-0.9,2.7-2.3,2.8c0,0,0,0-0.1,0c-6.9,0.5-13.9,0.5-20.8-0.1
	c-1.3-0.1-2.3-1.2-2.3-2.4c-0.1-1.7-0.4-3.3-0.7-5c-0.3-1.7-0.6-3.4,1.4-3.9s4.8-0.1,7-0.2c2.6-0.1,5.3-0.1,7.9-0.2
	C443.4,367.3,451.5,366.9,451.5,366.9z"/>
<path class="st13" d="M451.5,400.8l1.1-9.4c0.2-1.4-0.9-2.7-2.3-2.8c0,0,0,0-0.1,0c-6.9-0.5-13.9-0.5-20.8,0.1
	c-1.3,0.1-2.3,1.2-2.3,2.4c-0.1,1.7-0.4,3.3-0.7,5c-0.3,1.7-0.6,3.4,1.4,3.9s4.8,0.1,7,0.2c2.6,0.1,5.3,0.1,7.9,0.2
	C443.4,400.5,451.5,400.9,451.5,400.8z"/>
<path class="st11" d="M440.5,443.1c-0.3,3.1-0.5,6.3-0.5,9.4c-3.1,0-6.3-0.4-9.3-1.1c-0.9,0-1.6-0.8-1.6-1.7c0-0.1,0-0.2,0-0.3
	c-0.1-1.9-1.1-6.3,1.7-6.6C431.6,442.8,440.5,443.3,440.5,443.1z"/>
<path class="st14" d="M289.9,400.5c1.5-0.2,2.8,0.9,3,2.4c0,0.2,0,0.4,0,0.5c-1,11.4-0.2,23,1.1,34.3c0.6,5,1.3,10.3,3.3,14.3
	c0.6,1.1,0.1,2.4-1,3c-0.3,0.2-0.7,0.2-1,0.2l0,0l-37.8,0.2c-0.8,0-1.5-0.7-1.5-1.5c0-0.1,0-0.2,0-0.3c3-13,2.3-27.2,1.1-40.6
	c-0.6-6.7-1-10.2,4-10.7c5.1-0.5,10.2-0.7,15.3-1.1C277.6,401.2,285.3,401,289.9,400.5z"/>
<path class="st10" d="M342.4,400.3c-0.7-0.1-1.4,0.4-1.5,1.1c0,0.1,0,0.2,0,0.4c1.2,11.9,0.4,24.1-0.9,36
	c-0.6,5.5-1.5,11.2-3.9,15.2c-0.3,0.6-0.2,1.4,0.4,1.8s1.4,0.6,2.2,0.5l38,0.2c0.8,0,1.4-0.6,1.4-1.4c0-0.1,0-0.2,0-0.3
	c-3-13-2.4-27.3-1.2-40.7c0.6-6.7,1-10.2-4-10.7c-5.1-0.5-10.2-0.7-15.4-1.1C356.1,401.2,346.5,400.9,342.4,400.3z"/>
<line class="st11" x1="267.3" y1="408" x2="286.6" y2="433.8"/>
<line class="st11" x1="286.6" y1="406.1" x2="267.9" y2="435.1"/>
<line class="st11" x1="353.4" y1="409.3" x2="364" y2="423.3"/>
<line class="st11" x1="364" y1="408.2" x2="353.8" y2="424"/>
<path class="st11" d="M273.6,442c4.4-0.2,8.9-0.2,13.3,0.2c0.6,0.1,1.1,0.5,1.1,1.1l0.4,3.5c0,0.2,0,0.3-0.1,0.5
	c-0.1,0.1-0.2,0.1-0.3,0.1c-1.9,0.1-3.7-0.2-5.6,0c-1.2,0.1-2.3,0.3-3.4,0.4c-1.9,0.2-3.8,0.2-5.7,0.1c-2.7,0-5.3-0.3-7.9-1
	c-0.1,0,0.2-2.9,0.2-3.2c0-1.3-0.1-1.5,1.3-1.5L273.6,442z"/>
<path class="st11" d="M354.8,429.2c4.4-0.2,8.9-0.2,13.3,0.2c0.6,0.1,1.1,0.5,1.1,1.1l0.4,3.5c0,0.2,0,0.3-0.1,0.5
	c-0.1,0.1-0.2,0.1-0.3,0.1c-1.9,0.1-3.7-0.2-5.6,0c-1.2,0.1-2.3,0.3-3.4,0.4c-1.9,0.2-3.8,0.2-5.7,0.1c-2.7,0-5.3-0.3-7.9-1
	c0,0,0.2-2.9,0.2-3.2c0-1.3,0-1.5,1.3-1.5L354.8,429.2z"/>
<path class="st11" d="M361.6,438.8c-4.4-0.2-8.9-0.2-13.3,0.2c-0.6,0.1-1.1,0.5-1.1,1.1l-0.4,3.5c0,0.2,0,0.3,0.1,0.5
	c0.1,0.1,0.2,0.1,0.3,0.1c1.9,0.1,3.7-0.2,5.6,0c1.2,0.1,2.3,0.3,3.4,0.4c1.9,0.2,3.8,0.2,5.7,0.1c2.7,0,5.3-0.3,7.9-1
	c0,0-0.2-2.9-0.2-3.2c0-1.4,0.1-1.5-1.3-1.5L361.6,438.8z"/>
<path class="st13" d="M306.3,432.5c0,0,12.5-0.6,14.8,0"/>
<path class="st13" d="M321.2,425.8c0,0,5.5,5.5,5.5,6.8s-7.1,5.8-7.1,5.8"/>
<path class="st13" d="M388.4,420.8c0,0,11.4-5.3,13.7-5.6"/>
<path class="st13" d="M399.6,409c0,0,7.1,3,7.6,4.2s-4.4,8-4.4,8"/>
<path class="st13" d="M388.3,434.5c0,0,11.6,4.9,13.3,6.5"/>
<path class="st13" d="M404.6,434.9c0,0,2.6,7.3,2,8.5s-8.9,2.1-8.9,2.1"/>
<path class="st12" d="M433.2,407.7c0.4,0.9,0.5,2,0.4,3c0,0.1,0,0.2-0.1,0.2c-0.1,0.1-0.2,0.1-0.4,0.1l-8.1,0.3c0,0,0.5-2.4,0.5-2.6
	c0.3-1,1-0.7,1.9-0.8L433.2,407.7z"/>
<g>
	<g>
		<polygon class="st15" points="262,532.8 264.6,535.7 264.7,533.1 262.7,531.8 		"/>
		<polygon class="st16" points="243.3,512.2 247.2,515.2 247.9,515.9 257.6,525.2 260.9,528.4 261.1,529.8 263.2,532 262.1,533.2 
			259.7,531.2 258.4,531.2 254.9,528 245,518.8 244.4,518.2 241,514.6 		"/>
		<polygon class="st15" points="247.9,515.9 257.6,525.2 254.9,528 245,518.8 		"/>
	</g>
	<polygon class="st17" points="153.9,663.8 157.3,680.9 140.3,684.3 142.8,663 	"/>
	<polygon class="st17" points="207.7,660.4 203.4,681.7 182.9,681.7 191.5,656.1 	"/>
	<path class="st18" d="M226.4,512l3.4,23l-4.3,50.3c0,0,0.9,0.9,0,3.4c-0.9,2.6,1.7,4.3,0,5.1c-1.7,0.9-3.4,10.2-3.4,10.2
		l-14.5,61.4c0,0-16.2,0-18.8-6.8l4.3-35c0,0,0-18.8,1.7-23.9c1.7-5.1,1.7-4.3,0.9-7.7c-0.9-3.4-5.1-1.7-1.7-4.3l3.4-2.6l-5.1-3.4
		l-10.2-47.8L164.2,599c0,0-0.9,21.3-3.4,29s-6,40.9-6,40.9s-14.5,2.6-15.4,0s-1.7-63.1-1.7-72.5s5.1-7.7,3.4-11.1s-1.7-3.4-1.7-5.1
		s3.4-0.9,1.7-3.4c-1.7-2.6-8.4-79.7-8.4-79.7L226.4,512z"/>
	<path class="st18" d="M191.5,677.5c0,0,4.3,0.9,6.8,0s0-6,0-6h9.4c0,0,10.2,23,14.5,24.7s17.9,20.5,1.7,20.5
		c-10-0.1-19.8-3.1-28.2-8.5c0,0-1.7-7.7-9.4-8.5c-7.7-0.9-12.8-10.2-12.8-10.2l11.1-20.5C184.6,668.9,187.2,678.3,191.5,677.5z"/>
	<path class="st18" d="M151.4,676.6c0,0-1.7,3.4-3.4,1.7s-3.4-6-3.4-6s-5.1-2.6-6,0s-4.3,16.2-6,17.9s-19.6,19.6-1.7,23
		s21.3-4.3,21.3-4.3s-2.6-4.3,2.6-6c5.1-1.7,6-7.7,6-7.7l-3.4-25.6C157.3,669.8,153.9,678.3,151.4,676.6z"/>
	<path class="st17" d="M246.1,452.2l2.6,44.4c0,0,11.9,28.2-4.3,27.3c-16.2-0.9-6-28.2-6-28.2l-15.9-39.6L246.1,452.2z"/>
	<path class="st17" d="M114.7,439.5l-2.6,44.4c0,0-11.9,28.2,4.3,27.3s6-28.2,6-28.2l15.9-39.6L114.7,439.5z"/>
	<circle class="st17" cx="182.9" cy="320.9" r="22.2"/>
	<path class="st17" d="M200.4,329.8c0,0-6,23.9,6,29.9c11.9,6-37.5,14.5-40.9,0l1.7-6.8c0,0,6.8-8.5,5.1-16.2L200.4,329.8z"/>
	<path class="st19" d="M185.8,358.4c0,0-15,1.4-19.7-8.5c0,0-35.2,2.4-43,34.7l13.1,83.7c0,0,3.5,14.8-1.7,18.3
		c-5.2,3.5-12.2,6.1-10.4,8.7c0,0-8.7,24.4,71.6,25.3l34.9-1.7c0.5-4.9,0.2-9.9-0.9-14.8c-1.7-7.9-3.5-7-1.7-12.2
		c1.7-5.2,0.9-8.7,0.9-8.7l-10.4-41.8c0,0,26.2-41,23.5-47.1c-2.7-6.1-6.9-30.2-40.5-40C201.1,354.2,200.6,359.3,185.8,358.4z"/>
	<path class="st19" d="M230.3,379.4l11.3,14.8c0,0,11.3,62,7.9,62.8c-3.5,0.9-24.4,7.9-27.9,5.2c-3.5-2.7-19.2-54.1-19.2-54.1
		L230.3,379.4z"/>
	<path class="st19" d="M140.3,376.3l-14.5,9.4c0,0-21.3,59.7-15.4,62.3c6,2.6,39.2,0.9,39.2,0.9L140.3,376.3z"/>
	<path class="st18" d="M207.2,301c0,0-7.7-16.6-22.4-12.8c-14.7,3.8-23,9.6-23.7,15.4c-0.6,5.8,0.3,14.4,0.3,14.4s1.6-11.8,11.8-9.3
		c10.2,2.6,26.2,0.6,26.2,0.6l2.6,23c0,0,2.9-4.2,6.1-1.6C211.3,333.3,217.4,306.1,207.2,301z"/>
</g>
<g>
	<path class="st20" d="M1069.8,558.6c0-6.9-5.5-12.5-12.4-12.5c-0.5,0-0.9,0-1.4,0.1c-0.6,0.1-1.1,0.2-1.6,0.3l-42.2-36.2l2.5-13.6
		l-20.8-6.7l-6.3,21.8c-1.5,5.4,0.7,11.1,5.4,14.1l51.9,32.8c0,0.4,0,0.8,0.1,1.2c0.7,6.8,6.9,11.8,13.7,11.1
		c0.5-0.1,0.9-0.1,1.4-0.2c0.5-0.1,1-0.3,1.5-0.4C1066.4,568.5,1069.7,563.8,1069.8,558.6z"/>
	<path class="st9" d="M964.8,600.5h54.4c0,1.6,56.1,2.8,56.1,2.8c0.9,0.7,1.7,1.4,2.4,2.3c2.1,2.5,3.3,5.8,3.3,9.1v2.3
		c0,7.8-6.3,14.2-14.2,14.2h-102c-7.8,0-14.2-6.3-14.2-14.2v-2.3C950.6,606.9,957,600.5,964.8,600.5z"/>
	<rect x="1009.3" y="630.6" class="st9" width="14.7" height="95.2"/>
	<path class="st9" d="M1066,727c0,1.8-22.3,0.7-49.9,0.7c-27.6,0-49.9,1.1-49.9-0.7s22.3-15.9,49.9-15.9
		C1043.6,711.1,1066,725.2,1066,727z"/>
	<polygon class="st20" points="1052.7,714.1 1066.6,714.1 1073.2,678.1 1052.6,678.1 	"/>
	<path class="st18" d="M1049.1,727.6h44.8V727c0-9.6-7.8-17.4-17.4-17.4l0,0l0,0h-27.4V727.6z"/>
	<path class="st21" d="M1073.4,691.8l27.7-62.1c4.8-10.9,0.4-23.6-10-29.2l-60.1-32.2l-27.4-2.3l-25.3-2.3l-0.2,0.3
		c-0.2,0.4-5.7,9.8-2,20.1c2.8,7.8,10,13.9,21.6,18.1c26.9,9.9,57.9,18.3,70.1,21.4c1.1,0.3,2,1,2.5,2s0.6,2.1,0.2,3.2l-25.7,57.8
		c-1,2.6,0.4,5.6,3,6.5c0.4,0.2,0.8,0.2,1.3,0.3l19.2,1.4c0.2,0,0.3,0,0.5,0C1070.8,694.8,1072.6,693.6,1073.4,691.8z"/>
	<polygon class="st20" points="1043.6,714.1 1057.5,714.1 1064.1,678.1 1043.6,678.1 	"/>
	<path class="st18" d="M1040,727.6h44.8V727c0-9.6-7.8-17.4-17.4-17.4l0,0l0,0H1040V727.6z"/>
	<path class="st21" d="M1063.2,695.2l27.7-62.1c4.8-10.9,0.4-23.6-10-29.2l-60.1-32.2l-27.4-2.3l-19.8-1.7v-0.3
		c-0.2,0.4-5.7,9.8-2,20.1c2.8,7.8,4.4,13.9,15.9,18.1c26.9,9.9,57.9,18.3,70.1,21.4c1.1,0.3,2,1,2.5,2s0.6,2.1,0.2,3.2l-25.7,57.8
		c-1,2.6,0.4,5.6,3,6.5c0.4,0.2,0.8,0.2,1.3,0.3l19.2,1.4c0.2,0,0.3,0,0.5,0C1060.6,698.2,1062.4,697,1063.2,695.2z"/>
	<path class="st18" d="M1011,568.7c1.3-0.9,20.4,9.1,23.8,1.1c-15.9-39.7-4.9-56.8-14.7-79.6c-3.5-8-10.4-13.9-18.8-16.1l-25.2-1.3
		l-0.1,0.1c-11.7,5.7-18.2,18.4-16.1,31.3c0.1,24.8,14.9,43.7,9.7,61.6c-0.4,1.5-0.2,3.1,0.5,4.5c0.8,1.3,2,2.3,3.5,2.6l33.3-4.4
		c1.6,0.4,3.2,0.1,4.6-0.9L1011,568.7z"/>
	<circle class="st20" cx="984.6" cy="435.6" r="27.8"/>
	<path class="st18" d="M975.7,461.2c1.5,0.6,4.5-11.1,3.2-13.5c-2-3.5-1.9-3.5-3.2-5.8s-1.6-5.5,0.1-7.5c1.7-2,5.8-1.8,6.5,0.8
		c-0.5-4.9,4.3-8.8,9.1-9.9s9.8-0.4,14.6-1.4c5.6-1.1,11.3-5.8,9.1-11.9c-0.4-1-1-2-1.7-2.8c-2.6-2.9-6.1-4.1-9.7-5.3
		c-7.3-2.5-14.8-5-22.5-4.7c-12.6,0.4-24.6,9.2-28.9,21.1c-0.5,1.5-0.9,3-1.2,4.6c-2.6,14.2,5.6,28.2,19,33.6L975.7,461.2z"/>
	<path class="st9" d="M1121.7,505.9l3.2,19c0,0.2,0,0.4-0.1,0.6l-25.1,62.6c-0.2,0.6-0.9,0.9-1.5,0.6c-0.4-0.2-0.7-0.6-0.7-1
		l-1.1-25.2c0-0.2,0-0.3,0.1-0.5l22.9-56.4c0.2-0.6,0.9-0.9,1.5-0.6C1121.4,505.2,1121.7,505.5,1121.7,505.9L1121.7,505.9z"/>
	<polygon class="st1" points="1120,507.4 1123,523.7 1100.8,580.8 1097.9,562.4 	"/>
	<path class="st9" d="M1022.7,587.8c0.5,2.1,72.4,4.4,73.1,3.8c0.7-0.8,1.2-1.7,1.7-2.7c0.8-1.3,1.4-2.7,1.4-2.7l-1.2-22.7
		l-70.7-7.6c0,0-3.1,19-4.1,27.7C1022.7,585,1022.6,586.4,1022.7,587.8z"/>
	<polygon class="st8" points="1088.5,566 1088.6,585.5 1057.3,583.3 1058.6,563.8 	"/>
	<polygon class="st8" points="1047.8,569.4 1048,569.3 1046.5,577.7 1029.1,576.4 1029.7,568.1 	"/>
	<path class="st8" d="M1022.7,587.8c0.5,2.1,72.4,4.4,73.1,3.8c0.7-0.8,1.2-1.7,1.7-2.7l-74.6-5.3
		C1022.7,585,1022.6,586.4,1022.7,587.8z"/>
	<path class="st20" d="M993.9,553.9l60.6,11.3c0.2,0.4,0.3,0.8,0.5,1.1c1.7,3.1,4.6,5.4,8,6.3c3.5,0.9,7.1,0.2,10.1-1.8
		c5.7-3.9,7.1-11.7,3.2-17.3c-3.6-5.2-10.5-6.9-16.1-4c-0.5,0.3-1,0.6-1.4,0.9l-52.6-18l-2.7-13.6l-21.8,1.4l2.3,22.7
		C984.4,548.5,988.5,552.9,993.9,553.9z"/>
	<path class="st18" d="M980.8,530.4l31.7-10.4l-7.4-21.2c-2-5.8-8-9.3-14-8.3l0,0c-6.2,1-10.6,6.4-10.6,12.6L980.8,530.4z"/>
	<path class="st21" d="M1182,728.7H916c-0.4,0-0.7-0.3-0.7-0.7s0.3-0.7,0.7-0.7h266c0.4,0,0.7,0.3,0.7,0.7S1182.4,728.7,1182,728.7z
		"/>
</g>
<g class="st22">
	<path class="st23" d="M227,44.7h100.6v97.8H227V44.7z"/>
	<path class="st24" d="M222.4,40.1v107h109.7v-107H222.4z M227,44.6h100.6v97.8H227V44.6z"/>
	<path class="st24" d="M302.1,85c-0.8-0.3-1.7-0.5-2.7-0.5c-5.8,0-9.6,4.4-9.6,11.8c0,8.4,3.9,11.8,9.1,11.8c1.1,0,2.1-0.1,3.2-0.5
		V85L302.1,85z M281.6,96.7c0-10.7,6.9-19,18.1-19c0.8,0,1.6,0,2.4,0.1V65.9c0-0.3,0.2-0.5,0.5-0.5l0,0h7.4c0.4,0,0.5,0.1,0.5,0.4
		v41.8c0,1.5,0,3,0.2,4.5c0,0.3,0,0.4-0.3,0.5c-3.7,1.7-7.7,2.6-11.7,2.7C288.7,115.3,281.6,109.2,281.6,96.7L281.6,96.7z M266,89.3
		l12.8,24.8c0.2,0.4,0.1,0.7-0.3,0.7h-8c-0.4,0.1-0.8-0.2-1-0.6c-2.9-6-5.9-12.3-9-18.8h-0.1c-2.7,6.1-5.8,12.8-8.7,18.8
		c-0.2,0.3-0.5,0.5-0.8,0.5h-7.6c-0.5,0-0.5-0.4-0.3-0.6L255.5,90l-12.1-23.9c-0.2-0.2-0.1-0.4,0-0.6c0.1-0.1,0.2-0.1,0.3-0.1h7.9
		c0.5,0,0.7,0.1,0.8,0.5c2.9,6.1,5.8,12.1,8.6,18.2h0.1c2.6-6,5.6-12.1,8.4-18.1c0.2-0.4,0.4-0.6,0.8-0.6h7.4c0.4,0,0.5,0.3,0.3,0.7
		L266,89.3L266,89.3z"/>
</g>
</svg>
