<?xml version="1.0" encoding="utf-8"?>
<!-- Generator: Adobe Illustrator 23.0.1, SVG Export Plug-In . SVG Version: 6.00 Build 0)  -->
<svg version="1.1" id="ba230943-1bdb-4bd0-9561-c7824586c7f7"
	 xmlns="http://www.w3.org/2000/svg" xmlns:xlink="http://www.w3.org/1999/xlink" x="0px" y="0px" viewBox="0 0 906.2 586.3"
	 style="enable-background:new 0 0 906.2 586.3;" xml:space="preserve">
<style type="text/css">
	.st0{fill:#FFB9B9;}
	.st1{fill:#FFB8B8;}
	.st2{fill:#2F2E41;}
	.st3{fill:#CCCCCC;}
	.st4{opacity:0.1;enable-background:new    ;}
	.st5{fill:#E6E6E6;}
	.st6{fill:#3F3D56;}
	.st7{fill:#FFFFFF;}
	.st8{fill:#F2F2F2;}
	.st9{fill:#FFAA0B;}
	.st10{fill:#A0616A;}
</style>
<path class="st0" d="M223.8,393.2c0-5.4-4.3-9.8-9.7-9.8s-9.8,4.3-9.8,9.7c0,0.5,0,0.9,0.1,1.4l-28,36.7c-2.4,4.9-1.7,10.8,1.8,14.9
	l2.2,2.6l10.1-2l11.4-10.1l-1.3-11.4l14.1-22.2l0,0C219.8,402.6,223.8,398.4,223.8,393.2z"/>
<polygon class="st1" points="30,572.6 25.5,555.6 88.8,529.9 95.5,554.9 "/>
<path class="st2" d="M14.7,581.3L0,526.6l0.7-0.2c11.8-3.2,23.9,3.8,27.1,15.6l0,0l9,33.4L14.7,581.3z"/>
<polygon class="st1" points="117.3,569.9 103.1,559.5 136.2,499.7 157.2,515 "/>
<path class="st2" d="M110.9,586.3L65,552.9l0.4-0.6c7.2-9.9,21-12,30.8-4.9l0,0l28,20.4L110.9,586.3z"/>
<path class="st2" d="M238.2,486.3l-35.8-34.8c-6.5-6.3-16.6-6.8-23.7-1.3l-67.6,75.1l6.1,9.4l64.5-43.7l43.7,57.1l41.7-20.8
	L238.2,486.3z"/>
<path class="st0" d="M222.7,493.7l-26.2-2l-19-4.6c-2.9-4.5-8.9-5.9-13.5-2.9c-4.5,2.9-5.9,8.9-2.9,13.5c2.9,4.5,8.9,5.9,13.5,2.9
	c0.4-0.2,0.8-0.5,1.1-0.8l0,0l11.4,4.7l49.1,16.8l6-4.7L222.7,493.7z"/>
<polygon class="st2" points="285.9,566.3 271.1,575.7 253.7,575.7 172.3,545.5 53.3,567 50,541.4 158.9,493.7 254.3,525.3 "/>
<circle class="st0" cx="254.3" cy="376.7" r="26.2"/>
<path class="st3" d="M322.2,481.4c0,15.8-2.5,31.5-7.4,46.6l-2,6l-9.4,43l-10.1,2.7l-7.4-9.4l-14.8-10.8l-10.8-17.5l-9.2-15.4
	l-2.9-4.8l-10.1-50.4L199.9,450l-12.8-2l2.7-7.4l11.4-15.5l11.4-1.3l3.4-2.7l2.7,1.3l14.8,5.7l48.1-20.3l7,1.1l24.2,20.2
	C319,445.9,322.2,463.6,322.2,481.4z"/>
<polygon class="st4" points="314.8,475.6 289.3,492.4 251.2,526.7 248.3,521.9 240.2,481.6 242.2,481.6 263.1,443.3 "/>
<polygon class="st3" points="263.1,439.3 242.2,477.6 230.1,491 219.4,493.7 248.3,525.3 289.3,488.3 314.8,471.5 "/>
<path class="st2" d="M233.9,357.3l-2.8,1.1c-1.8-1.2-2.3-3.7-1.1-5.5l0,0c0,0,0,0,0-0.1l-5.2-0.2c13.1-17.5,38-21,55.5-7.9
	c1.3,1,2.5,2,3.7,3.1c0.2-0.8,2.8,0.8,3.9,2.4c0.4-1.3,2.8,5.1,3.7,9.7c0.4-1.5,1.9,0.9,0.6,3.3c0.9-0.1,1.2,2.1,0.6,3.3
	c0.9-0.4,0.8,2.2-0.2,3.9c1.3-0.1-0.1,27.3-20.1,25.3c-1.4-6.4-1-6-2.6-14.2c-0.8-0.8-1.6-1.5-2.4-2.3l-4.5-4
	c-5.2-4.6-10-10.3-17-12.1c-4.8-1.2-7.8-1.5-5.2-6.9c-2.4,1-4.6,2.5-7,3.4C233.6,358.9,234,358,233.9,357.3z"/>
<circle class="st0" cx="267.4" cy="379.8" r="4.7"/>
<rect x="47.3" y="269.3" transform="matrix(6.644947e-02 -0.9978 0.9978 6.644947e-02 -225.3158 319.4551)" class="st5" width="21.6" height="21.6"/>
<path class="st3" d="M34.1,280.1l26.2,1.7L58.5,308l-26.2-1.7L34.1,280.1z M59.1,282.9l-23.9-1.6l-1.6,23.9l23.9,1.6L59.1,282.9z"/>
<rect x="150.8" y="206.7" transform="matrix(0.9777 -0.2101 0.2101 0.9777 -42.0933 38.793)" class="st5" width="21.6" height="21.6"/>
<path class="st3" d="M155,194.5l5.5,25.7l-25.7,5.5l-5.5-25.7L155,194.5z M159.2,219.2l-5-23.4l-23.4,5l5,23.4L159.2,219.2z"/>
<rect x="136.3" y="310.6" transform="matrix(0.7298 -0.6836 0.6836 0.7298 -179.9854 187.4341)" class="st5" width="21.6" height="21.6"/>
<path class="st3" d="M163.6,304l-19.2,17.9l-17.9-19.2l19.2-17.9L163.6,304z M144.5,320.3l17.5-16.4l-16.4-17.5l-17.5,16.4
	L144.5,320.3z"/>
<g>
	<path class="st6" d="M672.8,354.2H333.2c-5.2,0-9.3,4.2-9.3,9.3c0,0,0,0,0,0v189.2c0,5.2,4.2,9.3,9.3,9.3l0,0h339.6
		c5.2,0,9.3-4.2,9.3-9.3V363.6C682.2,358.4,678,354.2,672.8,354.2L672.8,354.2z"/>
	<rect x="336.4" y="370.7" class="st7" width="333.2" height="188"/>
	<circle class="st7" cx="502.8" cy="362.2" r="3.4"/>
	<polygon class="st8" points="574.4,558.7 336.4,558.7 336.4,370.7 	"/>
	<circle class="st9" cx="388.6" cy="512.6" r="32"/>
	<path class="st6" d="M395.7,536.7c-22,0-39.8-17.8-39.8-39.8c0-22,17.8-39.8,39.8-39.8s39.8,17.8,39.8,39.8
		C435.5,518.8,417.7,536.7,395.7,536.7L395.7,536.7z M395.7,457.5c-21.7,0-39.3,17.6-39.3,39.3c0,21.7,17.6,39.3,39.3,39.3
		s39.3-17.6,39.3-39.3C435,475.1,417.4,457.5,395.7,457.5L395.7,457.5L395.7,457.5z"/>
	<rect x="561.4" y="468.4" class="st6" width="31.1" height="6.5"/>
	<rect x="531.9" y="433.2" class="st6" width="90" height="2.8"/>
	<rect x="531.9" y="444.1" class="st6" width="90" height="2.8"/>
	<rect x="531.9" y="455.1" class="st6" width="90" height="2.8"/>
	<rect x="633.1" y="382" class="st9" width="13" height="13"/>
	<path class="st3" d="M652.1,401h-15.8v-15.8h15.8V401z M637,400.3h14.4v-14.4H637V400.3z"/>
	<path class="st6" d="M691.5,555.3H659V553c0-0.3-0.2-0.5-0.5-0.5l0,0h-11.2c-0.3,0-0.5,0.2-0.5,0.5l0,0v2.3h-7V553
		c0-0.3-0.2-0.5-0.5-0.5l0,0h-11.2c-0.3,0-0.5,0.2-0.5,0.5v0l0,0v2.3h-7V553c0-0.3-0.2-0.5-0.5-0.5l0,0h-11.2
		c-0.3,0-0.5,0.2-0.5,0.5l0,0l0,0v2.3h-7V553c0-0.3-0.2-0.5-0.5-0.5l0,0h-11.2c-0.3,0-0.5,0.2-0.5,0.5l0,0v2.3h-7V553
		c0-0.3-0.2-0.5-0.5-0.5l0,0h-11.2c-0.3,0-0.5,0.2-0.5,0.5v0l0,0v2.3h-7V553c0-0.3-0.2-0.5-0.5-0.5h0h-11.2c-0.3,0-0.5,0.2-0.5,0.5
		l0,0l0,0v2.3h-7V553c0-0.3-0.2-0.5-0.5-0.5l0,0h-87.3c-0.3,0-0.5,0.2-0.5,0.5v0l0,0v2.3h-7V553c0-0.3-0.2-0.5-0.5-0.5h0h-11.2
		c-0.3,0-0.5,0.2-0.5,0.5l0,0l0,0v2.3h-7V553c0-0.3-0.2-0.5-0.5-0.5l0,0h-11.2c-0.3,0-0.5,0.2-0.5,0.5v0l0,0v2.3h-7V553
		c0-0.3-0.2-0.5-0.5-0.5h0h-11.2c-0.3,0-0.5,0.2-0.5,0.5l0,0l0,0v2.3h-7V553c0-0.3-0.2-0.5-0.5-0.5h0h-11.2c-0.3,0-0.5,0.2-0.5,0.5
		l0,0l0,0v2.3h-7V553c0-0.3-0.2-0.5-0.5-0.5h0h-11.2c-0.3,0-0.5,0.2-0.5,0.5v2.3h-7V553c0-0.3-0.2-0.5-0.5-0.5c0,0,0,0,0,0h-11.2
		c-0.3,0-0.5,0.2-0.5,0.5l0,0v2.3h-21.4c-6.2,0-11.2,5-11.2,11.2v5c0,6.2,5,11.2,11.2,11.2h370.8c6.2,0,11.2-5,11.2-11.2v-5
		C702.7,560.3,697.7,555.3,691.5,555.3L691.5,555.3z"/>
</g>
<g>
	<polygon class="st10" points="747.3,571.9 735.1,571.9 729.2,524.6 747.3,524.6 	"/>
	<path class="st2" d="M726.3,568.4H750l0,0v14.9l0,0h-38.5l0,0l0,0C711.4,575,718.1,568.4,726.3,568.4z"/>
	<polygon class="st10" points="842.3,571.9 830.1,571.9 824.2,524.6 842.3,524.6 	"/>
	<path class="st2" d="M821.3,568.4H845l0,0v14.9l0,0h-38.5l0,0l0,0C806.4,575,813.1,568.4,821.3,568.4z"/>
	<circle class="st10" cx="798.2" cy="238.4" r="24.6"/>
	<path class="st2" d="M812.9,342.2l11-25.3c5.5-12.1,2.7-26.4-6.9-35.6c-1-1-2-1.8-3.1-2.7c-5.4-4.2-12.1-6.6-19-6.6
		c-4.6,0-9.2,1-13.4,3c-0.4,0.2-0.7,0.3-1.1,0.5c-0.7,0.3-1.4,0.7-2,1.1c-8.7,5-14.6,13.9-15.7,23.9l-4.9,40.6
		c-1.2,3.2-44.7,118.4-29.5,206.3c0.3,1.9,1.9,3.4,3.8,3.7l15.4,2.1c2.3,0.3,4.5-1.2,5-3.5l25.9-123.4c0.4-1.9,2.3-3.1,4.1-2.7
		c1.3,0.3,2.3,1.2,2.7,2.5l36.6,129.8c0.5,1.9,2.3,3.3,4.3,3.3c0.3,0,0.6,0,0.9-0.1l18.8-3.6c2.3-0.4,3.8-2.5,3.6-4.8
		C846.7,519.7,832,365,812.9,342.2z"/>
	<path class="st10" d="M702.8,258.8c-0.6,5.5,3.3,10.5,8.8,11.2c0.6,0.1,1.2,0.1,1.8,0l13.7,33l10.4-15.4l-14.6-29
		c-0.7-5.5-5.8-9.5-11.3-8.8C706.9,250.5,703.3,254.2,702.8,258.8L702.8,258.8z"/>
	<path class="st10" d="M796.9,375.4c5.5-0.7,9.5-5.7,8.8-11.2c-0.1-0.6-0.2-1.2-0.4-1.7l28.9-21l-17.4-6.5l-24.8,21
		c-5.2,2-7.9,7.8-5.9,13C787.8,373.3,792.2,376,796.9,375.4L796.9,375.4z"/>
	<path class="st2" d="M749.8,325c-1.1,0-2.2-0.1-3.3-0.3c-5.3-1-9.8-4.6-11.9-9.6l-19.2-23.5c-1.6-1.9-1.3-4.8,0.6-6.3
		c0.2-0.1,0.3-0.2,0.5-0.3l13.7-8.5c2.1-1.3,4.9-0.7,6.2,1.5c0,0,0,0,0,0l13.6,22.3l26-19.2c4.8-2.5,10.6-0.7,13.1,4.1
		c2,3.8,1.3,8.5-1.8,11.5l-25.9,23.6C758.2,323.3,754.1,325,749.8,325z"/>
	<path class="st2" d="M819.9,360.3c0,0-0.1,0-0.1,0c-1.3,0-2.5-0.6-3.3-1.6l-12.2-14.2c-1.6-1.9-1.4-4.7,0.5-6.3
		c0.1-0.1,0.3-0.2,0.4-0.3l22.8-15.2l-20.6-24.8c-2.8-4.6-1.3-10.6,3.3-13.3c3.7-2.2,8.4-1.7,11.6,1.2l25.1,24.5
		c6.7,6.2,7.2,16.6,1.1,23.3c-1.3,1.5-2.9,2.7-4.7,3.6l-20.5,21.8C822.3,359.8,821.2,360.3,819.9,360.3z"/>
	<circle class="st2" cx="826.4" cy="209.5" r="9.8"/>
	<path class="st2" d="M792.8,198.8L792.8,198.8c-14.4,0-26,11.6-26,26v11h13.5l6.5-11l1.9,11h41.1l-11-11
		C818.8,210.4,807.1,198.8,792.8,198.8z"/>
	<path class="st2" d="M831.5,202.8c2.2-7,9.2-11.4,16.5-10.4c6.3,1,11.2,6.1,14.1,11.7s4.3,11.9,6.3,17.9s4.8,12.1,9.8,16
		s12.7,5,17.6,0.9c-1.5,11-11.6,18.7-22.6,17.3c-6.3-0.8-11.8-4.6-14.9-10.1c-2.6-4.6-3.3-10-4-15.3s-1.8-10.6-4.9-14.9
		s-8.9-7.1-13.8-5.1L831.5,202.8z"/>
</g>
<g>
	<circle class="st9" cx="505.1" cy="412.2" r="33.6"/>
	<path class="st9" d="M501.5,61.4C449,61.8,406,104.5,405.2,157c0,0.5,0,3.9,0,8.4c0,13.6,11,24.7,24.7,24.7h0
		c13.6,0,24.7-11.1,24.7-24.7c0,0,0,0,0,0c0-3,0-5.1,0-5.3c0-25.8,20.9-46.8,46.8-46.8c25.8,0,46.8,20.9,46.8,46.8
		c0,15.9-8.1,30.8-21.5,39.4l0,0c0,0-35.1,22.6-45.8,53.6l0,0c-1.9,6.3-2.8,12.9-2.8,19.6c0,2.7,0.2,26.5,0.5,45.9
		c0.2,13.9,11.5,25,25.4,25h0c14,0,25.4-11.4,25.4-25.4c0-0.1,0-0.1,0-0.2c-0.1-17.7-0.2-38.3-0.2-39.8c0-19,18.4-38,33.4-50.4
		c17.4-14.2,29.9-33.6,34.9-55.5c1.1-4.5,1.7-9.1,1.8-13.8c0-53.6-43.4-97-97-97C502,61.4,501.7,61.4,501.5,61.4z"/>
	<path class="st6" d="M436.8,178.3L436.8,178.3c-13.6,0-24.7-11-24.7-24.7c0-4.5,0-7.9,0-8.4c0.2-15.3,4.1-30.3,11.2-43.8
		c-11.8,16.1-18.3,35.5-18.5,55.5c0,0.5,0,3.9,0,8.4c0,13.6,11,24.7,24.7,24.7l0,0c11,0,20.7-7.3,23.7-18
		C448.7,176.1,442.9,178.3,436.8,178.3z"/>
	<path class="st6" d="M503.2,113.4c25.8,1.2,45.7,23.1,44.5,48.9c-0.3,5.6-1.6,11.2-3.8,16.4c16.7-19.7,14.4-49.2-5.3-65.9
		c-19.7-16.7-49.2-14.4-65.9,5.3c-3,3.5-5.4,7.5-7.3,11.7C474.7,118.7,488.7,112.6,503.2,113.4z"/>
	<path class="st6" d="M510.8,331.8L510.8,331.8c-13.9,0-25.2-11.1-25.4-25c-0.3-19.3-0.5-43.2-0.5-45.9c0-6.6,0.9-13.2,2.8-19.6l0,0
		c1.1-3.2,2.5-6.3,4-9.3c-4.8,6.4-8.6,13.5-11.3,21l0,0c-1.9,6.3-2.8,12.9-2.8,19.6c0,2.7,0.2,26.5,0.5,45.9
		c0.2,13.9,11.5,25,25.4,25l0,0c11.3,0,21.2-7.5,24.4-18.3C523.2,329.4,517.1,331.8,510.8,331.8z"/>
	<path class="st6" d="M497.7,437.6c-17-7.4-24.8-27.2-17.4-44.2c1.3-2.9,2.9-5.6,4.9-8c-15,10.9-18.3,32-7.3,47
		c10.9,15,32,18.3,47,7.3c2.3-1.6,4.3-3.6,6.1-5.7C521.3,440.9,508.7,442.3,497.7,437.6z"/>
</g>
</svg>
